<svg width="180" height="180" viewBox="0 0 180 180" fill="none" xmlns="http://www.w3.org/2000/svg">
<circle cx="90" cy="90" r="90" fill="#F3F5F9"/>
<mask id="mask0_1361_33449" style="mask-type:alpha" maskUnits="userSpaceOnUse" x="0" y="0" width="180" height="180">
<circle cx="90" cy="90" r="90" fill="#F3F5F9"/>
</mask>
<g mask="url(#mask0_1361_33449)">
<path d="M178.322 150.685H7.83467C6.8256 150.685 6 149.861 6 148.855V139.153C6 138.146 6.8256 137.322 7.83467 137.322H178.322C179.331 137.322 180.156 138.146 180.156 139.153V148.855C180.156 149.861 179.331 150.685 178.322 150.685Z" fill="#222222"/>
<path d="M183 150.686H17.1914V213.015H183V150.686Z" fill="#3A3A3A"/>
<path d="M183 160.066H17.1914V212.969H183V160.066Z" fill="#444343"/>
<path d="M125.943 99.7529C125.943 99.7529 123.971 88.2663 127.64 75.2238C131.309 62.1813 142.363 33.4419 125.438 20.6282C108.514 7.81444 99.2026 14.862 98.0559 15.5484C96.9092 16.2349 96.634 16.9671 96.634 16.9671C96.634 16.9671 91.5428 13.9467 86.9102 18.157C82.2777 22.3214 73.6547 28.3622 74.5262 48.4523C75.3518 68.5424 82.0025 82.7747 87.7817 87.3511C93.5609 91.9274 93.5609 91.9274 93.5609 91.9274" fill="#EE9D29"/>
<path d="M111.769 78.0159C111.356 77.1463 111.081 76.0938 110.852 74.9497V62.5479H98.0551V74.9497C97.8716 76.048 97.5505 77.0091 97.1836 77.8786C99.3852 79.6176 101.908 80.7159 104.568 80.7159C107.183 80.7159 109.613 79.6633 111.769 78.0159Z" fill="#EABE8D"/>
<path d="M97.2285 77.8789C94.4765 84.2858 87.6423 84.4688 84.3399 85.8875C77.5975 88.7706 74.2034 97.6944 70.0754 106.161C67.8738 110.6 61.6359 118.151 58.6545 121.857C55.6732 125.564 55.9025 130.964 55.9025 130.964L56.9575 137.188C56.9575 137.188 70.0295 124.969 74.7079 118.974C79.3863 112.979 84.661 104.925 84.661 104.925L94.7976 113.391L96.6781 138.195L104.292 138.698V80.7162C101.769 80.6247 99.3384 79.5721 97.2285 77.8789Z" fill="#F4D0AB"/>
<path d="M134.747 106.161C132.407 97.054 131.352 88.8166 124.61 85.8878C121.353 84.4691 114.565 84.286 111.767 77.9707C109.612 79.6639 107.181 80.6707 104.566 80.6707C104.474 80.6707 104.383 80.6707 104.291 80.6707V138.699L135.572 140.849C135.618 140.895 137.086 115.268 134.747 106.161Z" fill="#EABE8D"/>
<path d="M26.4106 75.7754H19.2554C14.9898 75.7754 11.5039 79.2076 11.5039 83.3721V129.913C11.5039 134.078 14.9898 137.51 19.2554 137.51H57.4624C61.7281 137.51 65.2139 134.078 65.2139 129.913V83.3721C65.2139 79.2076 61.7281 75.7754 57.4624 75.7754H51.0411" fill="#437282"/>
<path d="M51.0406 75.7751V74.0361H26.4102V75.7751" fill="#437282"/>
<path d="M26.4113 82.4092H19.5312V129.591H57.1879V82.4092H51.0417" fill="white"/>
<path d="M50.9948 73.7139H26.4102V83.8276H50.9948V73.7139Z" fill="#222222"/>
<path d="M45.9944 122.314L39.3438 113.848L42.6462 111.376L45.0312 114.397L49.9848 103.597L53.7918 105.29L45.9944 122.314Z" fill="#437282"/>
<path d="M104.292 105.107C104.292 105.107 109.154 105.107 115.483 101.217C121.813 97.3273 122.226 85.1543 122.226 85.1543L124.565 85.795C124.565 85.795 123.097 92.5222 124.336 101.538C125.62 110.553 129.702 115.953 128.968 121.902C128.143 129.179 122.226 138.743 122.226 138.743H104.246" fill="#2D6679"/>
<path d="M104.615 105.107C104.615 105.107 99.7528 105.107 93.4232 101.217C87.0935 97.3273 86.6807 85.1543 86.6807 85.1543L84.3415 85.795C84.3415 85.795 85.8093 92.5222 84.5709 101.538C83.3325 110.553 79.2044 115.953 79.9383 121.902C80.7639 129.179 86.6807 138.743 86.6807 138.743H104.661" fill="#1C7F98"/>
<path d="M104.477 32.0225C95.579 32.0225 88.332 32.0225 88.332 53.1193C88.332 62.1805 95.579 74.2162 104.477 74.2162C104.523 74.2162 104.569 74.2162 104.615 74.2162V32.0225C104.569 32.0225 104.523 32.0225 104.477 32.0225Z" fill="#F4D0AB"/>
<path d="M120.578 53.1193C120.578 32.1598 113.423 32.0225 104.57 32.0225V74.1705C113.468 74.0332 120.578 61.8144 120.578 53.1193Z" fill="#EABE8D"/>
<path d="M120.575 38.8413H88.0099C84.9827 38.8413 82.5059 36.3701 82.5059 33.3497V27.9496C82.5059 24.9292 84.9827 22.458 88.0099 22.458H120.575C123.603 22.458 126.079 24.9292 126.079 27.9496V33.3497C126.079 36.3701 123.603 38.8413 120.575 38.8413Z" fill="#EE9D29"/>
<path d="M25.814 70.8301C25.814 70.8301 28.8871 68.2673 30.9053 67.3063C32.8775 66.3453 34.2994 69.3656 35.3543 70.8301C36.4093 72.2945 39.3906 76.5962 36.6386 78.4725C33.8866 80.3488 29.4375 81.9963 27.1442 80.12C24.8508 78.2437 22.5116 75.4064 23.1079 73.942C23.7042 72.4775 25.814 70.8301 25.814 70.8301Z" fill="#F4D0AB"/>
<path d="M9.62373 150.687H145.848C146.857 150.687 147.683 149.863 147.683 148.857V139.155C147.683 138.148 146.857 137.324 145.848 137.324H9.62373C8.61467 137.324 7.78906 138.148 7.78906 139.155V148.857C7.78906 149.863 8.61467 150.687 9.62373 150.687Z" fill="#222222"/>
<path d="M124.841 45.9806H123.511C123.144 45.0653 122.64 44.4246 122.227 44.0128C121.08 42.8687 119.842 42.5941 119.475 42.5026C118.374 42.2738 116.585 42.228 114.797 42.2738H94.7986C92.8722 42.228 90.9458 42.3195 89.7533 42.5026C89.3863 42.5483 88.102 42.8687 87.0012 44.0128C86.5426 44.4704 86.0839 45.1111 85.717 45.9806H84.3868C83.6988 45.9806 83.1484 46.5297 83.1484 47.2162C83.1484 47.9026 83.6988 48.4518 84.3868 48.4518H85.1666C85.1666 48.6349 85.1666 48.7721 85.1666 48.9552C85.1666 54.3553 88.8359 57.2384 92.1842 57.6045C92.5511 57.6502 92.8722 57.6502 93.2391 57.6502C95.5325 57.6502 97.7799 56.8265 99.5229 55.3163C100.899 54.1265 102.458 52.0213 103.1 48.4518H106.082C106.724 52.0213 108.283 54.1265 109.659 55.3163C111.402 56.8265 113.65 57.6502 115.943 57.6502C116.31 57.6502 116.631 57.6502 116.998 57.6045C120.392 57.2384 124.016 54.3553 124.016 48.9552C124.016 48.7721 124.016 48.6349 124.016 48.4518H124.795C125.483 48.4518 126.034 47.9026 126.034 47.2162C126.08 46.5755 125.529 45.9806 124.841 45.9806Z" fill="#222222"/>
</g>
</svg>
