<?xml version="1.0" encoding="utf-8"?>
<svg xmlns="http://www.w3.org/2000/svg" xmlns:xlink="http://www.w3.org/1999/xlink" xml:space="preserve" width="999" height="999" viewBox="0 0 999 999"><g fill="#ffffff">
<g transform="translate(351,54) scale(4.635)"><rect width="6" height="6"/></g>
<g transform="translate(378,54) scale(4.635)"><rect width="6" height="6"/></g>
<g transform="translate(405,54) scale(4.635)"><rect width="6" height="6"/></g>
<g transform="translate(432,54) scale(4.635)"><rect width="6" height="6"/></g>
<g transform="translate(486,54) scale(4.635)"><rect width="6" height="6"/></g>
<g transform="translate(513,54) scale(4.635)"><rect width="6" height="6"/></g>
<g transform="translate(540,54) scale(4.635)"><rect width="6" height="6"/></g>
<g transform="translate(567,54) scale(4.635)"><rect width="6" height="6"/></g>
<g transform="translate(594,54) scale(4.635)"><rect width="6" height="6"/></g>
<g transform="translate(621,54) scale(4.635)"><rect width="6" height="6"/></g>
<g transform="translate(648,54) scale(4.635)"><rect width="6" height="6"/></g>
<g transform="translate(675,54) scale(4.635)"><rect width="6" height="6"/></g>
<g transform="translate(378,81) scale(4.635)"><rect width="6" height="6"/></g>
<g transform="translate(405,81) scale(4.635)"><rect width="6" height="6"/></g>
<g transform="translate(432,81) scale(4.635)"><rect width="6" height="6"/></g>
<g transform="translate(459,81) scale(4.635)"><rect width="6" height="6"/></g>
<g transform="translate(486,81) scale(4.635)"><rect width="6" height="6"/></g>
<g transform="translate(540,81) scale(4.635)"><rect width="6" height="6"/></g>
<g transform="translate(648,81) scale(4.635)"><rect width="6" height="6"/></g>
<g transform="translate(702,81) scale(4.635)"><rect width="6" height="6"/></g>
<g transform="translate(270,108) scale(4.635)"><rect width="6" height="6"/></g>
<g transform="translate(351,108) scale(4.635)"><rect width="6" height="6"/></g>
<g transform="translate(378,108) scale(4.635)"><rect width="6" height="6"/></g>
<g transform="translate(405,108) scale(4.635)"><rect width="6" height="6"/></g>
<g transform="translate(486,108) scale(4.635)"><rect width="6" height="6"/></g>
<g transform="translate(594,108) scale(4.635)"><rect width="6" height="6"/></g>
<g transform="translate(621,108) scale(4.635)"><rect width="6" height="6"/></g>
<g transform="translate(675,108) scale(4.635)"><rect width="6" height="6"/></g>
<g transform="translate(270,135) scale(4.635)"><rect width="6" height="6"/></g>
<g transform="translate(378,135) scale(4.635)"><rect width="6" height="6"/></g>
<g transform="translate(432,135) scale(4.635)"><rect width="6" height="6"/></g>
<g transform="translate(486,135) scale(4.635)"><rect width="6" height="6"/></g>
<g transform="translate(513,135) scale(4.635)"><rect width="6" height="6"/></g>
<g transform="translate(567,135) scale(4.635)"><rect width="6" height="6"/></g>
<g transform="translate(648,135) scale(4.635)"><rect width="6" height="6"/></g>
<g transform="translate(675,135) scale(4.635)"><rect width="6" height="6"/></g>
<g transform="translate(702,135) scale(4.635)"><rect width="6" height="6"/></g>
<g transform="translate(270,162) scale(4.635)"><rect width="6" height="6"/></g>
<g transform="translate(324,162) scale(4.635)"><rect width="6" height="6"/></g>
<g transform="translate(378,162) scale(4.635)"><rect width="6" height="6"/></g>
<g transform="translate(459,162) scale(4.635)"><rect width="6" height="6"/></g>
<g transform="translate(513,162) scale(4.635)"><rect width="6" height="6"/></g>
<g transform="translate(567,162) scale(4.635)"><rect width="6" height="6"/></g>
<g transform="translate(594,162) scale(4.635)"><rect width="6" height="6"/></g>
<g transform="translate(621,162) scale(4.635)"><rect width="6" height="6"/></g>
<g transform="translate(648,162) scale(4.635)"><rect width="6" height="6"/></g>
<g transform="translate(675,162) scale(4.635)"><rect width="6" height="6"/></g>
<g transform="translate(702,162) scale(4.635)"><rect width="6" height="6"/></g>
<g transform="translate(270,189) scale(4.635)"><rect width="6" height="6"/></g>
<g transform="translate(297,189) scale(4.635)"><rect width="6" height="6"/></g>
<g transform="translate(351,189) scale(4.635)"><rect width="6" height="6"/></g>
<g transform="translate(378,189) scale(4.635)"><rect width="6" height="6"/></g>
<g transform="translate(432,189) scale(4.635)"><rect width="6" height="6"/></g>
<g transform="translate(459,189) scale(4.635)"><rect width="6" height="6"/></g>
<g transform="translate(486,189) scale(4.635)"><rect width="6" height="6"/></g>
<g transform="translate(513,189) scale(4.635)"><rect width="6" height="6"/></g>
<g transform="translate(702,189) scale(4.635)"><rect width="6" height="6"/></g>
<g transform="translate(270,216) scale(4.635)"><rect width="6" height="6"/></g>
<g transform="translate(324,216) scale(4.635)"><rect width="6" height="6"/></g>
<g transform="translate(378,216) scale(4.635)"><rect width="6" height="6"/></g>
<g transform="translate(432,216) scale(4.635)"><rect width="6" height="6"/></g>
<g transform="translate(486,216) scale(4.635)"><rect width="6" height="6"/></g>
<g transform="translate(540,216) scale(4.635)"><rect width="6" height="6"/></g>
<g transform="translate(594,216) scale(4.635)"><rect width="6" height="6"/></g>
<g transform="translate(648,216) scale(4.635)"><rect width="6" height="6"/></g>
<g transform="translate(702,216) scale(4.635)"><rect width="6" height="6"/></g>
<g transform="translate(270,243) scale(4.635)"><rect width="6" height="6"/></g>
<g transform="translate(432,243) scale(4.635)"><rect width="6" height="6"/></g>
<g transform="translate(459,243) scale(4.635)"><rect width="6" height="6"/></g>
<g transform="translate(594,243) scale(4.635)"><rect width="6" height="6"/></g>
<g transform="translate(621,243) scale(4.635)"><rect width="6" height="6"/></g>
<g transform="translate(648,243) scale(4.635)"><rect width="6" height="6"/></g>
<g transform="translate(54,270) scale(4.635)"><rect width="6" height="6"/></g>
<g transform="translate(108,270) scale(4.635)"><rect width="6" height="6"/></g>
<g transform="translate(135,270) scale(4.635)"><rect width="6" height="6"/></g>
<g transform="translate(162,270) scale(4.635)"><rect width="6" height="6"/></g>
<g transform="translate(189,270) scale(4.635)"><rect width="6" height="6"/></g>
<g transform="translate(216,270) scale(4.635)"><rect width="6" height="6"/></g>
<g transform="translate(351,270) scale(4.635)"><rect width="6" height="6"/></g>
<g transform="translate(378,270) scale(4.635)"><rect width="6" height="6"/></g>
<g transform="translate(405,270) scale(4.635)"><rect width="6" height="6"/></g>
<g transform="translate(432,270) scale(4.635)"><rect width="6" height="6"/></g>
<g transform="translate(459,270) scale(4.635)"><rect width="6" height="6"/></g>
<g transform="translate(486,270) scale(4.635)"><rect width="6" height="6"/></g>
<g transform="translate(513,270) scale(4.635)"><rect width="6" height="6"/></g>
<g transform="translate(648,270) scale(4.635)"><rect width="6" height="6"/></g>
<g transform="translate(702,270) scale(4.635)"><rect width="6" height="6"/></g>
<g transform="translate(756,270) scale(4.635)"><rect width="6" height="6"/></g>
<g transform="translate(783,270) scale(4.635)"><rect width="6" height="6"/></g>
<g transform="translate(810,270) scale(4.635)"><rect width="6" height="6"/></g>
<g transform="translate(837,270) scale(4.635)"><rect width="6" height="6"/></g>
<g transform="translate(864,270) scale(4.635)"><rect width="6" height="6"/></g>
<g transform="translate(54,297) scale(4.635)"><rect width="6" height="6"/></g>
<g transform="translate(81,297) scale(4.635)"><rect width="6" height="6"/></g>
<g transform="translate(108,297) scale(4.635)"><rect width="6" height="6"/></g>
<g transform="translate(162,297) scale(4.635)"><rect width="6" height="6"/></g>
<g transform="translate(297,297) scale(4.635)"><rect width="6" height="6"/></g>
<g transform="translate(324,297) scale(4.635)"><rect width="6" height="6"/></g>
<g transform="translate(351,297) scale(4.635)"><rect width="6" height="6"/></g>
<g transform="translate(432,297) scale(4.635)"><rect width="6" height="6"/></g>
<g transform="translate(540,297) scale(4.635)"><rect width="6" height="6"/></g>
<g transform="translate(567,297) scale(4.635)"><rect width="6" height="6"/></g>
<g transform="translate(594,297) scale(4.635)"><rect width="6" height="6"/></g>
<g transform="translate(621,297) scale(4.635)"><rect width="6" height="6"/></g>
<g transform="translate(648,297) scale(4.635)"><rect width="6" height="6"/></g>
<g transform="translate(675,297) scale(4.635)"><rect width="6" height="6"/></g>
<g transform="translate(702,297) scale(4.635)"><rect width="6" height="6"/></g>
<g transform="translate(756,297) scale(4.635)"><rect width="6" height="6"/></g>
<g transform="translate(783,297) scale(4.635)"><rect width="6" height="6"/></g>
<g transform="translate(837,297) scale(4.635)"><rect width="6" height="6"/></g>
<g transform="translate(864,297) scale(4.635)"><rect width="6" height="6"/></g>
<g transform="translate(891,297) scale(4.635)"><rect width="6" height="6"/></g>
<g transform="translate(918,297) scale(4.635)"><rect width="6" height="6"/></g>
<g transform="translate(54,324) scale(4.635)"><rect width="6" height="6"/></g>
<g transform="translate(189,324) scale(4.635)"><rect width="6" height="6"/></g>
<g transform="translate(216,324) scale(4.635)"><rect width="6" height="6"/></g>
<g transform="translate(243,324) scale(4.635)"><rect width="6" height="6"/></g>
<g transform="translate(324,324) scale(4.635)"><rect width="6" height="6"/></g>
<g transform="translate(351,324) scale(4.635)"><rect width="6" height="6"/></g>
<g transform="translate(459,324) scale(4.635)"><rect width="6" height="6"/></g>
<g transform="translate(621,324) scale(4.635)"><rect width="6" height="6"/></g>
<g transform="translate(648,324) scale(4.635)"><rect width="6" height="6"/></g>
<g transform="translate(702,324) scale(4.635)"><rect width="6" height="6"/></g>
<g transform="translate(729,324) scale(4.635)"><rect width="6" height="6"/></g>
<g transform="translate(810,324) scale(4.635)"><rect width="6" height="6"/></g>
<g transform="translate(864,324) scale(4.635)"><rect width="6" height="6"/></g>
<g transform="translate(891,324) scale(4.635)"><rect width="6" height="6"/></g>
<g transform="translate(54,351) scale(4.635)"><rect width="6" height="6"/></g>
<g transform="translate(81,351) scale(4.635)"><rect width="6" height="6"/></g>
<g transform="translate(108,351) scale(4.635)"><rect width="6" height="6"/></g>
<g transform="translate(243,351) scale(4.635)"><rect width="6" height="6"/></g>
<g transform="translate(270,351) scale(4.635)"><rect width="6" height="6"/></g>
<g transform="translate(324,351) scale(4.635)"><rect width="6" height="6"/></g>
<g transform="translate(351,351) scale(4.635)"><rect width="6" height="6"/></g>
<g transform="translate(432,351) scale(4.635)"><rect width="6" height="6"/></g>
<g transform="translate(459,351) scale(4.635)"><rect width="6" height="6"/></g>
<g transform="translate(567,351) scale(4.635)"><rect width="6" height="6"/></g>
<g transform="translate(594,351) scale(4.635)"><rect width="6" height="6"/></g>
<g transform="translate(621,351) scale(4.635)"><rect width="6" height="6"/></g>
<g transform="translate(648,351) scale(4.635)"><rect width="6" height="6"/></g>
<g transform="translate(729,351) scale(4.635)"><rect width="6" height="6"/></g>
<g transform="translate(810,351) scale(4.635)"><rect width="6" height="6"/></g>
<g transform="translate(837,351) scale(4.635)"><rect width="6" height="6"/></g>
<g transform="translate(864,351) scale(4.635)"><rect width="6" height="6"/></g>
<g transform="translate(891,351) scale(4.635)"><rect width="6" height="6"/></g>
<g transform="translate(918,351) scale(4.635)"><rect width="6" height="6"/></g>
<g transform="translate(54,378) scale(4.635)"><rect width="6" height="6"/></g>
<g transform="translate(81,378) scale(4.635)"><rect width="6" height="6"/></g>
<g transform="translate(162,378) scale(4.635)"><rect width="6" height="6"/></g>
<g transform="translate(189,378) scale(4.635)"><rect width="6" height="6"/></g>
<g transform="translate(216,378) scale(4.635)"><rect width="6" height="6"/></g>
<g transform="translate(270,378) scale(4.635)"><rect width="6" height="6"/></g>
<g transform="translate(297,378) scale(4.635)"><rect width="6" height="6"/></g>
<g transform="translate(324,378) scale(4.635)"><rect width="6" height="6"/></g>
<g transform="translate(351,378) scale(4.635)"><rect width="6" height="6"/></g>
<g transform="translate(459,378) scale(4.635)"><rect width="6" height="6"/></g>
<g transform="translate(513,378) scale(4.635)"><rect width="6" height="6"/></g>
<g transform="translate(567,378) scale(4.635)"><rect width="6" height="6"/></g>
<g transform="translate(648,378) scale(4.635)"><rect width="6" height="6"/></g>
<g transform="translate(783,378) scale(4.635)"><rect width="6" height="6"/></g>
<g transform="translate(810,378) scale(4.635)"><rect width="6" height="6"/></g>
<g transform="translate(837,378) scale(4.635)"><rect width="6" height="6"/></g>
<g transform="translate(891,378) scale(4.635)"><rect width="6" height="6"/></g>
<g transform="translate(918,378) scale(4.635)"><rect width="6" height="6"/></g>
<g transform="translate(54,405) scale(4.635)"><rect width="6" height="6"/></g>
<g transform="translate(81,405) scale(4.635)"><rect width="6" height="6"/></g>
<g transform="translate(108,405) scale(4.635)"><rect width="6" height="6"/></g>
<g transform="translate(162,405) scale(4.635)"><rect width="6" height="6"/></g>
<g transform="translate(324,405) scale(4.635)"><rect width="6" height="6"/></g>
<g transform="translate(378,405) scale(4.635)"><rect width="6" height="6"/></g>
<g transform="translate(405,405) scale(4.635)"><rect width="6" height="6"/></g>
<g transform="translate(432,405) scale(4.635)"><rect width="6" height="6"/></g>
<g transform="translate(459,405) scale(4.635)"><rect width="6" height="6"/></g>
<g transform="translate(486,405) scale(4.635)"><rect width="6" height="6"/></g>
<g transform="translate(540,405) scale(4.635)"><rect width="6" height="6"/></g>
<g transform="translate(567,405) scale(4.635)"><rect width="6" height="6"/></g>
<g transform="translate(594,405) scale(4.635)"><rect width="6" height="6"/></g>
<g transform="translate(621,405) scale(4.635)"><rect width="6" height="6"/></g>
<g transform="translate(648,405) scale(4.635)"><rect width="6" height="6"/></g>
<g transform="translate(675,405) scale(4.635)"><rect width="6" height="6"/></g>
<g transform="translate(729,405) scale(4.635)"><rect width="6" height="6"/></g>
<g transform="translate(756,405) scale(4.635)"><rect width="6" height="6"/></g>
<g transform="translate(864,405) scale(4.635)"><rect width="6" height="6"/></g>
<g transform="translate(891,405) scale(4.635)"><rect width="6" height="6"/></g>
<g transform="translate(918,405) scale(4.635)"><rect width="6" height="6"/></g>
<g transform="translate(81,432) scale(4.635)"><rect width="6" height="6"/></g>
<g transform="translate(108,432) scale(4.635)"><rect width="6" height="6"/></g>
<g transform="translate(135,432) scale(4.635)"><rect width="6" height="6"/></g>
<g transform="translate(162,432) scale(4.635)"><rect width="6" height="6"/></g>
<g transform="translate(216,432) scale(4.635)"><rect width="6" height="6"/></g>
<g transform="translate(243,432) scale(4.635)"><rect width="6" height="6"/></g>
<g transform="translate(270,432) scale(4.635)"><rect width="6" height="6"/></g>
<g transform="translate(297,432) scale(4.635)"><rect width="6" height="6"/></g>
<g transform="translate(351,432) scale(4.635)"><rect width="6" height="6"/></g>
<g transform="translate(432,432) scale(4.635)"><rect width="6" height="6"/></g>
<g transform="translate(540,432) scale(4.635)"><rect width="6" height="6"/></g>
<g transform="translate(594,432) scale(4.635)"><rect width="6" height="6"/></g>
<g transform="translate(621,432) scale(4.635)"><rect width="6" height="6"/></g>
<g transform="translate(648,432) scale(4.635)"><rect width="6" height="6"/></g>
<g transform="translate(729,432) scale(4.635)"><rect width="6" height="6"/></g>
<g transform="translate(756,432) scale(4.635)"><rect width="6" height="6"/></g>
<g transform="translate(810,432) scale(4.635)"><rect width="6" height="6"/></g>
<g transform="translate(837,432) scale(4.635)"><rect width="6" height="6"/></g>
<g transform="translate(891,432) scale(4.635)"><rect width="6" height="6"/></g>
<g transform="translate(54,459) scale(4.635)"><rect width="6" height="6"/></g>
<g transform="translate(189,459) scale(4.635)"><rect width="6" height="6"/></g>
<g transform="translate(243,459) scale(4.635)"><rect width="6" height="6"/></g>
<g transform="translate(297,459) scale(4.635)"><rect width="6" height="6"/></g>
<g transform="translate(324,459) scale(4.635)"><rect width="6" height="6"/></g>
<g transform="translate(378,459) scale(4.635)"><rect width="6" height="6"/></g>
<g transform="translate(432,459) scale(4.635)"><rect width="6" height="6"/></g>
<g transform="translate(486,459) scale(4.635)"><rect width="6" height="6"/></g>
<g transform="translate(594,459) scale(4.635)"><rect width="6" height="6"/></g>
<g transform="translate(621,459) scale(4.635)"><rect width="6" height="6"/></g>
<g transform="translate(648,459) scale(4.635)"><rect width="6" height="6"/></g>
<g transform="translate(702,459) scale(4.635)"><rect width="6" height="6"/></g>
<g transform="translate(729,459) scale(4.635)"><rect width="6" height="6"/></g>
<g transform="translate(756,459) scale(4.635)"><rect width="6" height="6"/></g>
<g transform="translate(783,459) scale(4.635)"><rect width="6" height="6"/></g>
<g transform="translate(837,459) scale(4.635)"><rect width="6" height="6"/></g>
<g transform="translate(864,459) scale(4.635)"><rect width="6" height="6"/></g>
<g transform="translate(54,486) scale(4.635)"><rect width="6" height="6"/></g>
<g transform="translate(108,486) scale(4.635)"><rect width="6" height="6"/></g>
<g transform="translate(162,486) scale(4.635)"><rect width="6" height="6"/></g>
<g transform="translate(189,486) scale(4.635)"><rect width="6" height="6"/></g>
<g transform="translate(216,486) scale(4.635)"><rect width="6" height="6"/></g>
<g transform="translate(243,486) scale(4.635)"><rect width="6" height="6"/></g>
<g transform="translate(270,486) scale(4.635)"><rect width="6" height="6"/></g>
<g transform="translate(297,486) scale(4.635)"><rect width="6" height="6"/></g>
<g transform="translate(324,486) scale(4.635)"><rect width="6" height="6"/></g>
<g transform="translate(486,486) scale(4.635)"><rect width="6" height="6"/></g>
<g transform="translate(513,486) scale(4.635)"><rect width="6" height="6"/></g>
<g transform="translate(675,486) scale(4.635)"><rect width="6" height="6"/></g>
<g transform="translate(729,486) scale(4.635)"><rect width="6" height="6"/></g>
<g transform="translate(783,486) scale(4.635)"><rect width="6" height="6"/></g>
<g transform="translate(810,486) scale(4.635)"><rect width="6" height="6"/></g>
<g transform="translate(918,486) scale(4.635)"><rect width="6" height="6"/></g>
<g transform="translate(189,513) scale(4.635)"><rect width="6" height="6"/></g>
<g transform="translate(243,513) scale(4.635)"><rect width="6" height="6"/></g>
<g transform="translate(297,513) scale(4.635)"><rect width="6" height="6"/></g>
<g transform="translate(378,513) scale(4.635)"><rect width="6" height="6"/></g>
<g transform="translate(432,513) scale(4.635)"><rect width="6" height="6"/></g>
<g transform="translate(486,513) scale(4.635)"><rect width="6" height="6"/></g>
<g transform="translate(513,513) scale(4.635)"><rect width="6" height="6"/></g>
<g transform="translate(540,513) scale(4.635)"><rect width="6" height="6"/></g>
<g transform="translate(567,513) scale(4.635)"><rect width="6" height="6"/></g>
<g transform="translate(594,513) scale(4.635)"><rect width="6" height="6"/></g>
<g transform="translate(621,513) scale(4.635)"><rect width="6" height="6"/></g>
<g transform="translate(675,513) scale(4.635)"><rect width="6" height="6"/></g>
<g transform="translate(756,513) scale(4.635)"><rect width="6" height="6"/></g>
<g transform="translate(783,513) scale(4.635)"><rect width="6" height="6"/></g>
<g transform="translate(837,513) scale(4.635)"><rect width="6" height="6"/></g>
<g transform="translate(864,513) scale(4.635)"><rect width="6" height="6"/></g>
<g transform="translate(891,513) scale(4.635)"><rect width="6" height="6"/></g>
<g transform="translate(81,540) scale(4.635)"><rect width="6" height="6"/></g>
<g transform="translate(162,540) scale(4.635)"><rect width="6" height="6"/></g>
<g transform="translate(189,540) scale(4.635)"><rect width="6" height="6"/></g>
<g transform="translate(216,540) scale(4.635)"><rect width="6" height="6"/></g>
<g transform="translate(243,540) scale(4.635)"><rect width="6" height="6"/></g>
<g transform="translate(297,540) scale(4.635)"><rect width="6" height="6"/></g>
<g transform="translate(324,540) scale(4.635)"><rect width="6" height="6"/></g>
<g transform="translate(405,540) scale(4.635)"><rect width="6" height="6"/></g>
<g transform="translate(432,540) scale(4.635)"><rect width="6" height="6"/></g>
<g transform="translate(459,540) scale(4.635)"><rect width="6" height="6"/></g>
<g transform="translate(594,540) scale(4.635)"><rect width="6" height="6"/></g>
<g transform="translate(621,540) scale(4.635)"><rect width="6" height="6"/></g>
<g transform="translate(648,540) scale(4.635)"><rect width="6" height="6"/></g>
<g transform="translate(702,540) scale(4.635)"><rect width="6" height="6"/></g>
<g transform="translate(729,540) scale(4.635)"><rect width="6" height="6"/></g>
<g transform="translate(756,540) scale(4.635)"><rect width="6" height="6"/></g>
<g transform="translate(783,540) scale(4.635)"><rect width="6" height="6"/></g>
<g transform="translate(810,540) scale(4.635)"><rect width="6" height="6"/></g>
<g transform="translate(864,540) scale(4.635)"><rect width="6" height="6"/></g>
<g transform="translate(891,540) scale(4.635)"><rect width="6" height="6"/></g>
<g transform="translate(81,567) scale(4.635)"><rect width="6" height="6"/></g>
<g transform="translate(135,567) scale(4.635)"><rect width="6" height="6"/></g>
<g transform="translate(270,567) scale(4.635)"><rect width="6" height="6"/></g>
<g transform="translate(351,567) scale(4.635)"><rect width="6" height="6"/></g>
<g transform="translate(405,567) scale(4.635)"><rect width="6" height="6"/></g>
<g transform="translate(459,567) scale(4.635)"><rect width="6" height="6"/></g>
<g transform="translate(567,567) scale(4.635)"><rect width="6" height="6"/></g>
<g transform="translate(594,567) scale(4.635)"><rect width="6" height="6"/></g>
<g transform="translate(621,567) scale(4.635)"><rect width="6" height="6"/></g>
<g transform="translate(729,567) scale(4.635)"><rect width="6" height="6"/></g>
<g transform="translate(783,567) scale(4.635)"><rect width="6" height="6"/></g>
<g transform="translate(810,567) scale(4.635)"><rect width="6" height="6"/></g>
<g transform="translate(837,567) scale(4.635)"><rect width="6" height="6"/></g>
<g transform="translate(864,567) scale(4.635)"><rect width="6" height="6"/></g>
<g transform="translate(891,567) scale(4.635)"><rect width="6" height="6"/></g>
<g transform="translate(162,594) scale(4.635)"><rect width="6" height="6"/></g>
<g transform="translate(189,594) scale(4.635)"><rect width="6" height="6"/></g>
<g transform="translate(216,594) scale(4.635)"><rect width="6" height="6"/></g>
<g transform="translate(270,594) scale(4.635)"><rect width="6" height="6"/></g>
<g transform="translate(297,594) scale(4.635)"><rect width="6" height="6"/></g>
<g transform="translate(324,594) scale(4.635)"><rect width="6" height="6"/></g>
<g transform="translate(351,594) scale(4.635)"><rect width="6" height="6"/></g>
<g transform="translate(405,594) scale(4.635)"><rect width="6" height="6"/></g>
<g transform="translate(459,594) scale(4.635)"><rect width="6" height="6"/></g>
<g transform="translate(513,594) scale(4.635)"><rect width="6" height="6"/></g>
<g transform="translate(540,594) scale(4.635)"><rect width="6" height="6"/></g>
<g transform="translate(648,594) scale(4.635)"><rect width="6" height="6"/></g>
<g transform="translate(702,594) scale(4.635)"><rect width="6" height="6"/></g>
<g transform="translate(729,594) scale(4.635)"><rect width="6" height="6"/></g>
<g transform="translate(783,594) scale(4.635)"><rect width="6" height="6"/></g>
<g transform="translate(810,594) scale(4.635)"><rect width="6" height="6"/></g>
<g transform="translate(837,594) scale(4.635)"><rect width="6" height="6"/></g>
<g transform="translate(891,594) scale(4.635)"><rect width="6" height="6"/></g>
<g transform="translate(918,594) scale(4.635)"><rect width="6" height="6"/></g>
<g transform="translate(54,621) scale(4.635)"><rect width="6" height="6"/></g>
<g transform="translate(108,621) scale(4.635)"><rect width="6" height="6"/></g>
<g transform="translate(189,621) scale(4.635)"><rect width="6" height="6"/></g>
<g transform="translate(243,621) scale(4.635)"><rect width="6" height="6"/></g>
<g transform="translate(378,621) scale(4.635)"><rect width="6" height="6"/></g>
<g transform="translate(405,621) scale(4.635)"><rect width="6" height="6"/></g>
<g transform="translate(432,621) scale(4.635)"><rect width="6" height="6"/></g>
<g transform="translate(459,621) scale(4.635)"><rect width="6" height="6"/></g>
<g transform="translate(567,621) scale(4.635)"><rect width="6" height="6"/></g>
<g transform="translate(594,621) scale(4.635)"><rect width="6" height="6"/></g>
<g transform="translate(675,621) scale(4.635)"><rect width="6" height="6"/></g>
<g transform="translate(729,621) scale(4.635)"><rect width="6" height="6"/></g>
<g transform="translate(756,621) scale(4.635)"><rect width="6" height="6"/></g>
<g transform="translate(837,621) scale(4.635)"><rect width="6" height="6"/></g>
<g transform="translate(918,621) scale(4.635)"><rect width="6" height="6"/></g>
<g transform="translate(54,648) scale(4.635)"><rect width="6" height="6"/></g>
<g transform="translate(162,648) scale(4.635)"><rect width="6" height="6"/></g>
<g transform="translate(216,648) scale(4.635)"><rect width="6" height="6"/></g>
<g transform="translate(351,648) scale(4.635)"><rect width="6" height="6"/></g>
<g transform="translate(432,648) scale(4.635)"><rect width="6" height="6"/></g>
<g transform="translate(459,648) scale(4.635)"><rect width="6" height="6"/></g>
<g transform="translate(594,648) scale(4.635)"><rect width="6" height="6"/></g>
<g transform="translate(648,648) scale(4.635)"><rect width="6" height="6"/></g>
<g transform="translate(783,648) scale(4.635)"><rect width="6" height="6"/></g>
<g transform="translate(810,648) scale(4.635)"><rect width="6" height="6"/></g>
<g transform="translate(837,648) scale(4.635)"><rect width="6" height="6"/></g>
<g transform="translate(891,648) scale(4.635)"><rect width="6" height="6"/></g>
<g transform="translate(54,675) scale(4.635)"><rect width="6" height="6"/></g>
<g transform="translate(135,675) scale(4.635)"><rect width="6" height="6"/></g>
<g transform="translate(189,675) scale(4.635)"><rect width="6" height="6"/></g>
<g transform="translate(243,675) scale(4.635)"><rect width="6" height="6"/></g>
<g transform="translate(297,675) scale(4.635)"><rect width="6" height="6"/></g>
<g transform="translate(405,675) scale(4.635)"><rect width="6" height="6"/></g>
<g transform="translate(540,675) scale(4.635)"><rect width="6" height="6"/></g>
<g transform="translate(594,675) scale(4.635)"><rect width="6" height="6"/></g>
<g transform="translate(621,675) scale(4.635)"><rect width="6" height="6"/></g>
<g transform="translate(648,675) scale(4.635)"><rect width="6" height="6"/></g>
<g transform="translate(702,675) scale(4.635)"><rect width="6" height="6"/></g>
<g transform="translate(729,675) scale(4.635)"><rect width="6" height="6"/></g>
<g transform="translate(783,675) scale(4.635)"><rect width="6" height="6"/></g>
<g transform="translate(837,675) scale(4.635)"><rect width="6" height="6"/></g>
<g transform="translate(864,675) scale(4.635)"><rect width="6" height="6"/></g>
<g transform="translate(918,675) scale(4.635)"><rect width="6" height="6"/></g>
<g transform="translate(54,702) scale(4.635)"><rect width="6" height="6"/></g>
<g transform="translate(216,702) scale(4.635)"><rect width="6" height="6"/></g>
<g transform="translate(243,702) scale(4.635)"><rect width="6" height="6"/></g>
<g transform="translate(405,702) scale(4.635)"><rect width="6" height="6"/></g>
<g transform="translate(432,702) scale(4.635)"><rect width="6" height="6"/></g>
<g transform="translate(459,702) scale(4.635)"><rect width="6" height="6"/></g>
<g transform="translate(486,702) scale(4.635)"><rect width="6" height="6"/></g>
<g transform="translate(513,702) scale(4.635)"><rect width="6" height="6"/></g>
<g transform="translate(540,702) scale(4.635)"><rect width="6" height="6"/></g>
<g transform="translate(567,702) scale(4.635)"><rect width="6" height="6"/></g>
<g transform="translate(594,702) scale(4.635)"><rect width="6" height="6"/></g>
<g transform="translate(648,702) scale(4.635)"><rect width="6" height="6"/></g>
<g transform="translate(702,702) scale(4.635)"><rect width="6" height="6"/></g>
<g transform="translate(729,702) scale(4.635)"><rect width="6" height="6"/></g>
<g transform="translate(756,702) scale(4.635)"><rect width="6" height="6"/></g>
<g transform="translate(783,702) scale(4.635)"><rect width="6" height="6"/></g>
<g transform="translate(810,702) scale(4.635)"><rect width="6" height="6"/></g>
<g transform="translate(837,702) scale(4.635)"><rect width="6" height="6"/></g>
<g transform="translate(918,702) scale(4.635)"><rect width="6" height="6"/></g>
<g transform="translate(270,729) scale(4.635)"><rect width="6" height="6"/></g>
<g transform="translate(297,729) scale(4.635)"><rect width="6" height="6"/></g>
<g transform="translate(324,729) scale(4.635)"><rect width="6" height="6"/></g>
<g transform="translate(405,729) scale(4.635)"><rect width="6" height="6"/></g>
<g transform="translate(486,729) scale(4.635)"><rect width="6" height="6"/></g>
<g transform="translate(513,729) scale(4.635)"><rect width="6" height="6"/></g>
<g transform="translate(540,729) scale(4.635)"><rect width="6" height="6"/></g>
<g transform="translate(567,729) scale(4.635)"><rect width="6" height="6"/></g>
<g transform="translate(594,729) scale(4.635)"><rect width="6" height="6"/></g>
<g transform="translate(675,729) scale(4.635)"><rect width="6" height="6"/></g>
<g transform="translate(702,729) scale(4.635)"><rect width="6" height="6"/></g>
<g transform="translate(810,729) scale(4.635)"><rect width="6" height="6"/></g>
<g transform="translate(864,729) scale(4.635)"><rect width="6" height="6"/></g>
<g transform="translate(918,729) scale(4.635)"><rect width="6" height="6"/></g>
<g transform="translate(297,756) scale(4.635)"><rect width="6" height="6"/></g>
<g transform="translate(324,756) scale(4.635)"><rect width="6" height="6"/></g>
<g transform="translate(378,756) scale(4.635)"><rect width="6" height="6"/></g>
<g transform="translate(405,756) scale(4.635)"><rect width="6" height="6"/></g>
<g transform="translate(432,756) scale(4.635)"><rect width="6" height="6"/></g>
<g transform="translate(459,756) scale(4.635)"><rect width="6" height="6"/></g>
<g transform="translate(486,756) scale(4.635)"><rect width="6" height="6"/></g>
<g transform="translate(594,756) scale(4.635)"><rect width="6" height="6"/></g>
<g transform="translate(621,756) scale(4.635)"><rect width="6" height="6"/></g>
<g transform="translate(648,756) scale(4.635)"><rect width="6" height="6"/></g>
<g transform="translate(675,756) scale(4.635)"><rect width="6" height="6"/></g>
<g transform="translate(702,756) scale(4.635)"><rect width="6" height="6"/></g>
<g transform="translate(756,756) scale(4.635)"><rect width="6" height="6"/></g>
<g transform="translate(810,756) scale(4.635)"><rect width="6" height="6"/></g>
<g transform="translate(864,756) scale(4.635)"><rect width="6" height="6"/></g>
<g transform="translate(891,756) scale(4.635)"><rect width="6" height="6"/></g>
<g transform="translate(270,783) scale(4.635)"><rect width="6" height="6"/></g>
<g transform="translate(351,783) scale(4.635)"><rect width="6" height="6"/></g>
<g transform="translate(432,783) scale(4.635)"><rect width="6" height="6"/></g>
<g transform="translate(459,783) scale(4.635)"><rect width="6" height="6"/></g>
<g transform="translate(567,783) scale(4.635)"><rect width="6" height="6"/></g>
<g transform="translate(594,783) scale(4.635)"><rect width="6" height="6"/></g>
<g transform="translate(621,783) scale(4.635)"><rect width="6" height="6"/></g>
<g transform="translate(648,783) scale(4.635)"><rect width="6" height="6"/></g>
<g transform="translate(675,783) scale(4.635)"><rect width="6" height="6"/></g>
<g transform="translate(702,783) scale(4.635)"><rect width="6" height="6"/></g>
<g transform="translate(810,783) scale(4.635)"><rect width="6" height="6"/></g>
<g transform="translate(837,783) scale(4.635)"><rect width="6" height="6"/></g>
<g transform="translate(864,783) scale(4.635)"><rect width="6" height="6"/></g>
<g transform="translate(270,810) scale(4.635)"><rect width="6" height="6"/></g>
<g transform="translate(297,810) scale(4.635)"><rect width="6" height="6"/></g>
<g transform="translate(324,810) scale(4.635)"><rect width="6" height="6"/></g>
<g transform="translate(351,810) scale(4.635)"><rect width="6" height="6"/></g>
<g transform="translate(432,810) scale(4.635)"><rect width="6" height="6"/></g>
<g transform="translate(459,810) scale(4.635)"><rect width="6" height="6"/></g>
<g transform="translate(486,810) scale(4.635)"><rect width="6" height="6"/></g>
<g transform="translate(513,810) scale(4.635)"><rect width="6" height="6"/></g>
<g transform="translate(567,810) scale(4.635)"><rect width="6" height="6"/></g>
<g transform="translate(621,810) scale(4.635)"><rect width="6" height="6"/></g>
<g transform="translate(648,810) scale(4.635)"><rect width="6" height="6"/></g>
<g transform="translate(702,810) scale(4.635)"><rect width="6" height="6"/></g>
<g transform="translate(729,810) scale(4.635)"><rect width="6" height="6"/></g>
<g transform="translate(756,810) scale(4.635)"><rect width="6" height="6"/></g>
<g transform="translate(783,810) scale(4.635)"><rect width="6" height="6"/></g>
<g transform="translate(810,810) scale(4.635)"><rect width="6" height="6"/></g>
<g transform="translate(837,810) scale(4.635)"><rect width="6" height="6"/></g>
<g transform="translate(891,810) scale(4.635)"><rect width="6" height="6"/></g>
<g transform="translate(270,837) scale(4.635)"><rect width="6" height="6"/></g>
<g transform="translate(351,837) scale(4.635)"><rect width="6" height="6"/></g>
<g transform="translate(405,837) scale(4.635)"><rect width="6" height="6"/></g>
<g transform="translate(486,837) scale(4.635)"><rect width="6" height="6"/></g>
<g transform="translate(513,837) scale(4.635)"><rect width="6" height="6"/></g>
<g transform="translate(567,837) scale(4.635)"><rect width="6" height="6"/></g>
<g transform="translate(594,837) scale(4.635)"><rect width="6" height="6"/></g>
<g transform="translate(621,837) scale(4.635)"><rect width="6" height="6"/></g>
<g transform="translate(648,837) scale(4.635)"><rect width="6" height="6"/></g>
<g transform="translate(675,837) scale(4.635)"><rect width="6" height="6"/></g>
<g transform="translate(729,837) scale(4.635)"><rect width="6" height="6"/></g>
<g transform="translate(810,837) scale(4.635)"><rect width="6" height="6"/></g>
<g transform="translate(837,837) scale(4.635)"><rect width="6" height="6"/></g>
<g transform="translate(864,837) scale(4.635)"><rect width="6" height="6"/></g>
<g transform="translate(891,837) scale(4.635)"><rect width="6" height="6"/></g>
<g transform="translate(918,837) scale(4.635)"><rect width="6" height="6"/></g>
<g transform="translate(270,864) scale(4.635)"><rect width="6" height="6"/></g>
<g transform="translate(351,864) scale(4.635)"><rect width="6" height="6"/></g>
<g transform="translate(405,864) scale(4.635)"><rect width="6" height="6"/></g>
<g transform="translate(432,864) scale(4.635)"><rect width="6" height="6"/></g>
<g transform="translate(459,864) scale(4.635)"><rect width="6" height="6"/></g>
<g transform="translate(486,864) scale(4.635)"><rect width="6" height="6"/></g>
<g transform="translate(594,864) scale(4.635)"><rect width="6" height="6"/></g>
<g transform="translate(621,864) scale(4.635)"><rect width="6" height="6"/></g>
<g transform="translate(648,864) scale(4.635)"><rect width="6" height="6"/></g>
<g transform="translate(702,864) scale(4.635)"><rect width="6" height="6"/></g>
<g transform="translate(729,864) scale(4.635)"><rect width="6" height="6"/></g>
<g transform="translate(756,864) scale(4.635)"><rect width="6" height="6"/></g>
<g transform="translate(783,864) scale(4.635)"><rect width="6" height="6"/></g>
<g transform="translate(837,864) scale(4.635)"><rect width="6" height="6"/></g>
<g transform="translate(864,864) scale(4.635)"><rect width="6" height="6"/></g>
<g transform="translate(297,891) scale(4.635)"><rect width="6" height="6"/></g>
<g transform="translate(351,891) scale(4.635)"><rect width="6" height="6"/></g>
<g transform="translate(378,891) scale(4.635)"><rect width="6" height="6"/></g>
<g transform="translate(405,891) scale(4.635)"><rect width="6" height="6"/></g>
<g transform="translate(459,891) scale(4.635)"><rect width="6" height="6"/></g>
<g transform="translate(567,891) scale(4.635)"><rect width="6" height="6"/></g>
<g transform="translate(594,891) scale(4.635)"><rect width="6" height="6"/></g>
<g transform="translate(621,891) scale(4.635)"><rect width="6" height="6"/></g>
<g transform="translate(810,891) scale(4.635)"><rect width="6" height="6"/></g>
<g transform="translate(837,891) scale(4.635)"><rect width="6" height="6"/></g>
<g transform="translate(864,891) scale(4.635)"><rect width="6" height="6"/></g>
<g transform="translate(270,918) scale(4.635)"><rect width="6" height="6"/></g>
<g transform="translate(297,918) scale(4.635)"><rect width="6" height="6"/></g>
<g transform="translate(324,918) scale(4.635)"><rect width="6" height="6"/></g>
<g transform="translate(351,918) scale(4.635)"><rect width="6" height="6"/></g>
<g transform="translate(459,918) scale(4.635)"><rect width="6" height="6"/></g>
<g transform="translate(513,918) scale(4.635)"><rect width="6" height="6"/></g>
<g transform="translate(567,918) scale(4.635)"><rect width="6" height="6"/></g>
<g transform="translate(648,918) scale(4.635)"><rect width="6" height="6"/></g>
<g transform="translate(675,918) scale(4.635)"><rect width="6" height="6"/></g>
<g transform="translate(702,918) scale(4.635)"><rect width="6" height="6"/></g>
<g transform="translate(729,918) scale(4.635)"><rect width="6" height="6"/></g>
<g transform="translate(756,918) scale(4.635)"><rect width="6" height="6"/></g>
<g transform="translate(783,918) scale(4.635)"><rect width="6" height="6"/></g>
<g transform="translate(837,918) scale(4.635)"><rect width="6" height="6"/></g>
<g transform="translate(891,918) scale(4.635)"><rect width="6" height="6"/></g>
<g transform="translate(54,54)"><g transform="scale(13.5)"><path d="M14,14V4.4C14,2,12,0,9.6,0H4.4C2,0,0,2,0,4.4v5.1C0,12,2,14,4.4,14H14z M4.8,2h4.4C10.7,2,12,3.3,12,4.8V12H4.8 C3.3,12,2,10.7,2,9.2V4.8C2,3.3,3.3,2,4.8,2z"/></g></g>
<g transform="translate(756,54)"><g transform="scale(13.5) rotate(90 7 7)"><path d="M14,14V4.4C14,2,12,0,9.6,0H4.4C2,0,0,2,0,4.4v5.1C0,12,2,14,4.4,14H14z M4.8,2h4.4C10.7,2,12,3.3,12,4.8V12H4.8 C3.3,12,2,10.7,2,9.2V4.8C2,3.3,3.3,2,4.8,2z"/></g></g>
<g transform="translate(54,756)"><g transform="scale(13.5) rotate(-90 7 7)"><path d="M14,14V4.4C14,2,12,0,9.6,0H4.4C2,0,0,2,0,4.4v5.1C0,12,2,14,4.4,14H14z M4.8,2h4.4C10.7,2,12,3.3,12,4.8V12H4.8 C3.3,12,2,10.7,2,9.2V4.8C2,3.3,3.3,2,4.8,2z"/></g></g>
<g transform="translate(108,108)"><g transform="scale(13.5)"><path d="M6,1.7v2.7C6,5.2,5.2,6,4.3,6H1.7C0.7,6,0,5.3,0,4.3V1.7C0,0.8,0.8,0,1.7,0h2.7C5.3,0,6,0.7,6,1.7z"/></g></g>
<g transform="translate(810,108)"><g transform="scale(13.5)"><path d="M6,1.7v2.7C6,5.2,5.2,6,4.3,6H1.7C0.7,6,0,5.3,0,4.3V1.7C0,0.8,0.8,0,1.7,0h2.7C5.3,0,6,0.7,6,1.7z"/></g></g>
<g transform="translate(108,810)"><g transform="scale(13.5)"><path d="M6,1.7v2.7C6,5.2,5.2,6,4.3,6H1.7C0.7,6,0,5.3,0,4.3V1.7C0,0.8,0.8,0,1.7,0h2.7C5.3,0,6,0.7,6,1.7z"/></g></g>
</g></svg>
