<svg width="184" height="180" viewBox="0 0 184 180" fill="none" xmlns="http://www.w3.org/2000/svg">
<circle cx="93.5" cy="90" r="90" fill="#F3F5F9"/>
<mask id="mask0_1324_19332" style="mask-type:alpha" maskUnits="userSpaceOnUse" x="3" y="0" width="181" height="180">
<circle cx="93.5" cy="90" r="90" fill="#F3F5F9"/>
</mask>
<g mask="url(#mask0_1324_19332)">
<path d="M139.622 126.526L141.323 124.533C141.323 124.533 137.285 119.327 134.112 114.7C130.939 110.073 130.074 108.337 130.074 108.337C130.074 108.337 121.487 102.091 115.652 99.9505C103.826 95.6124 92.5767 96.48 92.5767 96.48C92.5767 96.48 81.3275 95.6124 69.5014 99.9505C63.6691 102.091 55.0793 108.337 55.0793 108.337C55.0793 108.337 54.214 110.073 51.0411 114.7C47.8683 119.327 43.8301 124.533 43.8301 124.533L45.5607 126.557V126.575C47.7558 127.908 55.0072 132.278 57.0811 133.134C58.5585 133.729 60.0744 134.224 61.6183 134.615C64.3614 132.266 67.6323 129.305 67.6323 129.305C67.6323 129.305 69.3629 133.932 69.9398 137.113C70.5167 140.295 74.8433 163.431 74.8433 163.431H110.322C110.322 163.431 114.648 140.295 115.225 137.113C115.802 133.932 117.533 129.305 117.533 129.305C117.533 129.305 120.795 132.255 123.535 134.603C125.067 134.214 126.57 133.721 128.035 133.128C130.135 132.26 137.545 127.795 139.622 126.526Z" fill="#FFAF2D"/>
<path d="M54.8019 140.728C56.1195 139.25 57.5676 137.895 59.1285 136.679C59.7948 136.161 60.6774 135.424 61.6235 134.614C60.0795 134.222 58.5636 133.725 57.0863 133.128C55.0124 132.26 47.761 127.902 45.566 126.568L43.5469 131.178L54.8019 140.728Z" fill="#F4D0AB"/>
<path d="M14.8529 138.334L11.5532 131.471C11.0138 130.349 10.5205 129.872 9.39851 130.412L8.77836 130.702C8.23883 130.964 7.82484 131.43 7.627 131.997C7.42915 132.565 7.46355 133.188 7.72267 133.73L10.1513 140.584C10.4129 141.125 10.8773 141.54 11.4431 141.739C12.0089 141.938 12.6302 141.904 13.1713 141.645L13.7915 141.356C14.3305 141.095 14.7447 140.631 14.9436 140.064C15.1424 139.498 15.1099 138.876 14.8529 138.334Z" fill="#F4D0AB"/>
<path d="M160.372 168.492C160.372 168.492 158.065 166.468 156.622 164.443C155.619 163.032 154.603 161.262 154.603 161.262L153.161 160.683C153.161 160.683 151.43 150.272 150.565 144.777C149.7 139.282 148.834 136.101 148.834 136.101C148.834 136.101 145.662 134.077 144.508 133.498C143.354 132.92 141.623 131.184 141.623 131.184L139.604 126.557L139.633 126.525C137.545 127.795 130.135 132.26 128.035 133.128C126.572 133.719 125.07 134.209 123.541 134.597C124.493 135.41 125.381 136.153 126.048 136.674C127.608 137.89 129.057 139.245 130.374 140.722C130.374 140.722 130.663 146.217 131.24 147.085C131.816 147.953 140.758 157.786 142.2 160.388C143.103 162.101 143.689 163.962 143.931 165.883C143.931 165.883 140.623 169.302 141.912 172.535C142.489 173.981 143.201 175.852 144.219 176.873C144.796 177.452 146.544 179.618 147.104 179.476C147.933 179.224 148.713 178.832 149.411 178.319C149.411 178.319 150.807 180.41 152.007 181.211C152.873 181.79 154.003 182.568 154.892 182.368C157.488 181.79 160.372 180.344 160.372 180.344C160.372 180.344 160.084 173.981 160.372 171.667C160.661 169.354 160.372 168.492 160.372 168.492Z" fill="#F4D0AB"/>
<path d="M92.5882 106.891C92.5882 106.891 87.9731 106.891 84.5118 104.867C78.9132 101.593 78.619 97.4806 78.619 97.4806C78.619 97.4806 79.3199 97.3475 81.0505 97.0583C83.1331 96.7113 84.3878 96.5117 84.3878 96.5117L83.3581 81.152L76.7239 75.6571L74.1279 58.0156L74.9933 45.2906L92.5882 44.1338L110.183 45.2906L111.048 58.0156L108.452 75.6571L101.818 81.152L100.791 96.5117C100.791 96.5117 102.046 96.7113 104.126 97.0583L105.857 97.3475C105.857 97.3475 106.266 101.593 100.665 104.867C97.2033 106.891 92.5882 106.891 92.5882 106.891Z" fill="#F4D0AB"/>
<path d="M92.5877 71.0303L85.9535 70.1627L81.3384 74.2116L77.5887 71.8979L74.1274 58.0161L74.9927 45.2911L77.3003 41.2422L75.2812 41.8206L72.1083 44.7126L72.3968 54.8348L70.3777 58.8837C70.3777 58.8837 70.3777 61.4865 70.6661 66.1138C70.9545 70.7411 69.8008 82.0201 69.8008 82.0201C69.8008 82.0201 76.1465 85.7798 79.3194 87.2258C82.4922 88.6718 87.3957 91.8531 87.3957 91.8531L92.5877 91.5639L97.7796 91.8531C97.7796 91.8531 102.683 88.6718 105.856 87.2258C109.029 85.7798 115.375 82.0201 115.375 82.0201C115.375 82.0201 114.221 70.7411 114.509 66.1138C114.798 61.4865 114.798 58.8837 114.798 58.8837L112.779 54.8348L113.067 44.7126L109.894 41.8206L107.875 41.2422L110.183 45.2911L111.048 58.0161L107.587 71.8979L103.837 74.2116L99.2218 70.1627L92.5877 71.0303Z" fill="#222222"/>
<path d="M74.5635 41.8694V34.6943C74.5764 30.4374 76.2687 26.3587 79.2708 23.3487C82.2729 20.3386 86.3408 18.6419 90.5864 18.6289H94.5929C98.8384 18.6419 102.906 20.3386 105.908 23.3487C108.911 26.3587 110.603 30.4374 110.616 34.6943V41.8694H74.5635Z" fill="#FFAF2D"/>
<path d="M110.616 45.209C110.616 46.8603 103.405 48.2109 94.5929 48.2109H90.5864C81.7745 48.2109 74.5635 46.8603 74.5635 45.209H110.616Z" fill="#EE9D29"/>
<path d="M96.594 41.8694V19.5717C96.5917 18.6256 96.2161 17.7189 95.5491 17.0497C94.8822 16.3804 93.9782 16.0031 93.0346 16H92.1434C91.1998 16.0031 90.2958 16.3804 89.6288 17.0497C88.9619 17.7189 88.5863 18.6256 88.584 19.5717V41.8694H96.594Z" fill="#FFBA55"/>
<path d="M110.829 41.8691H74.347C73.4294 41.8691 72.6855 42.615 72.6855 43.535C72.6855 44.455 73.4294 45.2008 74.347 45.2008H110.829C111.747 45.2008 112.49 44.455 112.49 43.535C112.49 42.615 111.747 41.8691 110.829 41.8691Z" fill="#FFBA55"/>
<path d="M109.66 149.404C109.083 148.826 106.92 137.691 106.487 133.064C106.055 128.437 104.901 125.4 104.901 125.4C104.901 125.4 101.872 124.243 99.8533 124.243C98.4111 124.243 94.6469 124.391 92.5875 124.475C90.5309 124.391 86.761 124.243 85.3245 124.243C83.3054 124.243 80.2768 125.4 80.2768 125.4C80.2768 125.4 79.123 128.437 78.6904 133.064C78.2577 137.691 76.0944 148.826 75.5175 149.404C74.9406 149.982 70.0371 155.622 70.0371 155.622C70.0371 155.622 70.3256 167.046 71.912 180.349C73.4984 193.652 76.6713 217.512 76.6713 217.512L85.0361 219.102L90.6607 180.638L92.5875 180.47L94.5171 180.638L101.007 221.995L108.507 218.379C108.507 218.379 111.679 193.652 113.266 180.349C114.852 167.046 115.141 155.622 115.141 155.622C115.141 155.622 110.237 149.982 109.66 149.404Z" fill="#1C7F98"/>
<path d="M111.115 98.0522L108.602 97.4022C108.293 97.3225 107.978 97.5086 107.899 97.8179L101.05 124.447C100.97 124.757 101.156 125.072 101.465 125.152L103.978 125.802C104.287 125.881 104.601 125.695 104.681 125.386L111.53 98.7567C111.609 98.4474 111.424 98.132 111.115 98.0522Z" fill="#1C7F98"/>
<path d="M81.2021 125.801L83.7158 125.151C84.0243 125.072 84.2099 124.756 84.1304 124.447L77.2815 97.8174C77.2019 97.5081 76.8874 97.322 76.5788 97.4017L74.0651 98.0517C73.7566 98.1314 73.571 98.4469 73.6505 98.7562L80.4994 125.386C80.579 125.695 80.8936 125.881 81.2021 125.801Z" fill="#1C7F98"/>
<path d="M106.474 61.289L97.4688 60.7106C96.5698 60.6893 95.7157 60.3126 95.0927 59.6624C94.4697 59.0123 94.1283 58.1416 94.143 57.2401V53.6482C94.1283 52.7467 94.4697 51.876 95.0927 51.2259C95.7157 50.5758 96.5698 50.199 97.4688 50.1777H106.474C107.373 50.1982 108.228 50.5747 108.852 51.2249C109.475 51.8751 109.817 52.7462 109.803 53.6482V57.8185C109.817 58.7205 109.475 59.5916 108.852 60.2419C108.228 60.8921 107.373 61.2685 106.474 61.289Z" fill="#222222"/>
<path d="M87.5752 60.7106L78.8383 61.289C77.9203 61.289 77.0399 60.9234 76.3908 60.2725C75.7416 59.6217 75.377 58.739 75.377 57.8185V53.6482C75.377 52.7278 75.7416 51.845 76.3908 51.1942C77.0399 50.5434 77.9203 50.1777 78.8383 50.1777H87.5752C88.4931 50.1777 89.3735 50.5434 90.0227 51.1942C90.6718 51.845 91.0365 52.7278 91.0365 53.6482V57.2401C91.0365 58.1605 90.6718 59.0433 90.0227 59.6941C89.3735 60.3449 88.4931 60.7106 87.5752 60.7106Z" fill="#222222"/>
<path d="M88.4434 58.7357V57.3562C88.4434 56.4358 88.808 55.5531 89.4571 54.9022C90.1063 54.2514 90.9867 53.8857 91.9047 53.8857H93.2748C94.1927 53.8857 95.0731 54.2514 95.7222 54.9022C96.3714 55.5531 96.736 56.4358 96.736 57.3562V58.7299" stroke="#222222" stroke-width="6" stroke-miterlimit="10"/>
<path d="M86.2828 58.9438L79.8447 59.3169C78.4429 59.3169 77.2949 58.3105 77.2949 57.0784V54.3888C77.2949 53.1597 78.4487 52.1504 79.8447 52.1504H86.2828C87.6846 52.1504 88.8326 53.1597 88.8326 54.3888V56.7025C88.8326 57.9345 87.6846 58.9438 86.2828 58.9438Z" fill="#3A3A3A"/>
<path d="M98.8965 58.9438L105.335 59.3169C106.736 59.3169 107.884 58.3105 107.884 57.0784V54.3888C107.884 53.1597 106.731 52.1504 105.335 52.1504H98.8965C97.4947 52.1504 96.3467 53.1597 96.3467 54.3888V56.7025C96.3553 57.9345 97.5091 58.9438 98.8965 58.9438Z" fill="#3A3A3A"/>
<path d="M114.702 166.864H70.4267L69.8008 160.732H115.375L114.702 166.864Z" fill="#262626"/>
<path d="M93.6345 160.013H91.5433C89.6317 160.013 88.082 161.566 88.082 163.483V164.114C88.082 166.03 89.6317 167.584 91.5433 167.584H93.6345C95.5462 167.584 97.0958 166.03 97.0958 164.114V163.483C97.0958 161.566 95.5462 160.013 93.6345 160.013Z" stroke="#A0A0A0" stroke-width="6" stroke-miterlimit="10"/>
<path d="M81.5282 128.023L84.0411 127.469C84.6635 127.332 85.057 126.715 84.9202 126.091L84.5374 124.345C84.4006 123.721 83.7852 123.327 83.1628 123.464L80.65 124.018C80.0276 124.155 79.634 124.772 79.7709 125.396L80.1536 127.142C80.2905 127.766 80.9059 128.16 81.5282 128.023Z" stroke="#262626" stroke-width="6" stroke-miterlimit="10"/>
<path d="M105.373 123.888L102.851 123.346C102.227 123.212 101.612 123.611 101.478 124.237L101.104 125.989C100.97 126.615 101.368 127.231 101.992 127.365L104.514 127.907C105.138 128.041 105.753 127.642 105.887 127.016L106.261 125.265C106.395 124.639 105.997 124.022 105.373 123.888Z" stroke="#262626" stroke-width="6.01348" stroke-miterlimit="10"/>
<path d="M100.131 139.477H85.0508V153.341H100.131V139.477Z" fill="#1A7489"/>
<path opacity="0.15" d="M160.372 168.492C160.372 168.492 158.064 166.468 156.622 164.443C155.618 163.032 154.603 161.262 154.603 161.262L153.161 160.684C153.161 160.684 151.43 150.272 150.565 144.777C149.699 139.282 148.834 136.101 148.834 136.101C148.834 136.101 145.661 134.077 144.507 133.498C143.354 132.92 141.623 131.185 141.623 131.185L139.604 126.557L139.633 126.526L141.335 124.533C141.335 124.533 137.296 119.327 134.123 114.7C130.951 110.073 130.085 108.337 130.085 108.337C130.085 108.337 121.498 102.091 115.663 99.9505C112.478 98.7918 109.196 97.9208 105.856 97.3476L104.126 97.0584C102.046 96.7114 100.791 96.5118 100.791 96.5118L101.247 89.7155C102.744 88.8276 104.466 87.8588 105.862 87.2254C109.035 85.7794 115.381 82.0198 115.381 82.0198C115.381 82.0198 114.227 70.7408 114.515 66.1135C114.804 61.4862 114.804 58.8833 114.804 58.8833L112.785 54.8345L113.073 44.7123L112.398 44.0963C112.463 43.9164 112.496 43.7265 112.496 43.5352C112.495 43.0937 112.32 42.6704 112.009 42.3582C111.697 42.0459 111.275 41.8702 110.835 41.8694H110.621V34.6942C110.609 30.7671 109.167 26.9797 106.566 24.0433C103.965 21.107 100.384 19.2238 96.4963 18.7474C96.3096 17.967 95.8669 17.272 95.2393 16.7738C94.6117 16.2756 93.8354 16.0031 93.035 16H92.5879V180.471L94.5176 180.639L100.716 220.144C99.8289 221.317 99.3487 222.749 99.349 224.222V230.154H98.4058V233.997H117.731V230.154H116.817V225.385C116.817 221.654 113.211 217.446 109.491 217.446H108.625C109.219 212.819 111.862 192.12 113.266 180.355C113.843 175.439 114.258 170.788 114.541 166.87H114.703L115.375 160.739H114.925C115.092 157.557 115.141 155.628 115.141 155.628L112.378 152.464C113.584 146.012 114.928 138.797 115.231 137.119C115.807 133.938 117.538 129.311 117.538 129.311C117.538 129.311 120.8 132.26 123.541 134.609C124.492 135.421 125.381 136.165 126.047 136.685C127.608 137.902 129.056 139.257 130.374 140.734C130.374 140.734 130.662 146.229 131.239 147.097C131.816 147.964 140.758 157.797 142.2 160.4C143.102 162.112 143.689 163.974 143.93 165.895C143.93 165.895 140.622 169.313 141.911 172.547C142.488 173.993 143.201 175.864 144.219 176.885C144.796 177.463 146.544 179.629 147.103 179.488C147.932 179.235 148.712 178.844 149.411 178.331C149.411 178.331 150.807 180.422 152.007 181.223C152.872 181.801 154.003 182.579 154.891 182.38C157.487 181.801 160.372 180.355 160.372 180.355C160.372 180.355 160.083 173.993 160.372 171.679C160.66 169.365 160.372 168.492 160.372 168.492ZM110.134 45.2097H108.963H108.804H110.134Z" fill="#222222"/>
</g>
<path d="M7.65669 137.162L10.306 146.169C10.6209 147.251 9.16383 150.418 8.08352 150.732L6.73239 151.129C6.20857 151.279 5.64656 151.216 5.16936 150.953C4.69217 150.69 4.33864 150.249 4.18616 149.727L0.580213 137.456C0.430301 136.935 0.492118 136.376 0.752245 135.901C1.01237 135.425 1.44981 135.071 1.9696 134.916L2.99399 134.622C4.0743 134.298 7.33878 136.083 7.65669 137.162Z" fill="#F4D0AB"/>
<path d="M6.36199 152.782C8.61976 153.517 9.54111 153.396 9.54111 153.396C9.54111 153.396 12.0108 151.476 14.3127 150.424C15.92 149.688 17.8834 149.015 17.8834 149.015L18.7488 147.683C18.7488 147.683 29.4901 147.959 35.1477 148.154C40.8054 148.348 44.1552 148.095 44.1552 148.095C44.1552 148.095 46.8045 145.31 47.5934 144.272C48.3823 143.234 50.4634 141.832 50.4634 141.832L55.4676 140.708C54.561 138.253 51.0521 134.345 50.5871 132.107C50.1808 130.093 48.0349 130.884 47.9878 130.049C46.9958 130.837 47.3991 127.473 46.7603 128.038C44.2347 130.246 44.061 130.326 44.061 130.326C44.061 130.326 37.5644 127.973 36.5842 128.37C35.604 128.767 24.0473 135.827 21.1537 136.768C19.2676 137.343 17.2929 137.571 15.3253 137.441C14.7017 137.221 14.1276 136.88 13.6357 136.439L4.80481 139.503C4.80481 139.503 -0.0580578 141.117 0.627807 144.157" fill="#F4D0AB"/>
<path d="M48.2202 115.226L55.4203 155.919C55.5393 156.588 55.5253 157.273 55.379 157.935C55.2326 158.598 54.9569 159.225 54.5675 159.781C54.1782 160.337 53.6829 160.811 53.1099 161.176C52.537 161.541 51.8977 161.789 51.2286 161.906L17.1679 167.919C14.3508 168.416 11.5603 166.564 11.0628 163.75L3.86268 123.057C3.3652 120.243 5.34921 117.549 8.1692 117.052L42.2299 111.039C42.8986 110.92 43.5843 110.934 44.2476 111.08C44.911 111.226 45.5389 111.501 46.0955 111.89C46.652 112.279 47.1262 112.774 47.4908 113.347C47.8554 113.919 48.1033 114.558 48.2202 115.226Z" fill="#3D3C3F"/>
<path d="M48.2205 115.226L55.4207 155.919C55.5397 156.587 55.5256 157.272 55.3793 157.935C55.233 158.597 54.9572 159.225 54.5679 159.781C54.1785 160.337 53.6832 160.811 53.1103 161.175C52.5373 161.54 51.898 161.788 51.2289 161.906L34.1559 164.923L25.1572 114.053L42.245 111.039C42.9126 110.922 43.5968 110.937 44.2584 111.084C44.9201 111.231 45.5462 111.507 46.1012 111.896C46.6561 112.285 47.1289 112.779 47.4925 113.35C47.8562 113.922 48.1036 114.559 48.2205 115.226Z" fill="#1E150F"/>
<path d="M44.8259 115.827L52.026 156.52C52.0678 156.742 52.0647 156.971 52.0167 157.193C51.9687 157.415 51.8769 157.625 51.7467 157.81C51.6164 157.996 51.4504 158.154 51.2582 158.274C51.0661 158.395 50.8517 158.476 50.6278 158.513L16.567 164.526C16.1051 164.617 15.6262 164.524 15.232 164.267C14.8379 164.01 14.5596 163.609 14.4565 163.15L7.26813 122.457C7.20719 121.991 7.33097 121.52 7.61307 121.143C7.89517 120.767 8.31327 120.516 8.77821 120.443L42.8301 114.442C43.0523 114.4 43.2807 114.402 43.5019 114.45C43.7231 114.497 43.9327 114.587 44.1185 114.716C44.3042 114.845 44.4624 115.01 44.5839 115.2C44.7053 115.391 44.7876 115.604 44.8259 115.827Z" fill="white"/>
<path d="M44.8257 115.827L52.0258 156.52C52.0677 156.742 52.0645 156.971 52.0165 157.193C51.9686 157.415 51.8768 157.625 51.7465 157.81C51.6163 157.996 51.4502 158.154 51.2581 158.274C51.0659 158.395 50.8516 158.476 50.6276 158.513L33.5399 161.53L25.7422 117.447L42.8299 114.442C43.0522 114.4 43.2806 114.402 43.5018 114.45C43.723 114.497 43.9326 114.587 44.1183 114.716C44.3041 114.845 44.4623 115.01 44.5837 115.2C44.7052 115.391 44.7875 115.604 44.8257 115.827Z" fill="white"/>
<path d="M18.5572 136.2C18.1083 136.274 17.6483 136.168 17.2767 135.906L13.2822 133.113C13.0865 132.987 12.9182 132.824 12.7873 132.632C12.6565 132.44 12.5659 132.223 12.5209 131.995C12.4759 131.768 12.4775 131.533 12.5255 131.306C12.5736 131.078 12.6672 130.863 12.8006 130.673C12.934 130.483 13.1045 130.322 13.3019 130.199C13.4993 130.076 13.7195 129.995 13.9493 129.959C14.179 129.924 14.4136 129.935 14.6389 129.992C14.8642 130.049 15.0756 130.152 15.2604 130.293L17.8419 132.098L22.4428 125.526C22.7117 125.17 23.1086 124.931 23.5499 124.861C23.9912 124.791 24.4425 124.895 24.8088 125.151C25.175 125.406 25.4276 125.794 25.5134 126.232C25.5992 126.67 25.5115 127.124 25.2687 127.499L19.6758 135.483C19.5458 135.67 19.38 135.829 19.1881 135.953C18.9961 136.076 18.7817 136.16 18.5572 136.2Z" fill="#FAB80F"/>
<path d="M20.6564 148.068C20.4331 148.107 20.2045 148.1 19.9837 148.05C19.7629 147.999 19.5543 147.906 19.37 147.774L15.3755 144.993C15.0186 144.724 14.78 144.327 14.7098 143.887C14.6397 143.446 14.7436 142.995 14.9996 142.629C15.2556 142.263 15.6437 142.011 16.0823 141.925C16.5208 141.84 16.9755 141.927 17.3507 142.17L19.9263 143.975L24.5361 137.406C24.6658 137.221 24.8307 137.063 25.0214 136.942C25.2122 136.82 25.425 136.737 25.6478 136.698C25.8706 136.659 26.0989 136.664 26.3198 136.713C26.5407 136.761 26.7498 136.853 26.9351 136.983C27.1205 137.112 27.2785 137.277 27.4001 137.468C27.5217 137.658 27.6046 137.871 27.6439 138.093C27.6833 138.316 27.6784 138.544 27.6295 138.765C27.5806 138.985 27.4887 139.194 27.359 139.379L21.7691 147.374C21.6387 147.558 21.4732 147.713 21.2822 147.833C21.0912 147.952 20.8785 148.032 20.6564 148.068Z" fill="#FAB80F"/>
<path d="M22.7582 159.936C22.5345 159.975 22.3053 159.969 22.084 159.918C21.8627 159.868 21.6536 159.774 21.4688 159.642L17.4743 156.849C17.1 156.587 16.845 156.188 16.7655 155.738C16.686 155.289 16.7885 154.826 17.0505 154.452C17.3124 154.078 17.7123 153.824 18.1622 153.744C18.6121 153.665 19.0752 153.767 19.4495 154.029L22.034 155.831L26.6349 149.262C26.9038 148.906 27.3007 148.668 27.742 148.598C28.1833 148.527 28.6346 148.631 29.0009 148.887C29.3671 149.143 29.6197 149.53 29.7055 149.968C29.7913 150.407 29.7036 150.861 29.4608 151.236L23.8679 159.216C23.7397 159.403 23.5757 159.563 23.3852 159.687C23.1947 159.811 22.9816 159.895 22.7582 159.936Z" fill="#FAB80F"/>
<path d="M41.835 128.593L31.5323 130.411C31.0823 130.489 30.6196 130.385 30.2462 130.122C29.8727 129.859 29.619 129.459 29.541 129.01C29.4629 128.56 29.5668 128.098 29.8299 127.725C30.0929 127.352 30.4935 127.098 30.9436 127.02L41.2463 125.2C41.6887 125.14 42.1372 125.254 42.4974 125.518C42.8575 125.781 43.1014 126.174 43.1776 126.613C43.2539 127.053 43.1566 127.505 42.9062 127.874C42.6558 128.243 42.2718 128.501 41.835 128.593Z" fill="#8D8A94"/>
<path d="M43.9346 140.462L33.6319 142.279C33.4091 142.317 33.1808 142.312 32.9601 142.262C32.7394 142.213 32.5307 142.12 32.3458 141.99C32.1608 141.86 32.0034 141.695 31.8824 141.504C31.7614 141.313 31.6792 141.1 31.6406 140.878C31.6019 140.655 31.6075 140.427 31.6571 140.207C31.7067 139.986 31.7992 139.778 31.9295 139.593C32.0597 139.408 32.2251 139.251 32.4162 139.13C32.6073 139.009 32.8204 138.927 33.0432 138.888L43.3459 137.071C43.5688 137.033 43.797 137.038 44.0177 137.088C44.2384 137.137 44.4472 137.23 44.6321 137.36C44.817 137.49 44.9744 137.655 45.0954 137.846C45.2164 138.037 45.2986 138.25 45.3373 138.472C45.3759 138.695 45.3703 138.923 45.3207 139.143C45.2712 139.364 45.1786 139.572 45.0484 139.757C44.9181 139.942 44.7527 140.099 44.5616 140.22C44.3705 140.341 44.1575 140.423 43.9346 140.462Z" fill="#8D8A94"/>
<path d="M46.0333 152.332L35.7306 154.149C35.2805 154.227 34.8179 154.123 34.4444 153.861C34.0709 153.598 33.8173 153.198 33.7392 152.748C33.6611 152.298 33.7651 151.836 34.0281 151.463C34.2912 151.09 34.6918 150.837 35.1419 150.759L45.4446 148.939C45.6714 148.891 45.9056 148.889 46.1332 148.933C46.3607 148.978 46.577 149.068 46.7689 149.198C46.9609 149.328 47.1247 149.495 47.2505 149.69C47.3764 149.884 47.4616 150.102 47.5012 150.33C47.5408 150.558 47.5339 150.792 47.481 151.018C47.4281 151.243 47.3302 151.456 47.1931 151.643C47.0561 151.83 46.8828 151.987 46.6835 152.105C46.4842 152.224 46.2631 152.301 46.0333 152.332Z" fill="#8D8A94"/>
<path d="M35.3269 112.256L35.6212 113.953C35.6627 114.176 35.6592 114.405 35.6111 114.626C35.5629 114.848 35.4711 115.057 35.3409 115.243C35.2107 115.429 35.0448 115.586 34.8529 115.707C34.6609 115.828 34.4468 115.91 34.223 115.947L17.2559 118.943C17.0329 118.985 16.8037 118.982 16.5818 118.934C16.3599 118.887 16.1498 118.795 15.9637 118.665C15.7776 118.536 15.6192 118.37 15.4979 118.178C15.3766 117.987 15.2948 117.773 15.2572 117.549L14.9629 115.853C14.807 114.953 15.0135 114.029 15.5375 113.282C16.0614 112.534 16.8601 112.024 17.7593 111.862L21.1533 111.274C20.8236 109.41 22.0364 107.387 23.9085 107.058C25.7807 106.728 27.6116 108.21 27.9413 110.075L31.3383 109.487C32.2342 109.331 33.1553 109.535 33.902 110.053C34.6486 110.572 35.1606 111.363 35.3269 112.256Z" fill="#8D8A94"/>
<path d="M35.3266 112.257L35.621 113.953C35.6624 114.176 35.6589 114.405 35.6108 114.626C35.5626 114.848 35.4708 115.057 35.3406 115.243C35.2104 115.429 35.0445 115.587 34.8526 115.707C34.6607 115.828 34.4465 115.91 34.2227 115.947L25.7363 117.446L23.8965 107.046C25.7627 106.717 27.5996 108.199 27.9293 110.063L31.3262 109.475C32.2256 109.316 33.1513 109.52 33.9009 110.041C34.6505 110.562 35.1631 111.359 35.3266 112.257Z" fill="#3D3C3F"/>
</svg>
