<svg width="153" height="150" viewBox="0 0 153 150" fill="none" xmlns="http://www.w3.org/2000/svg">
<circle cx="78" cy="75" r="75" fill="#F3F5F9"/>
<mask id="mask0_1330_34867" style="mask-type:alpha" maskUnits="userSpaceOnUse" x="2" y="0" width="151" height="150">
<circle cx="77.5" cy="75" r="75" fill="#2D6679"/>
</mask>
<g mask="url(#mask0_1330_34867)">
<path d="M90.0226 96.8486H46.8613L48.7595 42.7383H87.774L90.0226 96.8486Z" fill="#262626"/>
<path d="M75.7429 157.202H60.178C53.1694 157.202 47.4458 151.375 47.4458 144.239L44.2627 95.9861C44.2627 88.8507 49.9864 83.0234 56.995 83.0234H78.926C85.9346 83.0234 91.6583 88.8507 91.6583 95.9861L88.4752 144.239C88.446 151.375 82.7223 157.202 75.7429 157.202Z" fill="#FFAF2D"/>
<path d="M77.8452 84.2122C77.8452 83.8257 77.7868 83.4392 77.67 83.0527H58.2211C58.1043 83.4392 58.0459 83.8257 58.0459 84.2122C58.0459 87.7205 62.4847 90.5747 67.9455 90.5747C73.4064 90.5747 77.8452 87.7205 77.8452 84.2122Z" fill="#EABE8D"/>
<path d="M62.4847 64.4707V79.1578C62.4847 81.2984 60.7618 83.0525 58.6592 83.0525H77.8452C75.7426 83.0525 74.0197 81.2984 74.0197 79.1578V64.4707" fill="#EABE8D"/>
<path d="M68.238 78.8317C78.1245 78.8317 86.1391 68.4757 86.1391 55.701C86.1391 42.9263 78.1245 32.5703 68.238 32.5703C58.3515 32.5703 50.3369 42.9263 50.3369 55.701C50.3369 68.4757 58.3515 78.8317 68.238 78.8317Z" fill="#F4D0AB"/>
<path d="M76.1224 28.7637C76.1224 28.7637 71.888 48.6537 63.7405 57.1567C57.1992 63.9948 49.6357 67.7112 49.6357 67.7112L50.3658 38.337L77.8453 28.7637" fill="#262626"/>
<path d="M87.5989 53.2036C87.5989 53.2036 74.7206 54.0361 67.6244 51.1819C61.9007 48.8926 57.7832 45.1762 57.7832 45.1762L75.3923 39.7949L87.4821 48.8926" fill="#262626"/>
<path d="M48.3799 43.2431V35.2157C48.3799 25.3153 56.3229 17.2285 66.0474 17.2285H70.4569C80.1814 17.2285 88.1244 25.3153 88.1244 35.2157V43.2431H48.3799Z" fill="#FFAF2D"/>
<path d="M72.6766 43.2431V18.2691C72.6766 16.069 70.8952 14.2852 68.7634 14.2852H67.7705C65.6096 14.2852 63.8574 16.0987 63.8574 18.2691V43.2431H72.6766Z" fill="#FFBA55"/>
<path d="M88.5333 46.9902H47.9711C47.0366 46.9902 46.2773 46.2172 46.2773 45.2658V44.9685C46.2773 44.0171 47.0366 43.2441 47.9711 43.2441H88.5041C89.4386 43.2441 90.1978 44.0171 90.1978 44.9685V45.2658C90.1978 46.2172 89.4386 46.9902 88.5333 46.9902Z" fill="#FFBA55"/>
<path d="M87.8324 46.9902C87.8324 48.8336 79.8894 50.3498 70.1649 50.3498H65.7554C56.031 50.3498 48.0879 48.8336 48.0879 46.9902H87.8324Z" fill="#EE9D29"/>
<path d="M48.5264 43.2132V35.1561C48.5264 25.2259 56.4986 17.1094 66.2523 17.1094H70.691C80.4447 17.1094 88.4169 25.2259 88.4169 35.1561V43.2132H48.5264Z" fill="#FFAF2D"/>
<path d="M72.8814 43.2132V18.1797C72.8814 15.9796 71.1001 14.166 68.9391 14.166H67.9462C65.7853 14.166 64.0039 15.9796 64.0039 18.1797V43.2132H72.8814Z" fill="#FFBA55"/>
<path d="M88.7674 46.9594H48.1176C47.1831 46.9594 46.4238 46.1864 46.4238 45.235V44.908C46.4238 43.9566 47.1831 43.1836 48.1176 43.1836H88.7674C89.7019 43.1836 90.4611 43.9566 90.4611 44.908V45.235C90.4611 46.1864 89.7019 46.9594 88.7674 46.9594Z" fill="#FFBA55"/>
<path d="M88.0956 46.959C88.0956 48.8023 80.1234 50.3186 70.3697 50.3186H65.931C56.1774 50.3186 48.2051 48.8023 48.2051 46.959H88.0956Z" fill="#EE9D29"/>
<path d="M100.827 74.0137L74.9541 85.2817C74.9541 85.2817 74.9541 104.131 74.9541 111.534C74.9541 118.907 76.1222 128.392 100.798 141.027C125.474 128.392 126.642 118.937 126.642 111.534C126.642 104.161 126.642 85.2817 126.642 85.2817L100.827 74.0137Z" fill="#1C7F98"/>
<path d="M126.672 85.2817C126.672 85.2817 126.672 104.131 126.672 111.534C126.672 118.907 125.504 128.392 100.828 141.027V74.0137L126.672 85.2817Z" fill="#2D6679"/>
<path d="M97.7907 120.127L85 107.313L89.9644 102.139L97.7907 109.959L111.662 96.0742L116.655 101.218L97.7907 120.127Z" fill="#F3F5F9"/>
<path d="M116.656 101.218L100.828 117.094V106.926L111.662 96.0742L116.656 101.218Z" fill="#C1E3E8"/>
<path d="M100.828 144.448L99.4842 143.764C87.9784 137.877 80.3566 132.08 76.1806 126.074C72.4719 120.723 71.9463 115.906 71.9463 111.536V83.2617L100.828 70.6855L129.709 83.2617V111.536C129.709 115.936 129.183 120.723 125.474 126.074C121.298 132.08 113.677 137.877 102.171 143.764L100.828 144.448ZM77.9912 87.3051V111.506C77.9912 117.125 77.9912 125.539 100.828 137.55C123.664 125.539 123.664 117.125 123.664 111.506V87.3051L100.828 77.3453L77.9912 87.3051Z" fill="#F3F5F9"/>
<path d="M100.828 70.6543V77.3438L123.664 87.3036V111.505C123.664 117.124 123.664 125.538 100.828 137.549V144.447L102.201 143.763C113.706 137.876 121.328 132.078 125.504 126.073C129.213 120.721 129.739 115.905 129.739 111.534V83.2602L100.828 70.6543Z" fill="#C1E3E8"/>
</g>
</svg>
