<svg width="360" height="474" viewBox="0 0 360 474" fill="none" xmlns="http://www.w3.org/2000/svg">
<g clip-path="url(#clip0_1288_21253)">
<rect y="-16" width="360" height="381" fill="url(#paint0_linear_1288_21253)"/>
<path d="M255.5 277L214 353.5L365.5 362V295L320.5 281.5L295 288.5L255.5 277Z" fill="#41616C"/>
<path d="M294.5 328L272 356.5L366 361.5V328L337 313.5L294.5 328Z" fill="#3B5059"/>
<path d="M360 357.068L0 348V474H360V357.068Z" fill="#127384"/>
<ellipse cx="307.5" cy="443.5" rx="100.5" ry="5.5" fill="#0F6575"/>
<ellipse cx="81" cy="443.5" rx="36" ry="5.5" fill="#0F6575"/>
<path d="M111.492 373.193L112.604 371.89C112.604 371.89 109.965 368.489 107.89 365.466C105.816 362.443 105.25 361.309 105.25 361.309C105.25 361.309 99.631 357.228 95.822 355.83C88.0908 352.996 80.7367 353.563 80.7367 353.563C80.7367 353.563 73.3826 352.996 65.6513 355.83C61.8423 357.228 56.223 361.309 56.223 361.309C56.223 361.309 55.6573 362.443 53.5831 365.466C51.5088 368.489 48.8689 371.89 48.8689 371.89L50.0003 373.212V373.231C51.4334 374.1 56.1853 376.953 57.5241 377.52C58.7498 378.03 59.9755 378.351 60.4846 378.483C62.276 376.953 64.4256 375.007 64.4256 375.007C64.4256 375.007 65.557 378.03 65.9342 380.108C66.3113 382.187 69.1398 397.301 69.1398 397.301H80.171H81.3024H92.3335C92.3335 397.301 95.162 382.187 95.5392 380.108C95.9163 378.03 97.0477 375.007 97.0477 375.007C97.0477 375.007 99.1785 376.934 100.97 378.465C101.498 378.332 102.705 377.992 103.912 377.501C105.269 376.953 110.115 374.025 111.492 373.193Z" fill="#FFAF2D"/>
<path d="M56.0343 382.469C56.0343 382.469 57.1657 381.147 58.8628 379.824C59.2965 379.484 59.881 379.012 60.4845 378.483C59.9565 378.351 58.7308 378.011 57.524 377.519C56.1663 376.953 51.4332 374.1 50.0001 373.23L48.6802 376.235L56.0343 382.469Z" fill="#F4D0AB"/>
<path d="M24.7322 390.236C26.1842 390.708 26.7687 390.632 26.7687 390.632C26.7687 390.632 28.3527 389.404 29.8235 388.724C30.8606 388.252 32.1051 387.817 32.1051 387.817L32.652 386.967C32.652 386.967 39.5347 387.137 43.1552 387.269C46.7756 387.402 48.9253 387.232 48.9253 387.232C48.9253 387.232 50.6224 385.437 51.1315 384.775C51.6407 384.114 52.9795 383.207 52.9795 383.207L56.1851 382.489C55.6006 380.921 53.3566 378.408 53.0549 376.953C52.7909 375.669 51.4144 376.16 51.3955 375.631C50.7544 376.141 51.0184 373.968 50.6035 374.346C48.9819 375.763 48.8687 375.82 48.8687 375.82C48.8687 375.82 44.7014 374.308 44.0791 374.573C43.4569 374.837 36.0462 379.372 34.1982 379.976C32.3503 380.581 30.4646 380.411 30.4646 380.411C30.4646 380.411 29.8046 380.184 29.3898 379.769L23.7328 381.734C23.7328 381.734 20.6214 382.773 21.0551 384.719" fill="#F4D0AB"/>
<path d="M29.9176 380.902L27.768 376.424C27.4097 375.687 27.0891 375.385 26.3537 375.725L25.9389 375.914C25.2035 376.273 24.9018 377.161 25.2412 377.898L26.8251 382.376C27.1834 383.112 28.0697 383.415 28.8051 383.075L29.2199 382.886C29.9553 382.527 30.2571 381.639 29.9176 380.902Z" fill="#F4D0AB"/>
<path d="M125.05 400.608C125.05 400.608 123.541 399.285 122.598 397.963C121.938 397.037 121.278 395.885 121.278 395.885L120.336 395.507C120.336 395.507 119.204 388.705 118.638 385.115C118.073 381.525 117.507 379.447 117.507 379.447C117.507 379.447 115.433 378.125 114.679 377.747C113.924 377.369 112.793 376.235 112.793 376.235L111.473 373.212L111.492 373.193C110.134 374.025 105.288 376.934 103.911 377.501C102.723 377.992 101.517 378.332 100.97 378.465C101.592 378.994 102.177 379.485 102.61 379.825C104.307 381.148 105.439 382.47 105.439 382.47C105.439 382.47 105.627 386.06 106.004 386.627C106.382 387.193 112.227 393.617 113.17 395.318C114.113 397.018 114.301 398.908 114.301 398.908C114.301 398.908 112.133 401.137 112.981 403.253C113.359 404.198 113.83 405.426 114.49 406.087C114.867 406.465 116.017 407.882 116.376 407.787C117.13 407.599 117.884 407.032 117.884 407.032C117.884 407.032 118.789 408.392 119.581 408.921C120.147 409.299 120.882 409.809 121.467 409.677C123.164 409.299 125.05 408.354 125.05 408.354C125.05 408.354 124.861 404.198 125.05 402.686C125.238 401.175 125.05 400.608 125.05 400.608Z" fill="#F4D0AB"/>
<path d="M80.7365 360.363C80.7365 360.363 77.7194 360.363 75.4566 359.041C71.7984 356.906 71.6099 354.223 71.6099 354.223C71.6099 354.223 72.0624 354.128 73.1938 353.939C74.5515 353.713 75.3812 353.581 75.3812 353.581L74.7023 343.548L70.3653 339.958L68.6682 328.433L69.2339 320.12L80.7365 319.364L92.239 320.12L92.8047 328.433L91.1077 339.958L86.7706 343.548L86.0918 353.581C86.0918 353.581 86.9215 353.713 88.2792 353.939C89.4106 354.128 89.4106 354.128 89.4106 354.128C89.4106 354.128 89.6745 356.906 86.0163 359.041C83.7535 360.363 80.7365 360.363 80.7365 360.363Z" fill="#F4D0AB"/>
<path d="M80.7364 336.935L76.3993 336.368L73.3823 339.013L70.9309 337.502L68.6681 328.433L69.2338 320.12L70.7423 317.475L69.4224 317.852L67.3481 319.742L67.5367 326.355L66.2167 329C66.2167 329 66.2167 330.7 66.4053 333.723C66.5939 336.746 65.8396 344.115 65.8396 344.115C65.8396 344.115 69.9881 346.571 72.0623 347.515C74.1365 348.46 77.3422 350.538 77.3422 350.538L80.7364 350.349L84.1306 350.538C84.1306 350.538 87.3362 348.46 89.4104 347.515C91.4847 346.571 95.6331 344.115 95.6331 344.115C95.6331 344.115 94.8789 336.746 95.0674 333.723C95.256 330.7 95.256 329 95.256 329L93.936 326.355L94.1246 319.742L92.0504 317.852L90.7304 317.475L92.2389 320.12L92.8046 328.433L90.5418 337.502L88.0905 339.013L85.0734 336.368L80.7364 336.935Z" fill="#303030"/>
<path d="M68.9509 317.891V313.205C68.9509 307.424 73.6651 302.7 79.4352 302.7H82.0563C87.8265 302.7 92.5406 307.424 92.5406 313.205V317.891H68.9509Z" fill="#FFAF2D"/>
<path d="M92.5218 320.082C92.5218 321.159 87.8077 322.047 82.0375 322.047H79.4164C73.6463 322.047 68.9321 321.159 68.9321 320.082H92.5218Z" fill="#EE9D29"/>
<path d="M83.3576 317.891V303.324C83.3576 302.039 82.3017 301 81.0383 301H80.4348C79.1526 301 78.1155 302.058 78.1155 303.324V317.891H83.3576Z" fill="#FFBA55"/>
<path d="M92.6539 320.064H68.8002C68.1968 320.064 67.7065 319.572 67.7065 318.968C67.7065 318.363 68.1968 317.872 68.8002 317.872H92.6539C93.2573 317.872 93.7476 318.363 93.7476 318.968C93.7476 319.572 93.2573 320.064 92.6539 320.064Z" fill="#FFBA55"/>
<path d="M75.4566 431.195C75.4566 431.195 75.9846 437.676 75.9846 438.942C75.9846 440.208 75.8338 440.907 75.8338 440.907H57.9199V438.639C57.9199 436.826 58.7119 434.936 61.0124 434.596C61.5027 434.521 62.9924 434.407 62.9924 434.407C64.0483 434.407 64.8215 434.993 65.3872 435.862C65.5569 436.127 65.6889 436.41 65.7831 436.731C65.7831 436.731 67.8197 436.429 68.4042 435.938L69.7619 435.125L70.8179 431.781L75.4566 431.195Z" fill="#262626"/>
<path d="M91.8998 388.138C91.5227 387.76 90.1084 380.486 89.8256 377.463C89.5427 374.44 88.7884 372.456 88.7884 372.456C88.7884 372.456 86.8085 371.7 85.4885 371.7C84.5457 371.7 82.0943 371.795 80.7366 371.851C79.3978 371.795 76.9276 371.7 75.9848 371.7C74.6648 371.7 72.6848 372.456 72.6848 372.456C72.6848 372.456 71.9306 374.44 71.6477 377.463C71.3649 380.486 69.9506 387.76 69.5735 388.138C69.1964 388.515 65.9907 392.2 65.9907 392.2C65.9907 392.2 66.1793 399.663 67.2164 408.354C68.2535 417.045 70.3278 432.632 70.3278 432.632L75.7962 433.671L79.4732 408.543L80.7366 408.429L82 408.543L86.2428 435.56L91.1455 433.199C91.1455 433.199 93.2198 417.045 94.2569 408.354C95.294 399.663 95.4826 392.2 95.4826 392.2C95.4826 392.2 92.2769 388.515 91.8998 388.138Z" fill="#1C7F98"/>
<path d="M88.1849 372.72L86.5444 372.304C86.337 372.248 86.2238 372.04 86.2804 371.851L90.7494 354.45C90.806 354.242 91.0134 354.129 91.202 354.185L92.8425 354.601C93.0499 354.658 93.1631 354.866 93.1065 355.055L88.6375 372.456C88.5809 372.644 88.3735 372.777 88.1849 372.72Z" fill="#1C7F98"/>
<path d="M73.2879 372.72L74.9284 372.304C75.1359 372.248 75.249 372.04 75.1924 371.851L70.7234 354.45C70.6668 354.242 70.4594 354.129 70.2708 354.185L68.6303 354.601C68.4229 354.658 68.3097 354.866 68.3663 355.055L72.8354 372.456C72.8731 372.644 73.0805 372.777 73.2879 372.72Z" fill="#1C7F98"/>
<path d="M85.1489 440.907V437.033C85.1489 434.596 87.1477 432.612 89.5614 432.612H91.7676C94.2001 432.612 96.5572 435.371 96.5572 437.789V440.907H85.1489Z" fill="#262626"/>
<path d="M97.1608 440.907H84.5269V443.42H97.1608V440.907Z" fill="#3A3A3A"/>
<path d="M57.068 443.399H76.3584V440.887H57.068V443.399Z" fill="#3A3A3A"/>
<path d="M89.8064 330.587L83.9232 330.209C82.7352 330.209 81.7546 329.189 81.7546 327.942V325.599C81.7546 324.352 82.7352 323.332 83.9232 323.332H89.8064C90.9944 323.332 91.975 324.352 91.975 325.599V328.32C91.975 329.567 91.0133 330.587 89.8064 330.587Z" fill="#303030"/>
<path d="M77.4554 330.209L71.7418 330.587C70.4973 330.587 69.479 329.567 69.479 328.32V325.599C69.479 324.352 70.4973 323.332 71.7418 323.332H77.4554C78.6999 323.332 79.7182 324.352 79.7182 325.599V327.942C79.7182 329.189 78.6999 330.209 77.4554 330.209Z" fill="#303030"/>
<path d="M78.0212 328.907V328C78.0212 326.753 79.0395 325.732 80.284 325.732H81.1892C82.4337 325.732 83.452 326.753 83.452 328V328.907" stroke="#303030" stroke-width="6" stroke-miterlimit="10"/>
<path d="M76.6069 329.038L72.4018 329.284C71.4778 329.284 70.7424 328.623 70.7424 327.829V326.072C70.7424 325.26 71.4967 324.617 72.4018 324.617H76.6069C77.5308 324.617 78.2662 325.278 78.2662 326.072V327.583C78.2662 328.396 77.5308 329.038 76.6069 329.038Z" fill="#3A3A3A"/>
<path d="M84.8471 329.038L89.0522 329.284C89.9761 329.284 90.7116 328.623 90.7116 327.829V326.072C90.7116 325.26 89.9573 324.617 89.0522 324.617H84.8471C83.9232 324.617 83.1877 325.278 83.1877 326.072V327.583C83.1877 328.396 83.942 329.038 84.8471 329.038Z" fill="#3A3A3A"/>
<path d="M95.1808 399.548H66.2358L65.8398 395.543H95.6334L95.1808 399.548Z" fill="#262626"/>
<path d="M81.4152 400.02H80.0387C78.7941 400.02 77.7759 399 77.7759 397.753V397.338C77.7759 396.091 78.7941 395.07 80.0387 395.07H81.4152C82.6598 395.07 83.678 396.091 83.678 397.338V397.753C83.678 399 82.6598 400.02 81.4152 400.02Z" stroke="#A0A0A0" stroke-width="6" stroke-miterlimit="10"/>
<path d="M73.4956 374.176L75.1361 373.817C75.5321 373.722 75.7961 373.326 75.7018 372.91L75.4567 371.776C75.3624 371.38 74.9664 371.115 74.5516 371.21L72.911 371.569C72.515 371.663 72.251 372.06 72.3453 372.475L72.5905 373.609C72.6847 374.006 73.0996 374.27 73.4956 374.176Z" stroke="#262626" stroke-width="6" stroke-miterlimit="10"/>
<path d="M87.9588 374.176L86.3183 373.817C85.9223 373.722 85.6583 373.326 85.7526 372.91L85.9977 371.776C86.092 371.38 86.488 371.115 86.9028 371.21L88.5433 371.569C88.9393 371.663 89.2033 372.06 89.109 372.475L88.8639 373.609C88.7696 374.006 88.3548 374.27 87.9588 374.176Z" stroke="#262626" stroke-width="6" stroke-miterlimit="10"/>
<path d="M85.6579 381.656H75.7959V390.706H85.6579V381.656Z" fill="#1A7489"/>
<path opacity="0.15" d="M125.05 400.607C125.05 400.607 123.541 399.284 122.598 397.962C121.938 397.036 121.278 395.883 121.278 395.883L120.336 395.506C120.336 395.506 119.204 388.704 118.638 385.114C118.073 381.524 117.507 379.446 117.507 379.446C117.507 379.446 115.433 378.124 114.679 377.746C113.924 377.368 112.793 376.234 112.793 376.234L111.473 373.211L111.492 373.192L112.604 371.889C112.604 371.889 109.964 368.488 107.89 365.465C105.816 362.442 105.25 361.308 105.25 361.308C105.25 361.308 99.631 357.227 95.8219 355.829C93.5968 355.017 91.4094 354.488 89.4106 354.129C89.4106 354.129 89.4106 354.129 88.2792 353.94C86.9216 353.713 86.0919 353.581 86.0919 353.581L86.3936 349.141C87.3741 348.555 88.5055 347.932 89.4106 347.516C91.4849 346.571 95.6333 344.115 95.6333 344.115C95.6333 344.115 94.8791 336.747 95.0676 333.724C95.2562 330.701 95.2562 329 95.2562 329L93.9362 326.355L94.1248 319.742L93.6911 319.346C93.7288 319.232 93.7477 319.1 93.7477 318.987C93.7477 318.382 93.2574 317.891 92.654 317.891H92.522V313.205C92.522 307.858 88.4678 303.399 83.2822 302.795C83.0371 301.775 82.1131 301 81.0194 301H80.7366V408.448L82 408.561L86.0542 434.37C85.4885 435.107 85.1679 436.032 85.1679 437.034V440.907H84.5456V443.42H97.1796V440.907H96.5762V437.789C96.5762 435.352 94.2191 432.613 91.7866 432.613H91.2209C91.6169 429.59 93.3328 416.062 94.2568 408.372C94.6339 405.16 94.8979 402.118 95.0865 399.568H95.1996L95.6333 395.562H95.3316C95.4448 393.484 95.4636 392.218 95.4636 392.218C95.4636 392.218 94.5585 391.179 93.6534 390.159C94.4454 385.945 95.3128 381.222 95.5202 380.126C95.8973 378.048 97.0287 375.025 97.0287 375.025C97.0287 375.025 99.1595 376.952 100.951 378.482C101.573 379.012 102.158 379.503 102.591 379.843C104.289 381.165 105.42 382.488 105.42 382.488C105.42 382.488 105.609 386.078 105.986 386.645C106.363 387.211 112.208 393.635 113.151 395.336C114.094 397.036 114.283 398.925 114.283 398.925C114.283 398.925 112.114 401.155 112.963 403.271C113.34 404.216 113.811 405.444 114.471 406.105C114.848 406.483 115.999 407.9 116.357 407.805C117.111 407.616 117.865 407.05 117.865 407.05C117.865 407.05 118.77 408.41 119.562 408.939C120.128 409.317 120.864 409.827 121.448 409.695C123.145 409.317 125.031 408.372 125.031 408.372C125.031 408.372 124.842 404.216 125.031 402.704C125.219 401.193 125.05 400.607 125.05 400.607ZM92.2014 320.064H91.4472H91.334H92.2014Z" fill="black"/>
<path d="M51.5465 366.109L56.1664 392.257C56.487 394.071 55.2801 395.791 53.4887 396.112L31.6716 399.985C29.8613 400.306 28.0888 399.116 27.7682 397.302L23.1484 371.153C22.8278 369.34 24.1101 367.62 25.9014 367.299L47.7186 363.426C49.51 363.105 51.2259 364.314 51.5465 366.109Z" fill="#3D3C3F"/>
<path d="M51.5465 366.109L56.1664 392.257C56.487 394.071 55.2801 395.79 53.4888 396.112L42.5519 398.058L36.7817 365.372L47.7186 363.426C49.51 363.105 51.2259 364.314 51.5465 366.109Z" fill="#1E150F"/>
<path d="M49.359 366.504L53.9789 392.653C54.092 393.258 53.696 393.824 53.0926 393.938L31.2754 397.811C30.672 397.924 30.0309 397.528 29.9177 396.923L25.2979 370.774C25.1847 370.17 25.6561 369.584 26.2596 369.471L48.0767 365.597C48.699 365.484 49.2458 365.881 49.359 366.504Z" fill="white"/>
<path d="M49.3592 366.505L53.9791 392.654C54.0922 393.258 53.6962 393.825 53.0928 393.939L42.156 395.885L37.1589 367.563L48.0958 365.617C48.6992 365.485 49.2461 365.882 49.3592 366.505Z" fill="white"/>
<path d="M32.5389 379.598C32.256 379.655 31.9543 379.598 31.7092 379.41L29.1447 377.615C28.6355 377.256 28.5224 376.575 28.8807 376.065C29.239 375.555 29.9178 375.442 30.4269 375.801L32.0863 376.953L35.028 372.74C35.3862 372.23 36.0651 372.117 36.5742 372.476C37.0833 372.835 37.1965 373.515 36.8382 374.025L33.2554 379.145C33.0669 379.391 32.8217 379.542 32.5389 379.598Z" fill="#FAB80F"/>
<path d="M33.8777 387.213C33.5949 387.269 33.2932 387.213 33.048 387.024L30.4835 385.229C29.9744 384.87 29.8613 384.19 30.2195 383.68C30.5778 383.169 31.2567 383.056 31.7658 383.415L33.4252 384.568L36.3668 380.354C36.7251 379.844 37.4039 379.731 37.9131 380.09C38.4222 380.449 38.5353 381.129 38.1771 381.639L34.5943 386.759C34.4246 387.005 34.1606 387.175 33.8777 387.213Z" fill="#FAB80F"/>
<path d="M35.2166 394.846C34.9338 394.902 34.6321 394.846 34.3869 394.657L31.8224 392.862C31.3133 392.503 31.2001 391.823 31.5584 391.312C31.9167 390.802 32.5955 390.689 33.1047 391.048L34.764 392.2L37.7057 387.987C38.064 387.477 38.7428 387.364 39.2519 387.723C39.7611 388.082 39.8742 388.762 39.5159 389.272L35.9332 394.392C35.7635 394.638 35.4995 394.789 35.2166 394.846Z" fill="#FAB80F"/>
<path d="M47.4545 374.705L40.8546 375.877C40.2512 375.99 39.6855 375.574 39.5724 374.989C39.4592 374.384 39.8741 373.817 40.4586 373.704L47.0585 372.532C47.6619 372.419 48.2276 372.835 48.3407 373.42C48.4539 374.025 48.039 374.592 47.4545 374.705Z" fill="#8D8A94"/>
<path d="M48.7936 382.319L42.1937 383.491C41.5903 383.604 41.0246 383.188 40.9115 382.603C40.7983 381.998 41.2132 381.431 41.7977 381.318L48.3976 380.147C49.001 380.033 49.5667 380.449 49.6798 381.035C49.793 381.62 49.397 382.225 48.7936 382.319Z" fill="#8D8A94"/>
<path d="M50.1322 389.952L43.5323 391.124C42.9289 391.237 42.3632 390.821 42.2501 390.236C42.137 389.65 42.5518 389.064 43.1364 388.951L49.7362 387.779C50.3396 387.666 50.9053 388.082 51.0184 388.667C51.1316 389.253 50.7356 389.858 50.1322 389.952Z" fill="#8D8A94"/>
<path d="M43.2685 364.2L43.457 365.296C43.5702 365.9 43.1742 366.467 42.5708 366.58L31.6905 368.507C31.0871 368.621 30.5214 368.224 30.4082 367.62L30.2197 366.524C30.0122 365.333 30.8231 364.181 32.011 363.954L34.1796 363.576C33.9721 362.386 34.7453 361.082 35.9521 360.874C37.1589 360.667 38.328 361.611 38.5355 362.821L40.704 362.443C41.9108 362.197 43.061 363.009 43.2685 364.2Z" fill="#8D8A94"/>
<path d="M43.2683 364.2L43.4569 365.296C43.57 365.901 43.174 366.467 42.5706 366.581L37.1399 367.544L35.9519 360.856C37.1399 360.648 38.3278 361.593 38.5353 362.802L40.7038 362.424C41.9106 362.197 43.0609 363.01 43.2683 364.2Z" fill="#3D3C3F"/>
<path d="M25.5619 380.201L27.259 385.983C27.4664 386.682 26.5236 388.703 25.8447 388.911L24.9773 389.157C24.2796 389.365 23.5442 388.968 23.3556 388.269L21.0551 380.371C20.8477 379.672 21.2437 378.936 21.9414 378.747L22.6014 378.558C23.2613 378.369 25.3544 379.521 25.5619 380.201Z" fill="#F4D0AB"/>
<path d="M428.522 414.123L445.592 413.636L433.44 371.727L396.719 359.844L328.438 363.107H274.816L273.696 403.725H316.676V415.17L428.522 414.123Z" fill="#000003"/>
<path d="M374.121 349.324L368.593 312.066H322.764L308.616 367.953L327.318 374.503V377.352H375.728V351.175L374.121 349.324Z" fill="#0E1216"/>
<path d="M324.736 371.264L310.856 366.418L324.079 314.258H329.168L324.736 371.264Z" fill="#2C909B"/>
<path d="M353.52 355.387H330.24L332.651 314.258H353.52V355.387Z" fill="#2C909B"/>
<path d="M357.002 314.258H366.84L371.637 346.621V355.387H357.002V314.258Z" fill="#2C909B"/>
<path d="M368.082 322.732L357.002 345.55V355.387H359.632L369.665 333.106L368.082 322.732Z" fill="#8EBDC4"/>
<path d="M353.52 314.258H351.645L330.484 351.077L330.24 355.387H337.034L353.544 325.654L353.52 314.258Z" fill="#8EBDC4"/>
<path d="M340.419 355.387L353.52 331.742V328.649L338.592 355.387H340.419Z" fill="#8EBDC4"/>
<path d="M316.944 368.537L326.465 348.861L327.756 332.254L310.856 366.419L316.944 368.537Z" fill="#8EBDC4"/>
<path d="M326.173 352.685L318.283 369L320.938 369.95L325.662 359.722L326.173 352.685Z" fill="#8EBDC4"/>
<path d="M375.752 308H321.376V312.067H375.752V308Z" fill="#FBAE40"/>
<path d="M375.752 308H321.376V309.242H375.752V308Z" fill="#FFB10D"/>
<path d="M228.912 364.839L264.173 364.839L264.173 361.6L228.912 361.6L228.912 364.839Z" fill="#7B7F80"/>
<path d="M228.957 362.519L264.218 362.519L264.218 361.593L228.957 361.593L228.957 362.519Z" fill="#C3C5C4"/>
<path d="M295.271 359.381H249.491V366.832H295.271V359.381Z" fill="#FBAE40"/>
<path d="M295.271 359.479H249.491V361.134H295.271V359.479Z" fill="#FFB10D"/>
<path d="M238.776 396.906C238.776 396.906 231.252 394.008 230.059 381.638C228.841 369.267 226.674 365.639 226.674 365.639C226.674 365.639 225.529 361.11 229.158 360.014C232.786 358.918 234.076 363.837 234.076 363.837C234.076 363.837 237.364 379.495 248.005 378.399C247.981 378.375 240.213 388.432 238.776 396.906Z" fill="#FBAE40"/>
<path d="M305.329 358.212L267.584 365.517C267.584 365.517 249.71 365.274 238.898 383.635C238.898 383.635 223.411 415.924 217.372 420.892V425.933C217.372 425.933 241.26 415.632 245.79 403.798C250.319 391.963 270.458 376.865 270.458 376.865C270.458 376.865 284.094 369.998 305.353 364.957V358.212H305.329Z" fill="#FFAF2D"/>
<path d="M243.135 402.142C247.665 390.307 267.803 375.209 267.803 375.209C267.803 375.209 281.44 368.342 302.699 363.302L305.304 362.888V364.909C284.046 369.95 270.409 376.817 270.409 376.817C270.409 376.817 250.27 391.914 245.741 403.749C241.212 415.584 217.323 425.909 217.323 425.909V423.084C223.654 420.04 239.531 411.566 243.135 402.142Z" fill="#FD9C00"/>
<path d="M238.874 383.61C249.71 365.249 267.56 365.493 267.56 365.493L305.304 358.188V359.77L268.899 366.808C268.899 366.808 251.025 366.564 240.213 384.925C240.213 384.925 224.726 417.215 218.687 422.183V425.275C217.834 425.665 217.347 425.884 217.347 425.884V420.843C223.387 415.924 238.874 383.61 238.874 383.61Z" fill="#FFBA55"/>
<path d="M189.709 373.992L206.828 388.481C206.828 388.481 220.927 389.139 220.416 396.931C219.904 404.724 219.904 424.351 215.375 431.413C210.845 438.45 201.787 435.942 201.787 435.942L160 427.346L167.549 418.044L190.22 378.814L189.709 373.992Z" fill="#2C2F31"/>
<path d="M331.506 419.554H309.614L307.861 404.334L292.885 372.629L277.86 372.142C277.86 372.142 289.719 365.956 293.737 355.388L305.304 353.976V373.651C305.304 373.651 304.403 379.009 308.762 382.71L320.67 383.806V395.129H329.728V400.925H321.011V410.909H331.457V419.554H331.506Z" fill="#FD9C00"/>
<path d="M305.328 353.976L305.255 375.356C305.255 375.356 305.036 379.471 308.786 382.71L322.593 393.595V405.917H309.76L291.472 372.556L278.956 372.19C278.956 372.19 284.922 367.564 286.797 365.421C288.623 363.351 293.713 355.364 293.713 355.364L305.328 353.976Z" fill="#FFAF2D"/>
<path d="M309.249 406.866L293.713 377.937C293.713 377.937 289.841 374.017 285.044 373.408L267.681 371.533C267.681 371.533 264.735 370.072 267.681 369.682C270.628 369.292 291.083 369.682 291.083 369.682C291.083 369.682 294.541 370.607 297.585 375.526C300.629 380.445 310.467 404.991 310.467 404.991C310.467 404.991 311.855 408.863 309.249 406.866Z" fill="#FBAE40"/>
<path d="M266.951 369.682C267.316 370.096 268.047 370.437 268.047 370.437L285.409 372.312C286.091 372.409 291.765 374.065 294.078 376.841L309.614 405.77C310.223 406.233 310.613 406.379 310.856 406.33C310.929 407.158 310.71 407.792 309.273 406.72L293.737 377.791C293.737 377.791 289.865 373.87 285.068 373.261L267.706 371.386C267.681 371.386 265.319 370.217 266.951 369.682Z" fill="#FFBA55"/>
<path d="M309.76 405.892C309.76 405.892 299.947 381.346 296.879 376.427C293.835 371.508 290.377 370.583 290.377 370.583C290.377 370.583 269.946 370.193 266.975 370.583C266.805 370.607 266.634 370.632 266.488 370.656C266.196 370.266 266.293 369.852 267.657 369.658C270.603 369.268 291.059 369.658 291.059 369.658C291.059 369.658 294.516 370.583 297.56 375.502C300.604 380.421 310.442 404.967 310.442 404.967C310.442 404.967 311.465 407.816 310.101 407.353C310.053 406.696 309.76 405.892 309.76 405.892Z" fill="#FFBA55"/>
<path d="M292.42 348.264L297.583 348.264L297.583 344.197L292.42 344.197L292.42 348.264Z" fill="#BDA992"/>
<path d="M301.188 359.723H296.367V364.544H301.188V359.723Z" fill="#0E1216"/>
<path d="M299.995 343.31H297.585V362.133H299.995V343.31Z" fill="#0E1216"/>
<path d="M301.627 342.165H292.422V344.186H301.627V342.165Z" fill="#0E1216"/>
<path d="M298.778 348.277H292.422V350.201H298.778V348.277Z" fill="#0E1216"/>
<path d="M455.673 408.23L449.634 364.933C449.634 364.933 412.377 347.814 374.121 349.324L374.048 374.381L327.293 374.503V382.052H377.141C380.16 363.935 430.007 346.816 438.214 408.424L455.673 408.23Z" fill="#FBAE40"/>
<path d="M381.086 374.503H327.318V376.256H381.086V374.503Z" fill="#FFB10D"/>
<path d="M293.516 435.016C306.202 422.33 306.202 401.762 293.516 389.076C280.83 376.39 260.262 376.39 247.576 389.076C234.89 401.762 234.89 422.33 247.576 435.016C260.262 447.702 280.83 447.702 293.516 435.016Z" fill="#010C10"/>
<path d="M269.897 383.343C268.314 383.367 266.78 383.538 265.27 383.806L264.321 379.057C266.123 378.716 267.998 378.521 269.897 378.497V383.343Z" fill="#394141"/>
<path d="M286.627 388.262C285.36 387.41 284.021 386.655 282.609 385.997L284.459 381.517C286.164 382.296 287.771 383.197 289.305 384.244L286.627 388.262Z" fill="#394141"/>
<path d="M275.79 383.806C274.281 383.538 272.746 383.367 271.164 383.343V378.497C273.063 378.521 274.914 378.716 276.716 379.057L275.79 383.806Z" fill="#394141"/>
<path d="M281.464 385.486C280.052 384.902 278.566 384.439 277.057 384.074L278.006 379.325C279.833 379.739 281.61 380.299 283.339 381.005L281.464 385.486Z" fill="#394141"/>
<path d="M298.778 393.863L294.736 396.566C293.908 395.3 293.007 394.082 291.984 392.962L295.417 389.528C296.659 390.868 297.779 392.329 298.778 393.863Z" fill="#394141"/>
<path d="M298.851 407.207C298.607 405.721 298.242 404.285 297.78 402.897L302.26 401.046C302.845 402.726 303.307 404.479 303.624 406.257L298.851 407.207Z" fill="#394141"/>
<path d="M297.341 401.704C296.805 400.292 296.148 398.953 295.393 397.662L299.435 394.959C300.361 396.517 301.164 398.149 301.822 399.854L297.341 401.704Z" fill="#394141"/>
<path d="M245.692 397.638C244.937 398.928 244.28 400.292 243.744 401.68L239.263 399.829C239.921 398.125 240.725 396.493 241.65 394.935L245.692 397.638Z" fill="#394141"/>
<path d="M293.372 429.513L297.414 432.216C296.392 433.579 295.247 434.87 294.029 436.063L290.596 432.63C291.594 431.656 292.52 430.609 293.372 429.513Z" fill="#394141"/>
<path d="M247.713 429.513C248.566 430.633 249.491 431.68 250.489 432.654L247.056 436.088C245.838 434.894 244.694 433.604 243.671 432.24L247.713 429.513Z" fill="#394141"/>
<path d="M299.265 412.053C299.265 410.835 299.192 409.642 299.046 408.473L303.819 407.523C304.014 409.009 304.135 410.519 304.135 412.053C304.135 412.321 304.135 412.589 304.135 412.856H299.289C299.265 412.589 299.265 412.321 299.265 412.053Z" fill="#394141"/>
<path d="M256.602 381.492L258.452 385.973C257.04 386.63 255.701 387.385 254.434 388.237L251.756 384.22C253.29 383.197 254.897 382.271 256.602 381.492Z" fill="#394141"/>
<path d="M264.053 384.074C262.543 384.415 261.058 384.902 259.645 385.486L257.795 381.005C259.499 380.299 261.277 379.739 263.128 379.325L264.053 384.074Z" fill="#394141"/>
<path d="M298.559 418.409C298.875 417.021 299.095 415.584 299.192 414.123H304.062C303.965 415.901 303.697 417.654 303.332 419.359L298.559 418.409Z" fill="#394141"/>
<path d="M249.101 392.937C248.103 394.058 247.178 395.275 246.35 396.541L242.307 393.838C243.306 392.304 244.426 390.843 245.643 389.479L249.101 392.937Z" fill="#394141"/>
<path d="M238.825 401.046L243.306 402.897C242.843 404.285 242.478 405.721 242.234 407.207L237.486 406.257C237.778 404.479 238.241 402.726 238.825 401.046Z" fill="#394141"/>
<path d="M241.893 414.123C241.991 415.584 242.21 417.021 242.526 418.409L237.778 419.359C237.413 417.654 237.145 415.901 237.047 414.123H241.893Z" fill="#394141"/>
<path d="M255.798 436.721C256.967 437.427 258.209 438.036 259.475 438.571L257.624 443.052C256.066 442.395 254.556 441.615 253.119 440.739L255.798 436.721Z" fill="#394141"/>
<path d="M244.816 424.838C245.449 426.104 246.179 427.322 246.983 428.466L242.941 431.169C241.966 429.757 241.09 428.271 240.335 426.689L244.816 424.838Z" fill="#394141"/>
<path d="M251.439 433.507C252.462 434.432 253.557 435.26 254.726 436.039L252.023 440.082C250.611 439.132 249.247 438.085 248.005 436.965L251.439 433.507Z" fill="#394141"/>
<path d="M242.843 419.65C243.233 421.038 243.695 422.378 244.28 423.693L239.799 425.543C239.093 423.961 238.533 422.305 238.07 420.6L242.843 419.65Z" fill="#394141"/>
<path d="M291.132 392.012C290.06 390.916 288.916 389.918 287.698 388.993L290.401 384.95C291.886 386.046 293.299 387.264 294.589 388.579L291.132 392.012Z" fill="#394141"/>
<path d="M253.411 388.993C252.194 389.918 251.025 390.916 249.978 392.012L246.544 388.579C247.835 387.264 249.223 386.046 250.733 384.95L253.411 388.993Z" fill="#394141"/>
<path d="M237.267 407.523L242.039 408.473C241.893 409.642 241.82 410.835 241.82 412.053C241.82 412.321 241.82 412.589 241.82 412.856H236.974C236.974 412.589 236.974 412.321 236.974 412.053C236.974 410.519 237.072 409.009 237.267 407.523Z" fill="#394141"/>
<path d="M286.383 436.039C287.528 435.284 288.648 434.432 289.67 433.507L293.104 436.94C291.838 438.085 290.498 439.132 289.086 440.057L286.383 436.039Z" fill="#394141"/>
<path d="M296.83 423.693C297.414 422.402 297.877 421.038 298.267 419.65L303.039 420.6C302.601 422.305 302.017 423.961 301.31 425.543L296.83 423.693Z" fill="#394141"/>
<path d="M260.644 439.034C261.91 439.497 263.225 439.886 264.589 440.154L263.639 444.903C261.983 444.562 260.352 444.075 258.793 443.49L260.644 439.034Z" fill="#394141"/>
<path d="M294.127 428.466C294.931 427.322 295.661 426.104 296.294 424.838L300.775 426.689C300.02 428.247 299.143 429.757 298.169 431.169L294.127 428.466Z" fill="#394141"/>
<path d="M281.61 438.571C282.877 438.036 284.119 437.427 285.287 436.721L287.99 440.763C286.554 441.64 285.044 442.419 283.485 443.076L281.61 438.571Z" fill="#394141"/>
<path d="M276.497 440.179C277.836 439.887 279.151 439.521 280.441 439.059L282.292 443.539C280.734 444.124 279.102 444.586 277.446 444.952L276.497 440.179Z" fill="#394141"/>
<path d="M265.831 440.398C267.17 440.618 268.509 440.739 269.897 440.764V445.61C268.193 445.585 266.512 445.415 264.881 445.147L265.831 440.398Z" fill="#394141"/>
<path d="M271.188 440.788C272.576 440.764 273.915 440.618 275.255 440.423L276.204 445.171C274.573 445.439 272.893 445.61 271.188 445.634V440.788Z" fill="#394141"/>
<path d="M292.431 433.931C304.518 421.844 304.518 402.248 292.431 390.161C280.345 378.074 260.748 378.074 248.661 390.161C236.574 402.248 236.574 421.844 248.661 433.931C260.748 446.018 280.345 446.018 292.431 433.931Z" fill="#0E1216"/>
<path d="M270.555 430.487C280.736 430.487 288.989 422.234 288.989 412.053C288.989 401.872 280.736 393.619 270.555 393.619C260.374 393.619 252.121 401.872 252.121 412.053C252.121 422.234 260.374 430.487 270.555 430.487Z" fill="#FD9C00"/>
<path d="M270.555 427.37C279.014 427.37 285.872 420.513 285.872 412.053C285.872 403.594 279.014 396.736 270.555 396.736C262.095 396.736 255.238 403.594 255.238 412.053C255.238 420.513 262.095 427.37 270.555 427.37Z" fill="#FBAE40"/>
<path d="M270.555 419.358C274.589 419.358 277.86 416.087 277.86 412.052C277.86 408.018 274.589 404.747 270.555 404.747C266.52 404.747 263.249 408.018 263.249 412.052C263.249 416.087 266.52 419.358 270.555 419.358Z" fill="#FD9C00"/>
<path d="M269.167 401.046C269.167 401.801 269.776 402.434 270.555 402.434C271.31 402.434 271.943 401.825 271.943 401.046C271.943 400.267 271.334 399.658 270.555 399.658C269.776 399.658 269.167 400.267 269.167 401.046Z" fill="#FD9C00"/>
<path d="M269.167 423.45C269.167 424.204 269.776 424.838 270.555 424.838C271.31 424.838 271.943 424.229 271.943 423.45C271.943 422.695 271.334 422.062 270.555 422.062C269.776 422.062 269.167 422.695 269.167 423.45Z" fill="#FD9C00"/>
<path d="M281.756 410.859C281.002 410.859 280.368 411.468 280.368 412.247C280.368 413.002 280.977 413.635 281.756 413.635C282.511 413.635 283.144 413.027 283.144 412.247C283.144 411.493 282.511 410.859 281.756 410.859Z" fill="#FD9C00"/>
<path d="M259.329 410.859C258.574 410.859 257.941 411.468 257.941 412.247C257.941 413.002 258.549 413.635 259.329 413.635C260.108 413.635 260.717 413.027 260.717 412.247C260.717 411.493 260.108 410.859 259.329 410.859Z" fill="#FD9C00"/>
<path d="M277.495 403.335C276.959 403.871 276.959 404.748 277.495 405.283C278.031 405.819 278.907 405.819 279.443 405.283C279.979 404.748 279.979 403.871 279.443 403.335C278.907 402.8 278.031 402.8 277.495 403.335Z" fill="#FD9C00"/>
<path d="M261.642 419.188C261.107 419.724 261.107 420.6 261.642 421.136C262.178 421.672 263.055 421.672 263.59 421.136C264.126 420.6 264.126 419.724 263.59 419.188C263.055 418.652 262.178 418.652 261.642 419.188Z" fill="#FD9C00"/>
<path d="M263.59 403.335C264.126 403.871 264.126 404.748 263.59 405.283C263.055 405.819 262.178 405.819 261.642 405.283C261.107 404.748 261.107 403.871 261.642 403.335C262.178 402.8 263.055 402.8 263.59 403.335Z" fill="#FD9C00"/>
<path d="M279.443 419.188C279.979 419.724 279.979 420.6 279.443 421.136C278.907 421.672 278.031 421.672 277.495 421.136C276.959 420.6 276.959 419.724 277.495 419.188C278.031 418.652 278.907 418.652 279.443 419.188Z" fill="#FD9C00"/>
<path d="M422.826 435.029C435.512 422.344 435.512 401.776 422.826 389.09C410.14 376.404 389.572 376.404 376.886 389.09C364.2 401.776 364.2 422.344 376.886 435.029C389.572 447.715 410.14 447.715 422.826 435.029Z" fill="#010C10"/>
<path d="M421.741 433.945C433.828 421.858 433.828 402.261 421.741 390.174C409.655 378.088 390.058 378.088 377.971 390.174C365.884 402.261 365.884 421.858 377.971 433.945C390.058 446.031 409.655 446.031 421.741 433.945Z" fill="#0E1216"/>
<path d="M227.648 364.178C227.745 365.347 228.768 366.224 229.937 366.15C231.106 366.053 231.982 365.03 231.909 363.861C231.812 362.693 230.789 361.816 229.62 361.889C228.451 361.986 227.575 363.009 227.648 364.178Z" fill="#FD9C00"/>
<path d="M228.086 364.154C228.159 365.079 228.963 365.785 229.913 365.712C230.838 365.639 231.544 364.836 231.471 363.886C231.398 362.961 230.594 362.254 229.645 362.327C228.719 362.401 228.013 363.228 228.086 364.154Z" fill="#2C2F31"/>
<path d="M228.598 364.105C228.646 364.762 229.231 365.249 229.888 365.2C230.546 365.152 231.033 364.567 230.984 363.91C230.935 363.252 230.351 362.765 229.693 362.814C229.036 362.863 228.549 363.447 228.598 364.105Z" fill="#7B7F80"/>
<path d="M334.006 419.354L345.841 419.354L345.841 385.481L334.006 385.481L334.006 419.354Z" fill="#FD9C00"/>
<path d="M362.457 383.83H344.583V419.578H362.457V383.83Z" fill="#FBAE40"/>
<path d="M345.849 384.877V418.092H361.142V384.877H358.804V387.507V389.504H348.211V387.507V384.877H345.849ZM358.804 391.963V402.897H348.211V391.963H358.804ZM348.211 415.608V405.332H358.804V415.608H348.211Z" fill="#0E1216"/>
</g>
<defs>
<linearGradient id="paint0_linear_1288_21253" x1="180" y1="-16" x2="180" y2="365" gradientUnits="userSpaceOnUse">
<stop stop-color="#07697D"/>
<stop offset="1" stop-color="#358497"/>
</linearGradient>
<clipPath id="clip0_1288_21253">
<rect width="360" height="474" fill="white"/>
</clipPath>
</defs>
</svg>
