<svg width="220" height="56" viewBox="0 0 220 56" fill="none" xmlns="http://www.w3.org/2000/svg">
<g clip-path="url(#clip0_4_4)">
<path d="M87.6342 37.7125H77.1907L75.6381 40.9938H69.0003V40.0313L80.9189 14.4813H83.8359L95.8061 40.0313V41.0047H89.1682L87.6342 37.7125ZM82.3718 25.1052L79.3848 31.9886H85.44L82.3718 25.1052Z" fill="white"/>
<path d="M111.77 33.2974C111.77 31.4745 109.576 31.0552 106.928 30.9057C101.175 30.4937 97.3918 28.5469 97.3144 22.8594C97.0894 11.5573 117.674 11.5573 117.523 22.8594H111.092C111.092 19.3812 103.974 19.6802 103.749 22.7865C103.598 24.7698 105.564 25.1781 107.95 25.4406C113.212 26.0021 118.375 26.7896 118.375 33.3375C118.375 44.3333 96.8055 44.5229 96.9567 32.9984H103.502C103.484 36.3307 111.77 36.3672 111.77 33.2974Z" fill="white"/>
<path d="M120.407 20.8031V14.8167H140.084V20.8031H133.612V41.0047H126.915V20.8031H120.407Z" fill="white"/>
<path d="M143.138 20.8031V14.8167H162.815V20.8031H156.358V41.0047H149.646V20.8031H143.138Z" fill="white"/>
<path d="M162.339 37.8255C162.339 35.7292 164.002 34.3474 166.123 34.3474C168.166 34.3474 169.811 35.7292 169.811 37.8255C169.811 39.9219 168.147 41.2307 166.123 41.2307C164.002 41.2307 162.339 39.8818 162.339 37.8255Z" fill="#FAB80F"/>
<path d="M188.072 33.2974C188.072 31.4745 185.878 31.0552 183.23 30.9057C177.481 30.4937 173.69 28.5469 173.62 22.8594C173.395 11.5573 193.98 11.5573 193.828 22.8594H187.393C187.393 19.3812 180.28 19.6802 180.055 22.7865C179.9 24.7698 181.869 25.1781 184.255 25.4406C189.514 26.0021 194.658 26.7896 194.658 33.3375C194.658 44.3333 173.089 44.5229 173.244 32.9984H179.789C179.789 36.3307 188.072 36.3672 188.072 33.2974Z" fill="white"/>
<path d="M213.517 32.1781V14.8167H219.985V32.2875C219.985 38.0515 214.955 41.3802 209.505 41.3802C204.054 41.3802 198.984 38.0515 198.984 32.2875V14.8167H205.456V32.1781C205.456 34.3073 207.536 35.3573 209.512 35.3573C211.489 35.3573 213.517 34.3073 213.517 32.1781Z" fill="white"/>
<mask id="mask0_4_4" style="mask-type:alpha" maskUnits="userSpaceOnUse" x="0" y="0" width="56" height="56">
<path d="M0 22.12C0 14.5433 0 10.755 1.42761 7.84085C2.7945 5.05069 5.05069 2.7945 7.84085 1.42761C10.755 0 14.5433 0 22.12 0H33.88C41.4567 0 45.245 0 48.1591 1.42761C50.9493 2.7945 53.2055 5.05069 54.5724 7.84085C56 10.755 56 14.5433 56 22.12V33.88C56 41.4567 56 45.245 54.5724 48.1591C53.2055 50.9493 50.9493 53.2055 48.1591 54.5724C45.245 56 41.4567 56 33.88 56H22.12C14.5433 56 10.755 56 7.84085 54.5724C5.05069 53.2055 2.7945 50.9493 1.42761 48.1591C0 45.245 0 41.4567 0 33.88V22.12Z" fill="#C4C4C4"/>
</mask>
<g mask="url(#mask0_4_4)">
<path d="M0 0V56L28.0612 28L56.1224 0H0Z" fill="#222222"/>
<path d="M0 56H56.1224L28.0612 28L0 56Z" fill="#E4E4E4"/>
<path d="M56.1224 0L28.0612 28L56.1224 56V0Z" fill="#FAB80F"/>
</g>
</g>
<defs>
<clipPath id="clip0_4_4">
<rect width="220" height="56" fill="white"/>
</clipPath>
</defs>
</svg>
