<?xml version="1.0" encoding="UTF-8"?> <svg xmlns="http://www.w3.org/2000/svg" width="373" height="371" viewBox="0 0 373 371" fill="none"> <path d="M177.6 370.2C275.41 370.2 354.7 290.91 354.7 193.1C354.7 95.2904 275.41 16 177.6 16C79.7904 16 0.5 95.2904 0.5 193.1C0.5 290.91 79.7904 370.2 177.6 370.2Z" fill="#F3F5F9"></path> <mask id="mask0_1675_38012" style="mask-type:luminance" maskUnits="userSpaceOnUse" x="0" y="16" width="355" height="355"> <path d="M177.6 370.2C275.41 370.2 354.7 290.91 354.7 193.1C354.7 95.2904 275.41 16 177.6 16C79.7904 16 0.5 95.2904 0.5 193.1C0.5 290.91 79.7904 370.2 177.6 370.2Z" fill="white"></path> </mask> <g mask="url(#mask0_1675_38012)"> <path d="M303.299 0.398219L295.099 3.09822C292.999 3.79822 291.499 5.59822 291.199 7.79822L285.899 44.7982L343.799 178.898L366.999 190.498L310.699 4.29822C309.799 1.09822 306.399 -0.701781 303.299 0.398219Z" fill="#FFAF2D"></path> <path d="M307.6 34.8998C305.3 29.0998 298.7 26.2998 292.9 28.6998L208 63.5998C204.2 65.1998 201.1 68.3998 199.8 72.5998L199.5 73.4998L187.8 112.2L219.9 123.8L227.1 87.9998L302 49.2999C307.4 46.6999 309.8 40.3998 307.6 34.8998Z" fill="#FDCC32"></path> <path d="M208.3 199H92.5V228H208.3V199Z" fill="#4D4D4D"></path> <path d="M231.5 204.798H69.3998C62.9998 204.798 57.7998 199.598 57.7998 193.198V152.698C57.7998 146.298 62.9998 141.098 69.3998 141.098H225.8L236.1 166.998C236.9 169.098 237.3 171.198 237.3 173.498V198.998C237.3 202.198 234.7 204.798 231.5 204.798Z" fill="#FDCC32"></path> <path d="M243.1 280.098H57.7998C41.7998 280.098 28.7998 267.098 28.7998 251.098C28.7998 235.098 41.7998 222.098 57.7998 222.098H243.1C259.1 222.098 272.1 235.098 272.1 251.098C272.1 267.098 259.1 280.098 243.1 280.098Z" fill="#131313"></path> <path d="M57.7994 233.797C48.1994 233.797 40.3994 241.597 40.3994 251.197C40.3994 260.797 48.1994 268.597 57.7994 268.597H243.099C252.699 268.597 260.499 260.797 260.499 251.197C260.499 241.597 252.699 233.797 243.099 233.797H57.7994Z" fill="#4D4D4D"></path> <path d="M202.6 256.998H98.3C95.1 256.998 92.5 254.398 92.5 251.198C92.5 247.998 95.1 245.398 98.3 245.398H202.5C205.7 245.398 208.3 247.998 208.3 251.198C208.3 254.398 205.8 256.998 202.6 256.998Z" fill="#9C969E"></path> <path d="M236.6 167.599L221.2 116.299C220.5 113.799 218.2 112.199 215.7 112.199H185.3C182.1 112.199 179.5 114.799 179.5 117.999V159.499C179.5 162.599 180.7 165.499 182.9 167.699L193.5 178.299C195.7 180.499 198.6 181.699 201.7 181.699H237.4V172.699C237.3 170.899 237.1 169.299 236.6 167.599Z" fill="#4D4D4D"></path> <path d="M115.7 170.1H81.0002C77.8002 170.1 75.2002 167.5 75.2002 164.3C75.2002 161.1 77.8002 158.5 81.0002 158.5H115.7C118.9 158.5 121.5 161.1 121.5 164.3C121.5 167.5 118.9 170.1 115.7 170.1Z" fill="#FFAF2D"></path> <path d="M243.1 268.601C252.71 268.601 260.5 260.811 260.5 251.201C260.5 241.591 252.71 233.801 243.1 233.801C233.49 233.801 225.7 241.591 225.7 251.201C225.7 260.811 233.49 268.601 243.1 268.601Z" fill="#9C969E"></path> <path d="M243.1 256.998C246.303 256.998 248.9 254.402 248.9 251.198C248.9 247.995 246.303 245.398 243.1 245.398C239.897 245.398 237.3 247.995 237.3 251.198C237.3 254.402 239.897 256.998 243.1 256.998Z" fill="#FFD164"></path> <path d="M57.7994 268.597C67.4092 268.597 75.1994 260.807 75.1994 251.197C75.1994 241.587 67.4092 233.797 57.7994 233.797C48.1897 233.797 40.3994 241.587 40.3994 251.197C40.3994 260.807 48.1897 268.597 57.7994 268.597Z" fill="#9C969E"></path> <path d="M57.8 256.998C61.0033 256.998 63.6 254.402 63.6 251.198C63.6 247.995 61.0033 245.398 57.8 245.398C54.5967 245.398 52 247.995 52 251.198C52 254.402 54.5967 256.998 57.8 256.998Z" fill="#FFD164"></path> <path d="M231.5 204.799H69.3998C62.9998 204.799 57.7998 199.599 57.7998 193.199H237.3V198.999C237.3 202.199 234.7 204.799 231.5 204.799Z" fill="#EE9D29"></path> <path d="M346.699 173H336.399C333.899 173 331.699 174.6 330.899 177L319.999 209.6C319.199 212 316.999 213.6 314.499 213.6H303.199C299.999 213.6 297.399 216.2 297.399 219.4C297.399 222.6 299.999 225.2 303.199 225.2H346.599C360.999 225.2 372.699 213.5 372.699 199.1C372.799 184.7 361.099 173 346.699 173Z" fill="#EE9D29"></path> <path d="M237.1 170.097C237 169.297 236.8 168.497 236.6 167.697L223.4 123.797H191V159.497L201.6 170.097H237.1Z" fill="#131313"></path> <path d="M283.5 275.898C281.9 280.498 278 284.198 273 285.198L248.9 290.298L164.4 310.598L144.3 311.798L47.0002 300.098L-29.4998 330.798L-44.2998 278.498C-45.8998 278.798 -46.7998 278.898 -46.7998 278.898L-29.3998 340.198L47.0002 309.498L144.3 321.298L164.4 320.098L248.9 299.798L273 294.698C280.7 293.098 285.7 285.398 284 277.698C283.8 277.098 283.7 276.498 283.5 275.898Z" fill="#EABE8D"></path> <path d="M47.0002 300.097L144.3 311.897L164.4 310.697L248.9 290.397L273 285.297C278.1 284.197 281.9 280.497 283.5 275.997C281.2 269.297 274.1 265.197 267 266.697L227.2 275.197C226.3 275.397 225.5 275.697 224.7 275.997C224.7 275.997 203 279.897 184.2 277.697C165.5 275.397 155.9 254.697 155.9 254.697L42.6002 252.297C42.6002 252.297 34.3002 258.897 13.6002 265.797C-4.7998 271.897 -35.3998 277.197 -44.2998 278.697L-29.4998 330.997L47.0002 300.097Z" fill="#F4D0AB"></path> <path d="M116.9 264.9L54.9999 274.6C49.2999 275.5 43.8999 271.5 42.9999 265.8L40.9999 256.7C40.0999 251 48.2999 242.9 53.9999 242.1L111.9 232.4C117.6 231.5 123 235.5 123.9 241.2L125.7 252.9C126.6 258.6 122.7 264 116.9 264.9Z" fill="#F4D0AB"></path> <path d="M167.1 265.597L112.9 261.097C106.3 260.597 101.4 254.697 101.9 248.097L102.3 243.297C102.8 236.697 108.7 231.797 115.3 232.297L169.5 236.797C176.1 237.297 181 243.197 180.5 249.797L180.1 254.597C179.5 261.197 173.6 266.097 167.1 265.597Z" fill="#F4D0AB"></path> </g> <path d="M303.299 0.398219L295.099 3.09822C292.999 3.79822 291.499 5.59822 291.199 7.79822L285.899 44.7982L343.799 178.898L366.999 190.498L310.699 4.29822C309.799 1.09822 306.399 -0.701781 303.299 0.398219Z" fill="#FFAF2D"></path> <path d="M227.2 87.8983L302.1 49.1983C307.4 46.5983 309.9 40.2983 307.6 34.7983C305.3 28.9983 298.7 26.1983 292.9 28.5983L208 63.5983C204.2 65.1983 201.1 68.3983 199.8 72.5983L199.5 73.4983" fill="#FDCC32"></path> <path d="M231.5 204.799H69.3998C62.9998 204.799 57.7998 199.599 57.7998 193.199H237.3V198.999C237.3 202.199 234.7 204.799 231.5 204.799Z" fill="#EE9D29"></path> <path d="M346.699 173H336.399C333.899 173 331.699 174.6 330.899 177L319.999 209.6C319.199 212 316.999 213.6 314.499 213.6H303.199C299.999 213.6 297.399 216.2 297.399 219.4C297.399 222.6 299.999 225.2 303.199 225.2H346.599C360.999 225.2 372.699 213.5 372.699 199.1C372.799 184.7 361.099 173 346.699 173Z" fill="#EE9D29"></path> </svg> 