<?xml version="1.0" encoding="UTF-8"?> <svg xmlns="http://www.w3.org/2000/svg" width="146" height="37" viewBox="0 0 146 37" fill="none"> <path d="M0 0V37L18.7948 18.5L0 0Z" fill="#222222"></path> <path d="M37.5895 0H0L18.7948 18.5L37.5895 0Z" fill="#222222"></path> <path d="M0 37H37.5895L18.7948 18.5L0 37Z" fill="#E4E4E4"></path> <path d="M37.5894 0L18.7947 18.5L37.5894 37V0Z" fill="#FAB80F"></path> <path d="M58.1466 24.9176H51.2219L50.194 27.0913H45.8125V26.4496L53.7239 9.56836H55.6563L63.5912 26.4496V27.0913H59.1979L58.1466 24.9176ZM54.6637 16.5868L52.6785 21.1366H56.7017L54.6637 16.5868Z" fill="#222222"></path> <path d="M74.1748 22.003C74.1748 20.7889 72.7182 20.5172 70.9621 20.4189C67.1444 20.1472 64.6306 18.8638 64.5836 15.1059C64.4309 7.63656 78.0924 7.63656 77.9925 15.1059H73.7226C73.7226 12.7934 69.0239 13.0016 68.8477 15.0539C68.7479 16.3663 70.0576 16.638 71.6375 16.7883C75.1263 17.1583 78.5446 17.6786 78.5446 21.9914C78.5446 29.2584 64.2312 29.3798 64.3311 21.7659H68.6715C68.6715 24.0033 74.1748 24.0264 74.1748 22.003Z" fill="#222222"></path> <path d="M79.8779 13.7434V9.78906H92.9403V13.7434H88.688V27.0923H84.2242V13.7434H79.8779Z" fill="#222222"></path> <path d="M94.9897 13.7434V9.78906H108.07V13.7434H103.776V27.0923H99.3302V13.7434H94.9897Z" fill="#222222"></path> <path d="M107.729 24.9924C107.76 24.3636 108.036 23.7707 108.499 23.3365C108.962 22.9023 109.577 22.6602 110.217 22.6602C110.856 22.6602 111.471 22.9023 111.934 23.3365C112.397 23.7707 112.673 24.3636 112.704 24.9924C112.701 25.3019 112.635 25.6076 112.508 25.8908C112.381 26.174 112.197 26.4287 111.966 26.6393C111.736 26.8499 111.464 27.0119 111.168 27.1154C110.871 27.219 110.557 27.2618 110.243 27.2413C108.833 27.2413 107.729 26.351 107.729 24.9924Z" fill="#FAB80F"></path> <path d="M124.809 22.003C124.809 20.7889 123.353 20.5172 121.596 20.4189C117.779 20.1472 115.271 18.8638 115.218 15.1059C115.065 7.63656 128.727 7.63656 128.627 15.1059H124.357C124.357 12.7934 119.658 13.0016 119.488 15.0539C119.388 16.3663 120.692 16.638 122.272 16.7883C125.766 17.1583 129.179 17.6786 129.179 21.9914C129.179 29.2584 114.866 29.3798 114.965 21.7659H119.312C119.312 24.0033 124.809 24.0264 124.809 22.003Z" fill="#222222"></path> <path d="M141.701 21.2591V9.78906H146V21.3516C146 25.1614 142.658 27.3583 139.04 27.3583C135.422 27.3583 132.062 25.1614 132.062 21.3516V9.78906H136.356V21.2591C136.356 22.6697 137.736 23.3634 139.04 23.3634C140.344 23.3634 141.701 22.6697 141.701 21.2591Z" fill="#222222"></path> </svg> 