<?xml version="1.0" encoding="UTF-8"?> <svg xmlns="http://www.w3.org/2000/svg" width="417" height="284" viewBox="0 0 417 284" fill="none"> <g clip-path="url(#clip0_1833_79853)"> <path d="M417.286 0H0.286133V297H417.286V0Z" fill="black"></path> <path d="M496.286 0H74.2861V297H496.286V0Z" fill="white"></path> <path d="M419.286 -14H-2.71387V134H419.286V-14Z" fill="url(#paint0_linear_1833_79853)"></path> <path d="M107.413 37.7051L138.837 118.865L-12.5127 108.011L-3.98415 41.5566L42.3682 33.8945L66.7697 44.0835L107.413 37.7051Z" fill="#41616C"></path> <path d="M58.6709 88.973L75.1628 121.323L-18 107.843L-11.4485 74.99L19.8273 66.4414L58.6709 88.973Z" fill="#3B5059"></path> <path d="M422.286 128.714L-2.71387 110V437H422.286V128.714Z" fill="#127384"></path> <path d="M379.668 254.53L422.286 220V332H-2.71387V244.348L379.668 254.53Z" fill="#00667B"></path> <path d="M401.786 226C457.291 226 502.286 223.538 502.286 220.5C502.286 217.462 457.291 215 401.786 215C346.282 215 301.286 217.462 301.286 220.5C301.286 223.538 346.282 226 401.786 226Z" fill="#0F6575"></path> <path d="M151.5 222C173.315 222 191 219.538 191 216.5C191 213.462 173.315 211 151.5 211C129.685 211 112 213.462 112 216.5C112 219.538 129.685 222 151.5 222Z" fill="#0F6575"></path> <path d="M512.438 189.355L529.882 188.857L517.465 146.03L479.939 133.887L410.162 137.221H355.366L354.222 178.729H398.143V190.425L512.438 189.355Z" fill="#222222"></path> <path d="M456.845 123.136L451.196 85.0625H404.363L389.905 142.173L409.017 148.867V151.778H458.487V125.027L456.845 123.136Z" fill="#222222"></path> <path d="M406.38 145.56L392.196 140.608L405.709 87.3047H410.909L406.38 145.56Z" fill="#2C909B"></path> <path d="M435.793 129.335H412.003L414.466 87.3047H435.793V129.335Z" fill="#2C909B"></path> <path d="M435.793 87.3047H433.876L412.252 124.93L412.003 129.335H418.946L435.817 98.9507L435.793 87.3047Z" fill="#8EBDC4"></path> <path d="M398.417 142.773L408.147 122.667L409.466 105.695L392.196 140.608L398.417 142.773Z" fill="#8EBDC4"></path> <path d="M407.847 126.57L399.784 143.243L402.496 144.214L407.324 133.762L407.847 126.57Z" fill="#8EBDC4"></path> <path d="M458.512 80.9062H402.944V85.062H458.512V80.9062Z" fill="#FBAE40"></path> <path d="M458.512 80.9062H402.944V82.1755H458.512V80.9062Z" fill="#FFB10D"></path> <path d="M308.458 138.993H344.491V135.684H308.458V138.993Z" fill="#7B7F80"></path> <path d="M308.503 136.622H344.536V135.676H308.503V136.622Z" fill="#C3C5C4"></path> <path d="M376.27 133.414H329.487V141.029H376.27V133.414Z" fill="#FBAE40"></path> <path d="M376.27 133.512H329.487V135.204H376.27V133.512Z" fill="#FFB10D"></path> <path d="M318.538 171.761C318.538 171.761 310.848 168.8 309.629 156.159C308.385 143.517 306.17 139.81 306.17 139.81C306.17 139.81 305 135.181 308.708 134.061C312.416 132.941 313.735 137.968 313.735 137.968C313.735 137.968 317.094 153.969 327.969 152.849C327.944 152.824 320.006 163.102 318.538 171.761Z" fill="#FBAE40"></path> <path d="M386.546 132.219L347.975 139.684C347.975 139.684 329.71 139.435 318.661 158.198C318.661 158.198 302.834 191.195 296.663 196.272V201.423C296.663 201.423 321.075 190.897 325.703 178.803C330.332 166.709 350.912 151.28 350.912 151.28C350.912 151.28 364.847 144.263 386.571 139.112V132.219H386.546Z" fill="#FFAF2D"></path> <path d="M322.992 177.114C327.62 165.02 348.2 149.592 348.2 149.592C348.2 149.592 362.135 142.574 383.86 137.423L386.522 137V139.065C364.798 144.217 350.863 151.234 350.863 151.234C350.863 151.234 330.283 166.663 325.655 178.756C321.026 190.85 296.614 201.401 296.614 201.401V198.515C303.084 195.404 319.309 186.744 322.992 177.114Z" fill="#EB8A00"></path> <path d="M318.638 158.175C329.711 139.412 347.952 139.661 347.952 139.661L386.523 132.195V133.813L349.32 141.004C349.32 141.004 331.055 140.756 320.006 159.519C320.006 159.519 304.18 192.516 298.008 197.592V200.753C297.137 201.151 296.64 201.375 296.64 201.375V196.224C302.811 191.197 318.638 158.175 318.638 158.175Z" fill="#FFBA55"></path> <path d="M268.393 148.344L285.887 163.15C285.887 163.15 300.295 163.822 299.773 171.785C299.25 179.748 299.25 199.805 294.622 207.022C289.993 214.213 280.736 211.65 280.736 211.65L238.034 202.866L245.748 193.36L268.916 153.271L268.393 148.344Z" fill="#2C2F31"></path> <path d="M413.294 194.905H390.923L389.131 179.352L373.827 146.952L358.474 146.455C358.474 146.455 370.592 140.134 374.698 129.334L386.519 127.891V147.997C386.519 147.997 385.598 153.472 390.052 157.255L402.221 158.374V169.946H411.478V175.868H402.569V186.071H413.245V194.905H413.294Z" fill="#EB8A00"></path> <path d="M386.545 127.891L386.47 149.739C386.47 149.739 386.246 153.945 390.078 157.255L404.188 168.378V180.97H391.074L372.385 146.878L359.595 146.504C359.595 146.504 365.691 141.776 367.607 139.586C369.474 137.471 374.675 129.309 374.675 129.309L386.545 127.891Z" fill="#FFAF2D"></path> <path d="M390.552 181.938L374.675 152.375C374.675 152.375 370.719 148.368 365.816 147.746L348.073 145.83C348.073 145.83 345.062 144.337 348.073 143.939C351.085 143.541 371.988 143.939 371.988 143.939C371.988 143.939 375.521 144.884 378.632 149.911C381.742 154.938 391.796 180.021 391.796 180.021C391.796 180.021 393.214 183.978 390.552 181.938Z" fill="#FBAE40"></path> <path d="M347.326 143.941C347.699 144.364 348.446 144.713 348.446 144.713L366.188 146.629C366.885 146.728 372.683 148.421 375.047 151.257L390.924 180.82C391.546 181.293 391.944 181.443 392.193 181.393C392.267 182.239 392.044 182.886 390.575 181.791L374.699 152.228C374.699 152.228 370.742 148.222 365.84 147.599L348.097 145.683C348.072 145.683 345.658 144.489 347.326 143.941Z" fill="#FFBA55"></path> <path d="M391.073 180.944C391.073 180.944 381.045 155.86 377.909 150.833C374.799 145.806 371.265 144.861 371.265 144.861C371.265 144.861 350.387 144.463 347.351 144.861C347.177 144.886 347.003 144.911 346.853 144.936C346.555 144.537 346.654 144.114 348.048 143.915C351.059 143.517 371.962 143.915 371.962 143.915C371.962 143.915 375.495 144.861 378.606 149.888C381.717 154.914 391.77 179.998 391.77 179.998C391.77 179.998 392.815 182.91 391.422 182.437C391.372 181.765 391.073 180.944 391.073 180.944Z" fill="#FFBA55"></path> <path d="M373.352 122.054H378.628V117.898H373.352V122.054Z" fill="#BDA992"></path> <path d="M382.313 133.762H377.386V138.689H382.313V133.762Z" fill="#222222"></path> <path d="M381.093 116.992H378.63V136.228H381.093V116.992Z" fill="#222222"></path> <path d="M382.763 115.82H373.356V117.886H382.763V115.82Z" fill="#222222"></path> <path d="M379.851 122.066H373.356V124.032H379.851V122.066Z" fill="#222222"></path> <path d="M540.185 183.331L534.014 139.086C534.014 139.086 495.94 121.593 456.846 123.135L456.772 148.742L408.993 148.866V156.58H459.932C463.018 138.066 513.957 120.572 522.343 183.53L540.185 183.331Z" fill="#FBAE40"></path> <path d="M463.962 148.867H409.016V150.659H463.962V148.867Z" fill="#FFB10D"></path> <path d="M374.474 210.703C387.438 197.74 387.438 176.721 374.474 163.757C361.511 150.794 340.492 150.794 327.529 163.757C314.565 176.721 314.565 197.74 327.529 210.703C340.492 223.667 361.511 223.667 374.474 210.703Z" fill="#010C10"></path> <path d="M350.338 157.901C348.721 157.926 347.153 158.1 345.61 158.374L344.64 153.522C346.481 153.173 348.397 152.974 350.338 152.949V157.901Z" fill="#222222"></path> <path d="M367.435 162.928C366.141 162.057 364.772 161.286 363.329 160.614L365.22 156.035C366.962 156.831 368.605 157.752 370.172 158.822L367.435 162.928Z" fill="#222222"></path> <path d="M356.362 158.374C354.819 158.1 353.251 157.926 351.634 157.901V152.949C353.575 152.974 355.466 153.173 357.307 153.522L356.362 158.374Z" fill="#222222"></path> <path d="M362.159 160.093C360.716 159.495 359.198 159.023 357.655 158.649L358.626 153.797C360.492 154.22 362.309 154.792 364.075 155.514L362.159 160.093Z" fill="#222222"></path> <path d="M379.852 168.648L375.721 171.41C374.875 170.116 373.954 168.872 372.909 167.727L376.418 164.219C377.687 165.587 378.832 167.08 379.852 168.648Z" fill="#222222"></path> <path d="M379.926 182.288C379.677 180.77 379.304 179.302 378.831 177.883L383.41 175.992C384.007 177.709 384.48 179.501 384.803 181.318L379.926 182.288Z" fill="#222222"></path> <path d="M378.384 176.666C377.837 175.223 377.165 173.855 376.393 172.536L380.524 169.773C381.47 171.366 382.291 173.033 382.963 174.775L378.384 176.666Z" fill="#222222"></path> <path d="M325.604 172.512C324.832 173.831 324.16 175.225 323.613 176.643L319.034 174.752C319.706 173.01 320.527 171.343 321.473 169.75L325.604 172.512Z" fill="#222222"></path> <path d="M374.326 205.086L378.457 207.848C377.412 209.242 376.242 210.561 374.998 211.78L371.489 208.271C372.509 207.276 373.455 206.206 374.326 205.086Z" fill="#222222"></path> <path d="M327.667 205.086C328.538 206.231 329.483 207.301 330.504 208.296L326.995 211.805C325.751 210.585 324.581 209.267 323.536 207.873L327.667 205.086Z" fill="#222222"></path> <path d="M380.35 187.238C380.35 185.994 380.275 184.774 380.126 183.58L385.003 182.609C385.202 184.127 385.327 185.67 385.327 187.238C385.327 187.512 385.327 187.785 385.327 188.059H380.375C380.35 187.785 380.35 187.512 380.35 187.238Z" fill="#222222"></path> <path d="M336.752 156.008L338.643 160.587C337.2 161.258 335.831 162.03 334.537 162.901L331.8 158.795C333.367 157.75 335.01 156.804 336.752 156.008Z" fill="#222222"></path> <path d="M344.367 158.649C342.824 158.998 341.306 159.495 339.863 160.093L337.972 155.514C339.713 154.792 341.53 154.22 343.421 153.797L344.367 158.649Z" fill="#222222"></path> <path d="M379.626 193.735C379.949 192.317 380.173 190.849 380.273 189.355H385.25C385.15 191.172 384.876 192.964 384.503 194.706L379.626 193.735Z" fill="#222222"></path> <path d="M329.086 167.705C328.066 168.85 327.12 170.094 326.274 171.388L322.143 168.626C323.164 167.058 324.308 165.565 325.553 164.172L329.086 167.705Z" fill="#222222"></path> <path d="M318.586 175.992L323.165 177.883C322.692 179.302 322.319 180.77 322.07 182.288L317.218 181.318C317.516 179.501 317.989 177.709 318.586 175.992Z" fill="#222222"></path> <path d="M321.722 189.355C321.822 190.849 322.046 192.317 322.369 193.735L317.517 194.706C317.144 192.964 316.87 191.172 316.77 189.355H321.722Z" fill="#222222"></path> <path d="M335.93 212.445C337.124 213.167 338.393 213.789 339.687 214.337L337.796 218.915C336.203 218.243 334.66 217.447 333.192 216.551L335.93 212.445Z" fill="#222222"></path> <path d="M324.707 200.305C325.354 201.599 326.1 202.843 326.921 204.012L322.79 206.775C321.795 205.331 320.899 203.813 320.128 202.196L324.707 200.305Z" fill="#222222"></path> <path d="M331.474 209.164C332.52 210.11 333.639 210.956 334.834 211.752L332.072 215.883C330.628 214.912 329.235 213.842 327.966 212.698L331.474 209.164Z" fill="#222222"></path> <path d="M322.691 195.004C323.089 196.422 323.562 197.791 324.159 199.135L319.58 201.026C318.859 199.408 318.286 197.716 317.813 195.974L322.691 195.004Z" fill="#222222"></path> <path d="M372.037 166.763C370.942 165.644 369.772 164.623 368.528 163.678L371.29 159.547C372.808 160.667 374.252 161.911 375.571 163.255L372.037 166.763Z" fill="#222222"></path> <path d="M333.491 163.678C332.247 164.623 331.052 165.644 329.982 166.763L326.474 163.255C327.792 161.911 329.211 160.667 330.754 159.547L333.491 163.678Z" fill="#222222"></path> <path d="M316.993 182.609L321.87 183.58C321.721 184.774 321.646 185.994 321.646 187.238C321.646 187.512 321.646 187.785 321.646 188.059H316.694C316.694 187.785 316.694 187.512 316.694 187.238C316.694 185.67 316.794 184.127 316.993 182.609Z" fill="#222222"></path> <path d="M367.184 211.752C368.354 210.981 369.499 210.11 370.544 209.164L374.053 212.673C372.759 213.842 371.39 214.912 369.947 215.858L367.184 211.752Z" fill="#222222"></path> <path d="M377.86 199.135C378.457 197.816 378.93 196.422 379.328 195.004L384.206 195.974C383.758 197.716 383.161 199.408 382.439 201.026L377.86 199.135Z" fill="#222222"></path> <path d="M340.882 214.812C342.176 215.285 343.52 215.684 344.914 215.958L343.943 220.811C342.251 220.462 340.584 219.965 338.991 219.367L340.882 214.812Z" fill="#222222"></path> <path d="M375.098 204.012C375.92 202.843 376.666 201.599 377.313 200.305L381.892 202.196C381.121 203.789 380.225 205.331 379.229 206.775L375.098 204.012Z" fill="#222222"></path> <path d="M362.307 214.337C363.601 213.789 364.871 213.167 366.065 212.445L368.827 216.576C367.359 217.472 365.816 218.268 364.224 218.94L362.307 214.337Z" fill="#222222"></path> <path d="M357.083 215.981C358.452 215.682 359.795 215.309 361.114 214.836L363.005 219.415C361.413 220.012 359.746 220.485 358.053 220.858L357.083 215.981Z" fill="#222222"></path> <path d="M346.182 216.203C347.551 216.427 348.92 216.552 350.338 216.576V221.528C348.596 221.504 346.879 221.329 345.212 221.056L346.182 216.203Z" fill="#222222"></path> <path d="M351.657 216.608C353.076 216.583 354.444 216.433 355.813 216.234L356.783 221.087C355.116 221.361 353.399 221.535 351.657 221.56V216.608Z" fill="#222222"></path> <path d="M373.366 209.595C385.717 197.243 385.717 177.218 373.366 164.866C361.014 152.514 340.988 152.514 328.637 164.866C316.285 177.218 316.285 197.243 328.637 209.595C340.988 221.946 361.014 221.946 373.366 209.595Z" fill="#222222"></path> <path d="M351.01 206.078C361.414 206.078 369.848 197.644 369.848 187.24C369.848 176.836 361.414 168.402 351.01 168.402C340.607 168.402 332.173 176.836 332.173 187.24C332.173 197.644 340.607 206.078 351.01 206.078Z" fill="#EB8A00"></path> <path d="M351.011 202.891C359.655 202.891 366.663 195.883 366.663 187.238C366.663 178.594 359.655 171.586 351.011 171.586C342.366 171.586 335.358 178.594 335.358 187.238C335.358 195.883 342.366 202.891 351.011 202.891Z" fill="#FBAE40"></path> <path d="M351.009 194.704C355.132 194.704 358.475 191.362 358.475 187.239C358.475 183.116 355.132 179.773 351.009 179.773C346.886 179.773 343.544 183.116 343.544 187.239C343.544 191.362 346.886 194.704 351.009 194.704Z" fill="#EB8A00"></path> <path d="M349.593 175.993C349.593 176.764 350.215 177.411 351.011 177.411C351.782 177.411 352.429 176.789 352.429 175.993C352.429 175.196 351.807 174.574 351.011 174.574C350.215 174.574 349.593 175.196 349.593 175.993Z" fill="#EB8A00"></path> <path d="M349.593 198.883C349.593 199.655 350.215 200.302 351.011 200.302C351.782 200.302 352.429 199.68 352.429 198.883C352.429 198.112 351.807 197.465 351.011 197.465C350.215 197.465 349.593 198.112 349.593 198.883Z" fill="#EB8A00"></path> <path d="M362.456 186.02C361.685 186.02 361.038 186.642 361.038 187.438C361.038 188.209 361.66 188.856 362.456 188.856C363.228 188.856 363.875 188.234 363.875 187.438C363.875 186.667 363.228 186.02 362.456 186.02Z" fill="#EB8A00"></path> <path d="M339.538 186.02C338.767 186.02 338.12 186.642 338.12 187.438C338.12 188.209 338.742 188.856 339.538 188.856C340.335 188.856 340.957 188.234 340.957 187.438C340.957 186.667 340.335 186.02 339.538 186.02Z" fill="#EB8A00"></path> <path d="M358.103 178.329C357.555 178.876 357.555 179.772 358.103 180.319C358.65 180.867 359.546 180.867 360.094 180.319C360.641 179.772 360.641 178.876 360.094 178.329C359.546 177.781 358.65 177.781 358.103 178.329Z" fill="#EB8A00"></path> <path d="M341.902 194.532C341.354 195.079 341.354 195.975 341.902 196.522C342.449 197.07 343.345 197.07 343.892 196.522C344.44 195.975 344.44 195.079 343.892 194.532C343.345 193.984 342.449 193.984 341.902 194.532Z" fill="#EB8A00"></path> <path d="M343.892 178.329C344.44 178.876 344.44 179.772 343.892 180.319C343.345 180.867 342.449 180.867 341.902 180.319C341.354 179.772 341.354 178.876 341.902 178.329C342.449 177.781 343.345 177.781 343.892 178.329Z" fill="#EB8A00"></path> <path d="M360.094 194.532C360.641 195.079 360.641 195.975 360.094 196.522C359.546 197.07 358.65 197.07 358.103 196.522C357.555 195.975 357.555 195.079 358.103 194.532C358.65 193.984 359.546 193.984 360.094 194.532Z" fill="#EB8A00"></path> <path d="M307.163 138.316C307.263 139.511 308.308 140.406 309.503 140.332C310.697 140.232 311.593 139.187 311.518 137.993C311.419 136.798 310.374 135.902 309.179 135.977C307.985 136.077 307.089 137.122 307.163 138.316Z" fill="#EB8A00"></path> <path d="M307.612 138.29C307.686 139.235 308.507 139.957 309.478 139.882C310.424 139.808 311.145 138.986 311.071 138.016C310.996 137.07 310.175 136.349 309.204 136.423C308.259 136.498 307.537 137.344 307.612 138.29Z" fill="#2C2F31"></path> <path d="M308.133 138.244C308.183 138.916 308.78 139.414 309.452 139.364C310.124 139.314 310.622 138.717 310.572 138.045C310.522 137.373 309.925 136.876 309.253 136.925C308.581 136.975 308.083 137.572 308.133 138.244Z" fill="#7B7F80"></path> <path d="M415.852 194.704H427.946V160.09H415.852V194.704Z" fill="#EB8A00"></path> <g clip-path="url(#clip1_1833_79853)"> <path d="M171.021 120.525C173.978 116.452 177.377 112.707 181.156 109.357C178.355 106.465 175.375 103.748 172.232 101.221C162.194 93.3393 150.117 92.7969 139.528 92.7969C128.94 92.7969 124.245 98.349 120.003 101.316C115.6 104.412 113.625 105.114 111.229 105.688C110.775 105.784 110.29 105.911 109.771 105.975C111.553 111.331 112.46 116.931 112.459 122.568C114.244 122.566 116.021 122.319 117.737 121.834C117.737 121.834 116.668 127.003 115.276 137.948C113.884 148.892 116.118 165.74 116.118 165.74L132.567 168.165L179.515 161.344C179.515 161.344 177.866 142.159 175.502 133.129C174.499 129.237 171.358 121.578 170.969 120.589" fill="#FFAF2D"></path> <path d="M180.023 169.05C180.023 169.05 177.886 142.955 175.522 133.925C174.518 130.032 171.377 122.374 170.989 121.385C170.989 121.385 166.229 110.791 164.319 107.696C162.408 104.601 157.681 97.6445 157.681 97.6445L147.769 102.495C147.769 102.495 157.519 122.15 157.875 131.276C158.523 146.911 147.769 167.907 147.769 167.907" fill="#EE9D29"></path> <path d="M139.906 71.5078C139.906 71.5078 140.035 74.7306 140.035 76.4217C140.035 78.1129 138.74 79.6445 138.74 79.6445C138.74 79.6445 137.801 82.3248 138.935 84.8456C140.068 87.3664 141.59 87.494 141.59 87.494L144.86 84.6861L148.422 86.09H148.551V71.5078H139.906Z" fill="#F4D0AB"></path> <path d="M158.428 79.6445C158.428 79.6445 157.132 78.1129 157.132 76.4217C157.132 74.7306 157.262 71.5078 157.262 71.5078H148.552V86.09H148.714L152.275 84.6861L155.546 87.494C155.546 87.494 157.618 87.2069 158.751 84.6861C159.885 82.1653 158.428 79.6445 158.428 79.6445Z" fill="#EABE8D"></path> <path d="M154.282 75.3373L152.437 75.082H151.349C151.117 75.082 150.895 75.1728 150.731 75.3344C150.567 75.4959 150.475 75.7151 150.475 75.9436C150.475 76.1721 150.567 76.3912 150.731 76.5528C150.895 76.7143 151.117 76.8051 151.349 76.8051H152.288L154.069 77.0285C154.181 77.0431 154.296 77.0358 154.406 77.0068C154.516 76.9779 154.618 76.9279 154.709 76.8598C154.799 76.7916 154.875 76.7066 154.931 76.6096C154.988 76.5127 155.025 76.4056 155.04 76.2946C155.055 76.1835 155.048 76.0707 155.018 75.9625C154.989 75.8543 154.938 75.7528 154.869 75.6639C154.8 75.575 154.714 75.5004 154.615 75.4444C154.517 75.3884 154.408 75.352 154.295 75.3373H154.282Z" fill="#262626"></path> <path d="M142.691 75.3373L144.536 75.082H145.637C145.869 75.082 146.091 75.1728 146.255 75.3344C146.419 75.4959 146.511 75.7151 146.511 75.9436C146.511 76.1721 146.419 76.3912 146.255 76.5528C146.091 76.7143 145.869 76.8051 145.637 76.8051H144.698L142.917 77.0285C142.682 77.0557 142.444 76.9907 142.257 76.8476C142.069 76.7044 141.946 76.4944 141.913 76.2627C141.897 76.0394 141.969 75.8185 142.113 75.6461C142.258 75.4737 142.465 75.363 142.691 75.3373Z" fill="#262626"></path> <path d="M104.288 106.174C101.406 105.855 95.513 103.558 92.6312 101.452C89.7494 99.3456 88.6938 97.0163 89.1989 96.1866C89.3481 95.9318 89.4346 95.6461 89.4514 95.3524C89.4683 95.0587 89.4151 94.7652 89.2961 94.4955C89.2961 94.4955 87.4828 91.5599 87.0619 91.2408C86.6409 90.9217 85.2486 92.2938 85.2486 92.2938C85.2486 92.2938 83.1116 90.5069 82.2697 90.7303C81.4278 90.9536 78.0927 92.7086 78.0927 92.7086L77.0371 96.7291L81.635 101.579L84.4197 101.803C84.4197 101.803 89.1148 114.024 99.3791 119.384C103.397 121.557 107.91 122.688 112.493 122.671C112.494 117.035 111.587 111.434 109.805 106.078C107.978 106.341 106.124 106.373 104.288 106.174Z" fill="#F4D0AB"></path> <path d="M197.961 131.575L197.217 130.937C197.217 130.937 195.5 127.459 193.493 124.204C192.101 121.97 187.308 115.653 181.189 109.398C177.427 112.765 174.03 116.508 171.054 120.566C171.669 120.758 175.328 121.97 180.671 124.97C184.149 126.882 187.174 129.504 189.543 132.66L188.377 134.67L189.543 140.669L194.561 143.285L201.07 138.754L197.961 131.575Z" fill="#F4D0AB"></path> <path d="M181.967 108.556C179.167 105.664 176.186 102.946 173.043 100.419C167.604 96.1433 161.549 94.0055 155.429 92.9844C155.235 93.4949 155.04 94.0055 154.878 94.516C154.652 95.218 154.975 94.867 155.235 95.6009C160.901 97.4835 156.56 104.142 161.255 107.779C164.59 110.364 168.354 118.649 170.588 121.17C171.948 119.766 180.543 109.832 181.967 108.556Z" fill="#EE9D29"></path> <path d="M81.525 105.393L75.729 96.395L65.9503 91.832C65.7666 91.9011 65.6086 92.0235 65.497 92.183L61.3848 96.7779L77.1213 110.499L81.2336 105.904C81.3614 105.752 81.4602 105.579 81.525 105.393Z" fill="#4D4D4D"></path> <path d="M77.1222 110.471L81.2344 105.876C81.3623 105.725 81.461 105.552 81.5258 105.365L75.7299 96.3672L69.2539 103.579L77.1222 110.471Z" fill="#606060"></path> <path d="M118.276 84.8469L112.512 79.8373C112.868 79.4863 113.224 79.1672 113.548 78.7843C113.678 78.6398 113.778 78.4715 113.842 78.289C113.905 78.1066 113.932 77.9135 113.92 77.7208C113.908 77.5282 113.857 77.3397 113.771 77.1663C113.685 76.9929 113.566 76.8379 113.419 76.7103L90.9147 57.1184C90.7681 56.9904 90.5973 56.8921 90.4122 56.8293C90.227 56.7664 90.031 56.7401 89.8355 56.752C89.64 56.7638 89.4488 56.8136 89.2729 56.8983C89.0969 56.9831 88.9396 57.1013 88.81 57.246C88.4539 57.6289 88.1948 58.0118 87.871 58.3947L82.1398 53.3851C81.9919 53.2533 81.8188 53.152 81.6306 53.0871C81.4425 53.0221 81.2431 52.9947 81.0441 53.0066C80.8451 53.0185 80.6505 53.0694 80.4717 53.1563C80.2929 53.2432 80.1335 53.3643 80.0028 53.5127L77.4771 56.3206C71.9402 62.5109 72.4583 71.924 78.3514 77.6356C78.06 80.5074 78.4485 83.1558 79.5171 85.3894C76.0032 88.8441 71.4339 91.0641 66.5133 91.7073C66.3215 91.7002 66.1314 91.7443 65.9629 91.8349L81.5376 105.396C81.6086 105.213 81.6309 105.015 81.6023 104.822C81.5376 103.386 81.7642 96.9403 86.3621 91.2925C88.7582 92.0902 91.4781 92.1221 94.3276 91.4839C100.804 96.5574 110.356 95.9192 115.892 89.729L118.418 86.921C118.548 86.7765 118.648 86.6082 118.711 86.4257C118.775 86.2433 118.802 86.0502 118.79 85.8575C118.778 85.6649 118.727 85.4764 118.641 85.303C118.555 85.1296 118.435 84.9746 118.289 84.8469H118.276ZM79.7437 58.2671L81.2656 56.5759L85.993 60.6921C83.027 64.6169 80.3266 69.1798 79.0637 73.9661C75.6639 69.3075 75.7286 62.7343 79.7437 58.2671ZM113.645 87.7825C109.63 92.2497 103.025 93.1432 97.9411 90.399C102.571 88.5803 106.846 85.4213 110.44 81.9752L115.167 86.0914L113.645 87.7825Z" fill="#FFBA55"></path> <path d="M118.277 84.8474L112.513 79.8377C112.87 79.4867 113.226 79.1676 113.55 78.7847C113.679 78.6403 113.779 78.472 113.843 78.2895C113.907 78.107 113.933 77.9139 113.921 77.7212C113.909 77.5286 113.859 77.3401 113.773 77.1667C113.687 76.9933 113.567 76.8384 113.42 76.7107L102.184 66.8828L73.7549 98.6319L81.526 105.397C81.5971 105.214 81.6194 105.016 81.5908 104.822C81.526 103.386 81.7527 96.9407 86.3506 91.2929C88.7467 92.0906 91.4666 92.1225 94.316 91.4844C100.792 96.5578 110.344 95.9196 115.881 89.7294L118.407 86.9214C118.536 86.7769 118.636 86.6086 118.7 86.4262C118.764 86.2437 118.79 86.0506 118.778 85.8579C118.766 85.6653 118.716 85.4768 118.63 85.3034C118.544 85.13 118.424 84.975 118.277 84.8474ZM113.647 87.783C109.632 92.2502 103.026 93.1436 97.9426 90.3995C102.573 88.5807 106.847 85.4217 110.441 81.9756L115.169 86.0918L113.647 87.783Z" fill="#FFAF2D"></path> <path d="M91.3356 82.5458L90.3642 80.0569L87.7415 79.4188C87.4711 79.3511 87.2252 79.2109 87.0308 79.0137C86.8365 78.8166 86.7014 78.5702 86.6405 78.302C86.5757 78.0341 86.59 77.7535 86.6818 77.4934C86.7736 77.2333 86.9391 77.0045 87.1586 76.8342L89.2633 75.143L89.069 72.4946C89.0535 72.2199 89.1152 71.9463 89.2475 71.7039C89.3797 71.4616 89.5773 71.26 89.8185 71.1214C90.0597 70.9828 90.335 70.9125 90.6142 70.9183C90.8933 70.9241 91.1654 71.0059 91.4004 71.1544L93.667 72.5903L96.1602 71.6012C97.2287 71.1863 98.4592 72.2712 98.1677 73.3561L97.4878 75.9407L99.2363 77.9829C99.4141 78.1936 99.5292 78.4488 99.5686 78.7201C99.608 78.9914 99.5702 79.2681 99.4594 79.5195C99.3487 79.7709 99.1693 79.9871 98.9412 80.1439C98.7132 80.3008 98.4454 80.3922 98.1677 80.4079L95.4802 80.5675L94.0555 82.833C93.9059 83.0673 93.694 83.2566 93.4428 83.3804C93.1916 83.5042 92.9107 83.5576 92.6308 83.535C92.3451 83.4985 92.0745 83.3877 91.8468 83.2138C91.6192 83.0399 91.4427 82.8093 91.3356 82.5458Z" fill="#FF9100"></path> <path d="M91.3368 82.5488C91.4339 82.8068 91.6049 83.0316 91.829 83.1958C92.0532 83.3601 92.3208 83.4567 92.5996 83.4741C92.8795 83.4968 93.1604 83.4433 93.4116 83.3195C93.6628 83.1957 93.8747 83.0064 94.0243 82.7721L95.449 80.5066L98.1365 80.3471C98.4142 80.3313 98.6819 80.2399 98.91 80.083C99.1381 79.9262 99.3175 79.71 99.4282 79.4586C99.539 79.2073 99.5768 78.9305 99.5374 78.6592C99.498 78.3879 99.3829 78.1327 99.2051 77.922L97.4566 75.8799L98.1365 73.2953C98.1993 73.0351 98.1871 72.7628 98.1013 72.5091C98.0154 72.2554 97.8594 72.0304 97.6508 71.8594L90.333 79.9961L91.3368 82.5488Z" fill="#FF9100"></path> <path d="M77.2517 112.573L59.2486 96.9061C58.9523 96.648 58.7722 96.2845 58.7479 95.8955C58.7236 95.5066 58.8571 95.124 59.1191 94.8321C59.381 94.5401 59.7499 94.3627 60.1446 94.3387C60.5393 94.3148 60.9275 94.4463 61.2238 94.7044L79.2593 110.34C79.5398 110.607 79.7048 110.971 79.7198 111.355C79.7349 111.74 79.5988 112.115 79.34 112.403C79.0812 112.691 78.7196 112.869 78.3305 112.901C77.9415 112.933 77.5551 112.815 77.2517 112.573Z" fill="#262626"></path> <path d="M79.259 110.342L70.2574 102.492L68.2822 104.694L77.2838 112.543C77.4305 112.671 77.6013 112.769 77.7865 112.832C77.9716 112.895 78.1675 112.921 78.363 112.909C78.5584 112.897 78.7496 112.848 78.9255 112.763C79.1015 112.678 79.2588 112.56 79.3885 112.416C79.5182 112.271 79.6177 112.103 79.6814 111.92C79.7451 111.738 79.7716 111.545 79.7596 111.352C79.7476 111.16 79.6972 110.971 79.6113 110.798C79.5254 110.625 79.4057 110.47 79.259 110.342Z" fill="#262626"></path> <path d="M148.875 104.917C148.875 104.917 143.889 104.502 141.46 103.513C139.032 102.524 138.481 101.534 138.481 101.534C138.481 101.534 136.927 97.6097 134.79 94.8018C133.526 93.1663 132.602 91.3013 132.07 89.3135C132.07 89.3135 135.503 86.7927 136.053 82.4212C136.603 78.0497 136.636 78.2093 136.636 78.2093C136.636 78.2093 138.19 77.3797 138.773 75.1141C139.079 73.8811 139.457 72.6665 139.906 71.4766C139.906 71.4766 140.036 74.6993 140.036 76.3905C140.036 78.0816 138.741 79.6133 138.741 79.6133C138.53 81.1909 138.777 82.795 139.453 84.24C140.586 86.7608 141.59 87.4628 141.59 87.4628L144.86 84.6548L148.422 86.0588H148.713L152.275 84.6548L155.559 87.4628C155.559 87.4628 156.562 86.7608 157.696 84.24C158.372 82.795 158.619 81.1909 158.408 79.6133C158.408 79.6133 157.113 78.0816 157.113 76.3905C157.113 74.6993 157.242 71.4766 157.242 71.4766C157.703 72.6624 158.082 73.8778 158.376 75.1141C158.647 76.3828 159.415 77.4949 160.513 78.2093C160.513 78.2093 160.513 78.0816 161.096 82.4212C161.678 86.7608 165.078 89.3135 165.078 89.3135C164.547 91.3013 163.622 93.1663 162.358 94.8018C160.221 97.6097 158.667 101.534 158.667 101.534C158.667 101.534 158.084 102.524 155.688 103.513C153.292 104.502 148.273 104.917 148.273 104.917" fill="#262626"></path> <path d="M157.586 72.0508C157.586 72.8485 153.992 73.5186 149.588 73.5186H147.581C143.177 73.5186 139.583 72.8485 139.583 72.0508H157.586Z" fill="#EE9D29"></path> <path d="M158.201 72.0531H139C138.914 72.0531 138.831 72.0195 138.771 71.9597C138.71 71.8998 138.676 71.8187 138.676 71.734V70.7449C138.676 70.6602 138.71 70.5791 138.771 70.5192C138.831 70.4594 138.914 70.4258 139 70.4258H158.201C158.287 70.4258 158.369 70.4594 158.43 70.5192C158.49 70.5791 158.525 70.6602 158.525 70.7449V71.734C158.519 71.8169 158.483 71.8951 158.424 71.9538C158.364 72.0125 158.285 72.0479 158.201 72.0531Z" fill="#FFBA55"></path> <path d="M139.614 70.428V69.1197C139.619 67.0307 140.463 65.0285 141.961 63.5514C143.46 62.0742 145.492 61.2425 147.612 61.2383H149.62C151.739 61.2425 153.771 62.0742 155.27 63.5514C156.769 65.0285 157.613 67.0307 157.617 69.1197V70.428H139.614Z" fill="#FFAF2D"></path> <path d="M150.591 70.4231V61.712C150.587 61.2478 150.398 60.8039 150.065 60.4757C149.732 60.1474 149.281 59.9612 148.81 59.957H148.357C147.886 59.9612 147.436 60.1474 147.102 60.4757C146.769 60.8039 146.58 61.2478 146.576 61.712V70.4231H150.591Z" fill="#FFBA55"></path> </g> <path d="M134.143 202.324C134.143 202.324 134.769 209.923 134.769 211.399C134.784 212.168 134.722 212.937 134.585 213.694H113.559V211.038C113.559 208.92 114.499 206.691 117.193 206.304C117.773 206.22 119.521 206.082 119.521 206.082C120.77 206.082 121.668 206.746 122.323 207.782C122.523 208.095 122.677 208.434 122.782 208.789C122.782 208.789 125.17 208.442 125.865 207.853L127.465 206.893L128.709 202.986L134.143 202.324Z" fill="#262626"></path> <path d="M118.46 179.583C116.235 169.986 115.808 160.934 115.808 160.934L179.109 161.745C179.109 161.745 178.704 169.986 176.479 179.583C174.253 189.18 167.366 207.018 167.366 207.018L161.713 209.626L148.55 179.792L147.469 179.671L146.389 179.792L134.44 207.54L127.573 206.392C127.573 206.392 120.686 189.18 118.46 179.583Z" fill="#1C7F98"></path> <path d="M158.732 213.671V209.136C158.736 207.761 159.284 206.443 160.256 205.47C161.228 204.498 162.545 203.949 163.92 203.945H166.517C169.37 203.945 172.139 207.166 172.139 210.021V213.675L158.732 213.671Z" fill="#262626"></path> <path d="M172.838 213.438H158.009V216.379H172.838V213.438Z" fill="#3A3A3A"></path> <path d="M178.783 165.806L116.132 164.995C116.132 164.995 115.943 163.638 115.807 162.763C115.671 161.895 115.515 160.531 115.515 160.531L179.514 160.937L178.783 165.806Z" fill="#262626"></path> <path d="M147.587 160.285H145.704C143.983 160.285 142.588 161.451 142.588 162.889V163.362C142.588 164.8 143.983 165.966 145.704 165.966H147.587C149.308 165.966 150.703 164.8 150.703 163.362V162.889C150.703 161.451 149.308 160.285 147.587 160.285Z" stroke="#A0A0A0" stroke-width="1.16436" stroke-miterlimit="10"></path> <path d="M112.564 216.637H135.213V213.695H112.564V216.637Z" fill="#3A3A3A"></path> <path d="M134.143 202.324C134.143 202.324 134.769 209.923 134.769 211.399C134.784 212.168 134.722 212.937 134.585 213.694H113.559V211.038C113.559 208.92 114.499 206.691 117.193 206.304C117.773 206.22 119.521 206.082 119.521 206.082C120.77 206.082 121.668 206.746 122.323 207.782C122.523 208.095 122.677 208.434 122.782 208.789C122.782 208.789 125.17 208.442 125.865 207.853L127.465 206.893L128.709 202.986L134.143 202.324Z" fill="#262626"></path> <path d="M118.46 179.583C116.235 169.986 115.808 160.934 115.808 160.934L179.109 161.745C179.109 161.745 178.704 169.986 176.479 179.583C174.253 189.18 167.366 207.018 167.366 207.018L161.713 209.626L148.55 179.792L147.469 179.671L146.389 179.792L134.44 207.54L127.573 206.392C127.573 206.392 120.686 189.18 118.46 179.583Z" fill="#1C7F98"></path> <path d="M148.549 179.792L147.469 179.671L147.458 161.34L179.109 161.746C179.109 161.746 178.704 169.987 176.478 179.584C174.252 189.181 167.366 207.019 167.366 207.019L161.713 209.627L148.549 179.792Z" fill="#186C81"></path> <path d="M158.732 213.671V209.136C158.736 207.761 159.284 206.443 160.256 205.47C161.228 204.498 162.545 203.949 163.92 203.945H166.517C169.37 203.945 172.139 207.166 172.139 210.021V213.675L158.732 213.671Z" fill="#262626"></path> <path d="M172.838 213.438H158.009V216.379H172.838V213.438Z" fill="#3A3A3A"></path> <path d="M178.783 165.806L116.132 164.995C116.132 164.995 115.943 163.638 115.807 162.763C115.671 161.895 115.515 160.531 115.515 160.531L179.514 160.937L178.783 165.806Z" fill="#262626"></path> <path d="M147.587 160.285H145.704C143.983 160.285 142.588 161.451 142.588 162.889V163.362C142.588 164.8 143.983 165.966 145.704 165.966H147.587C149.308 165.966 150.703 164.8 150.703 163.362V162.889C150.703 161.451 149.308 160.285 147.587 160.285Z" stroke="#A0A0A0" stroke-width="1.16436" stroke-miterlimit="10"></path> <path d="M112.564 216.637H135.213V213.695H112.564V216.637Z" fill="#3A3A3A"></path> </g> <defs> <linearGradient id="paint0_linear_1833_79853" x1="208.286" y1="-14" x2="208.286" y2="134" gradientUnits="userSpaceOnUse"> <stop stop-color="#07697D"></stop> <stop offset="1" stop-color="#358497"></stop> </linearGradient> <clipPath id="clip0_1833_79853"> <rect width="417" height="284" fill="white"></rect> </clipPath> <clipPath id="clip1_1833_79853"> <rect width="142.832" height="108.747" fill="white" transform="translate(59 53)"></rect> </clipPath> </defs> </svg> 