<svg width="23" height="22" viewBox="0 0 23 22" fill="none" xmlns="http://www.w3.org/2000/svg">
    <path d="M13.6494 1.83337H6.45817C5.85038 1.83337 5.26749 2.07482 4.83772 2.50459C4.40795 2.93436 4.1665 3.51725 4.1665 4.12504V20.1667H19.4443V7.62823L13.6494 1.83337ZM14.0971 4.44129L16.8364 7.1806H14.0971V4.44129ZM5.69428 18.6389V4.12504C5.69428 3.92244 5.77476 3.72815 5.91802 3.58489C6.06128 3.44163 6.25558 3.36115 6.45817 3.36115H12.5693V8.70837H17.9165V18.6389H5.69428ZM12.5693 12.5278H14.861V14.0556H12.5693V16.3473H11.0415V14.0556H8.74984V12.5278H11.0415V10.2362H12.5693V12.5278Z"
          fill="currentColor"/>
</svg>
