<svg width="24" height="24" viewBox="0 0 24 24" fill="none" xmlns="http://www.w3.org/2000/svg">
    <circle opacity="0.5" cx="12" cy="12" r="12" fill="white"/>
    <path opacity="0.4" fill-rule="evenodd" clip-rule="evenodd"
          d="M12.0002 8.66659C12.9168 8.66659 13.6668 7.91659 13.6668 6.99992C13.6668 6.08325 12.9168 5.33325 12.0002 5.33325C11.0835 5.33325 10.3335 6.08325 10.3335 6.99992C10.3335 7.91659 11.0835 8.66659 12.0002 8.66659ZM12.0002 10.3333C11.0835 10.3333 10.3335 11.0833 10.3335 11.9999C10.3335 12.9166 11.0835 13.6666 12.0002 13.6666C12.9168 13.6666 13.6668 12.9166 13.6668 11.9999C13.6668 11.0833 12.9168 10.3333 12.0002 10.3333ZM12.0002 15.3333C11.0835 15.3333 10.3335 16.0833 10.3335 16.9999C10.3335 17.9166 11.0835 18.6666 12.0002 18.6666C12.9168 18.6666 13.6668 17.9166 13.6668 16.9999C13.6668 16.0833 12.9168 15.3333 12.0002 15.3333Z"
          fill="#222222"/>
</svg>
