<svg width="127" height="38" viewBox="0 0 127 38" fill="none" xmlns="http://www.w3.org/2000/svg">
<path d="M8.15499 37.998C7.82685 37.998 7.50663 37.9941 7.18106 37.9874C6.50661 37.9793 5.83374 37.9251 5.16796 37.8254C4.54715 37.7267 3.94576 37.5433 3.38362 37.2811C2.82663 37.021 2.31861 36.68 1.87902 36.2712C1.43307 35.8671 1.0618 35.3985 0.779913 34.8839C0.494922 34.3659 0.297691 33.8107 0.195091 33.2376C0.0842922 32.6218 0.0243454 31.9991 0.0157676 31.3749C0.00893929 31.1654 0 30.4679 0 30.4679V7.51947C0 7.51947 0.00952089 6.83262 0.0158215 6.63083C0.0240346 6.00764 0.0836329 5.38594 0.1941 4.77109C0.29689 4.19642 0.494273 3.63961 0.779417 3.11994C1.06027 2.60566 1.42948 2.13669 1.87274 1.7312C2.31551 1.32186 2.82515 0.979111 3.38309 0.715465C3.94394 0.454082 4.5442 0.271929 5.16375 0.175109C5.83171 0.0743431 6.50692 0.0198644 7.18371 0.0121296L8.15552 0H118.839L119.823 0.0126164C120.493 0.0199668 121.162 0.0739595 121.824 0.174135C122.45 0.27217 123.057 0.455594 123.624 0.718376C124.742 1.2497 125.651 2.0903 126.225 3.12236C126.505 3.63845 126.7 4.19072 126.801 4.76042C126.913 5.38031 126.976 6.0069 126.988 6.6352C126.992 6.91653 126.992 7.21873 126.992 7.51947C127 7.892 127 8.24658 127 8.60407V29.3949C127 29.7558 127 30.1079 126.992 30.463C126.992 30.786 126.991 31.082 126.987 31.3866C126.975 32.0036 126.913 32.619 126.803 33.2278C126.703 33.8051 126.507 34.3646 126.222 34.8868C125.938 35.3959 125.569 35.8605 125.128 36.2634C124.688 36.6745 124.179 37.0175 123.621 37.2792C123.055 37.5434 122.449 37.7275 121.824 37.8254C121.158 37.9257 120.486 37.9798 119.811 37.9874C119.496 37.9941 119.165 37.998 118.844 37.998L117.677 38L8.15499 37.998Z" fill="#222222"/>
<path d="M25.9259 19.2909C25.9382 18.339 26.1912 17.4056 26.6613 16.5777C27.1314 15.7497 27.8034 15.0541 28.6148 14.5555C28.0993 13.8197 27.4194 13.2142 26.6288 12.787C25.8383 12.3598 24.9591 12.1228 24.0609 12.0947C22.1449 11.8936 20.2874 13.2407 19.311 13.2407C18.3157 13.2407 16.8125 12.1146 15.1937 12.1479C14.1466 12.1817 13.1262 12.4861 12.2318 13.0313C11.3374 13.5765 10.5995 14.344 10.0901 15.259C7.88343 19.0779 9.52942 24.6903 11.6432 27.7772C12.7008 29.2887 13.9369 30.9771 15.5542 30.9173C17.1368 30.8517 17.7279 29.9085 19.6383 29.9085C21.5309 29.9085 22.0855 30.9173 23.7356 30.8792C25.4338 30.8516 26.5038 29.3609 27.5243 27.8351C28.2841 26.758 28.8689 25.5677 29.2568 24.3081C28.2702 23.891 27.4282 23.1928 26.8359 22.3006C26.2436 21.4084 25.9271 20.3616 25.9259 19.2909Z" fill="white"/>
<path d="M22.8093 10.064C23.7352 8.95295 24.1914 7.52485 24.081 6.08301C22.6663 6.23152 21.3596 6.90733 20.4211 7.97578C19.9623 8.49774 19.6109 9.10498 19.3869 9.76278C19.163 10.4206 19.071 11.116 19.1161 11.8094C19.8237 11.8167 20.5237 11.6634 21.1634 11.3611C21.8032 11.0587 22.3659 10.6153 22.8093 10.064Z" fill="white"/>
<path d="M46.5294 25.9393H41.6214L40.4428 29.418H38.364L43.0127 16.5479H45.1725L49.8212 29.418H47.707L46.5294 25.9393ZM42.1298 24.3341H46.0201L44.1023 18.6885H44.0486L42.1298 24.3341Z" fill="white"/>
<path d="M59.8609 24.7267C59.8609 27.6426 58.2995 29.516 55.9432 29.516C55.3464 29.5472 54.7527 29.4098 54.2304 29.1195C53.708 28.8291 53.278 28.3976 52.9896 27.8743H52.945V32.522H51.0181V20.0345H52.8832V21.5952H52.9187C53.2204 21.0744 53.6577 20.6451 54.184 20.353C54.7103 20.0609 55.3061 19.9169 55.9078 19.9363C58.2903 19.9363 59.8609 21.8188 59.8609 24.7267ZM57.8803 24.7267C57.8803 22.8269 56.8981 21.578 55.3995 21.578C53.9272 21.578 52.9369 22.8532 52.9369 24.7267C52.9369 26.6173 53.9272 27.8835 55.3995 27.8835C56.8981 27.8835 57.8803 26.6436 57.8803 24.7267Z" fill="white"/>
<path d="M70.1929 24.7267C70.1929 27.6426 68.6315 29.516 66.2753 29.516C65.6784 29.5472 65.0848 29.4098 64.5624 29.1194C64.04 28.8291 63.61 28.3976 63.3216 27.8743H63.277V32.522H61.3501V20.0345H63.2152V21.5952H63.2507C63.5524 21.0744 63.9896 20.6451 64.516 20.353C65.0423 20.0609 65.6381 19.9169 66.2398 19.9363C68.6224 19.9363 70.1929 21.8188 70.1929 24.7267ZM68.2123 24.7267C68.2123 22.8269 67.2301 21.578 65.7315 21.578C64.2592 21.578 63.2689 22.8532 63.2689 24.7267C63.2689 26.6173 64.2592 27.8835 65.7315 27.8835C67.2301 27.8835 68.2123 26.6436 68.2123 24.7267H68.2123Z" fill="white"/>
<path d="M77.0218 25.832C77.1646 27.1083 78.405 27.9463 80.1 27.9463C81.7242 27.9463 82.8927 27.1083 82.8927 25.9575C82.8927 24.9585 82.188 24.3604 80.5192 23.9505L78.8505 23.5487C76.4862 22.9778 75.3886 21.8726 75.3886 20.0791C75.3886 17.8585 77.3246 16.3333 80.0737 16.3333C82.7945 16.3333 84.6596 17.8585 84.7224 20.0791H82.7772C82.6608 18.7947 81.5986 18.0194 80.0464 18.0194C78.4941 18.0194 77.4319 18.8038 77.4319 19.9455C77.4319 20.8554 78.1103 21.3908 79.7699 21.8007L81.1885 22.1489C83.8303 22.7733 84.9279 23.8341 84.9279 25.7166C84.9279 28.1244 83.0091 29.6325 79.9572 29.6325C77.1018 29.6325 75.1739 28.1598 75.0493 25.832L77.0218 25.832Z" fill="white"/>
<path d="M89.0866 17.8145V20.035H90.8718V21.5603H89.0866V26.7332C89.0866 27.5369 89.4441 27.9114 90.2288 27.9114C90.4407 27.9077 90.6523 27.8928 90.8627 27.8668V29.3829C90.5098 29.4488 90.1512 29.4787 89.7924 29.472C87.8918 29.472 87.1506 28.7585 87.1506 26.9387V21.5603H85.7856V20.035H87.1506V17.8145H89.0866Z" fill="white"/>
<path d="M91.9055 24.7275C91.9055 21.7751 93.6451 19.9199 96.3578 19.9199C99.0796 19.9199 100.811 21.7751 100.811 24.7275C100.811 27.6879 99.0887 29.5351 96.3578 29.5351C93.6278 29.5351 91.9055 27.6879 91.9055 24.7275ZM98.8477 24.7275C98.8477 22.7022 97.9192 21.5069 96.3578 21.5069C94.7964 21.5069 93.8689 22.7113 93.8689 24.7275C93.8689 26.7608 94.7964 27.947 96.3578 27.947C97.9192 27.947 98.8476 26.7608 98.8476 24.7275H98.8477Z" fill="white"/>
<path d="M102.4 20.0344H104.237V21.6315H104.282C104.406 21.1327 104.699 20.6919 105.11 20.3831C105.521 20.0744 106.026 19.9166 106.54 19.9362C106.762 19.9354 106.984 19.9595 107.2 20.0081V21.8096C106.92 21.724 106.628 21.6847 106.335 21.6932C106.055 21.6819 105.775 21.7312 105.516 21.8379C105.257 21.9445 105.024 22.1059 104.834 22.311C104.643 22.5161 104.499 22.76 104.411 23.026C104.324 23.2921 104.295 23.5739 104.327 23.8521V29.4177H102.4L102.4 20.0344Z" fill="white"/>
<path d="M116.085 26.6627C115.825 28.3661 114.166 29.5351 112.042 29.5351C109.311 29.5351 107.616 27.7062 107.616 24.772C107.616 21.8288 109.321 19.9199 111.961 19.9199C114.559 19.9199 116.192 21.7033 116.192 24.5483V25.2082H109.562V25.3246C109.531 25.67 109.574 26.0179 109.688 26.3452C109.803 26.6725 109.985 26.9718 110.224 27.2232C110.463 27.4746 110.753 27.6723 111.074 27.8032C111.395 27.9341 111.74 27.9952 112.087 27.9825C112.542 28.0251 112.999 27.9197 113.39 27.6819C113.78 27.4441 114.084 27.0866 114.255 26.6627L116.085 26.6627ZM109.571 23.8621H114.264C114.281 23.5516 114.234 23.2409 114.126 22.9494C114.017 22.658 113.849 22.3921 113.633 22.1685C113.417 21.9449 113.157 21.7683 112.869 21.65C112.582 21.5316 112.272 21.4739 111.961 21.4806C111.648 21.4787 111.337 21.539 111.046 21.6579C110.756 21.7768 110.492 21.9521 110.27 22.1735C110.047 22.3949 109.871 22.6581 109.751 22.9479C109.631 23.2378 109.57 23.5485 109.571 23.8621V23.8621Z" fill="white"/>
<path d="M40.7605 9.47535H41.5877C41.7301 9.49308 41.8747 9.48112 42.0122 9.44024C42.1498 9.39936 42.2774 9.33044 42.387 9.23783C42.4966 9.14521 42.5858 9.03091 42.649 8.90212C42.7122 8.77334 42.748 8.63286 42.7542 8.48955C42.7542 7.91922 42.3249 7.55081 41.5968 7.55081C41.4509 7.53043 41.3024 7.53948 41.1601 7.57742C41.0177 7.61536 40.8844 7.68143 40.7681 7.77171C40.6517 7.862 40.5546 7.97468 40.4825 8.1031C40.4104 8.23152 40.3648 8.37307 40.3483 8.51941H39.44C39.4557 8.25377 39.5258 7.9942 39.6462 7.75685C39.7665 7.5195 39.9345 7.30946 40.1395 7.13979C40.3446 6.97013 40.5824 6.84448 40.8382 6.77066C41.094 6.69685 41.3622 6.67645 41.6262 6.71075C42.8443 6.71075 43.702 7.3924 43.702 8.37366C43.7049 8.70238 43.5948 9.02214 43.3903 9.27956C43.1857 9.53698 42.899 9.71648 42.578 9.7881V9.86097C42.9586 9.87784 43.3169 10.0446 43.5748 10.3248C43.8327 10.6051 43.969 10.9759 43.9541 11.3564C43.926 11.6299 43.8435 11.895 43.7115 12.1362C43.5795 12.3774 43.4006 12.5899 43.1854 12.7611C42.9702 12.9324 42.7229 13.0589 42.4582 13.1334C42.1934 13.2079 41.9164 13.2288 41.6434 13.1949C41.3699 13.2322 41.0916 13.214 40.8253 13.1415C40.5589 13.069 40.3099 12.9436 40.093 12.7729C39.8762 12.6021 39.6959 12.3894 39.563 12.1476C39.4301 11.9057 39.3474 11.6395 39.3196 11.365H40.242C40.2977 11.9566 40.8415 12.3382 41.6434 12.3382C42.4454 12.3382 42.9689 11.9095 42.9689 11.3053C42.9689 10.6925 42.4758 10.3149 41.6141 10.3149H40.7605V9.47535Z" fill="white"/>
<path d="M45.002 11.7245C45.002 10.8844 45.6287 10.4001 46.7385 10.3313L48.0032 10.2585V9.85563C48.0032 9.36272 47.6782 9.08439 47.0473 9.08439C46.533 9.08439 46.1775 9.27316 46.0743 9.60311H45.1822C45.2764 8.80151 46.0317 8.28735 47.0909 8.28735C48.2614 8.28735 48.9216 8.86982 48.9216 9.85563V13.0443H48.0336V12.3885H47.9607C47.8127 12.6237 47.6049 12.8155 47.3585 12.9442C47.1121 13.073 46.836 13.134 46.5583 13.1212C46.3623 13.1416 46.1642 13.1207 45.9767 13.0598C45.7893 12.999 45.6167 12.8996 45.4701 12.768C45.3235 12.6364 45.206 12.4756 45.1254 12.2958C45.0448 12.1161 45.0027 11.9215 45.002 11.7245ZM48.0032 11.3257V10.9356L46.863 11.0084C46.22 11.0514 45.9284 11.2701 45.9284 11.6815C45.9284 12.1015 46.2929 12.3459 46.7942 12.3459C46.9411 12.3608 47.0894 12.346 47.2305 12.3024C47.3715 12.2587 47.5023 12.1872 47.6151 12.092C47.7279 11.9968 47.8204 11.8799 47.8871 11.7483C47.9537 11.6167 47.9932 11.4729 48.0032 11.3257Z" fill="white"/>
<path d="M51.3667 9.15346V13.0451H50.4453V8.37817H53.5195V9.15341L51.3667 9.15346Z" fill="white"/>
<path d="M59.1038 10.7103C59.1038 12.1931 58.3535 13.1227 57.1748 13.1227C56.8855 13.1425 56.5966 13.0792 56.342 12.9403C56.0875 12.8014 55.8779 12.5928 55.738 12.3388H55.6651V14.5974H54.7437V8.37892H55.6307V9.15018H55.6995C55.8419 8.88739 56.0542 8.66906 56.313 8.51929C56.5717 8.36953 56.8668 8.29416 57.1657 8.30152C58.3535 8.30149 59.1038 9.22706 59.1038 10.7103ZM58.156 10.7103C58.156 9.72453 57.6892 9.12889 56.9085 9.12889C56.133 9.12889 55.6479 9.73717 55.6479 10.7144C55.6479 11.687 56.1329 12.2958 56.9045 12.2958C57.6892 12.2958 58.156 11.7002 58.156 10.7103Z" fill="white"/>
<path d="M60.3317 14.7166V13.9236C60.4314 13.9362 60.5318 13.942 60.6323 13.9408C60.8287 13.9553 61.0234 13.8969 61.1793 13.7767C61.3351 13.6565 61.4411 13.483 61.4768 13.2895L61.5457 13.0623L59.8557 8.37817H60.8592L62.0297 12.0851H62.1026L63.2691 8.37817H64.2462L62.5057 13.2379C62.1067 14.3735 61.6652 14.7378 60.7134 14.7378C60.6364 14.7378 60.4177 14.7292 60.3317 14.7166Z" fill="white"/>
<path d="M64.9639 11.7196H65.8813C65.9714 12.1311 66.3572 12.3456 66.8969 12.3456C67.5105 12.3456 67.8872 12.0754 67.8872 11.6554C67.8872 11.2055 67.549 10.9909 66.8969 10.9909H66.1982V10.2753H66.8847C67.4416 10.2753 67.7251 10.0613 67.7251 9.67111C67.7251 9.32851 67.4507 9.06689 66.8847 9.06689C66.3693 9.06689 65.9926 9.28551 65.9329 9.65392H65.0449C65.1113 9.23059 65.3412 8.85021 65.6853 8.59459C66.0293 8.33898 66.46 8.22855 66.8847 8.28705C67.9945 8.28705 68.6294 8.78856 68.6294 9.577C68.6346 9.79655 68.5642 10.0112 68.43 10.1851C68.2958 10.3591 68.106 10.4817 67.8922 10.5324V10.6053C68.1467 10.6381 68.3803 10.7632 68.5487 10.9567C68.717 11.1503 68.8084 11.3989 68.8056 11.6554C68.8056 12.5426 68.0502 13.1295 66.8969 13.1295C65.8772 13.1295 65.0489 12.6624 64.9639 11.7196Z" fill="white"/>
<path d="M70.1326 13.0451V8.37817H71.0459V11.5881H71.1188L73.2705 8.37818H74.1839V13.0451H73.2705V9.81793H73.2017L71.0459 13.0451L70.1326 13.0451Z" fill="white"/>
<path d="M79.2153 9.15341H77.745V13.045H76.8226V9.15341H75.3523V8.37817H79.2153V9.15341Z" fill="white"/>
<path d="M84.1786 11.7843C84.053 12.2108 83.7816 12.5797 83.4116 12.8265C83.0416 13.0732 82.5967 13.1823 82.1545 13.1345C81.8469 13.1426 81.5412 13.0837 81.2586 12.9619C80.9761 12.8401 80.7234 12.6583 80.5182 12.4291C80.313 12.1999 80.1602 11.9288 80.0703 11.6347C79.9804 11.3405 79.9556 11.0303 79.9977 10.7256C79.9567 10.42 79.9819 10.1092 80.0716 9.81412C80.1613 9.51908 80.3133 9.24674 80.5175 9.01555C80.7216 8.78435 80.973 8.59969 81.2548 8.47407C81.5365 8.34845 81.8419 8.2848 82.1504 8.28743C83.4495 8.28743 84.2343 9.1746 84.2343 10.6401V10.9615H80.9374V11.0131C80.9228 11.1844 80.9442 11.3568 81.0002 11.5194C81.0563 11.6819 81.1457 11.8309 81.2629 11.9568C81.38 12.0828 81.5221 12.1828 81.6802 12.2505C81.8383 12.3182 82.0088 12.3521 82.1808 12.3501C82.4011 12.3764 82.6242 12.3366 82.8218 12.2359C83.0194 12.1352 83.1826 11.978 83.2906 11.7843L84.1786 11.7843ZM80.9373 10.2803H83.2946C83.3062 10.1238 83.285 9.9665 83.2322 9.81864C83.1795 9.67078 83.0964 9.53559 82.9882 9.42174C82.8801 9.30789 82.7493 9.2179 82.6044 9.15756C82.4594 9.09721 82.3034 9.06784 82.1464 9.07133C81.9869 9.06916 81.8287 9.09896 81.681 9.15895C81.5333 9.21895 81.3992 9.30793 81.2865 9.42063C81.1737 9.53334 81.0848 9.66748 81.0248 9.81514C80.9649 9.96279 80.9351 10.121 80.9374 10.2803H80.9373Z" fill="white"/>
<path d="M88.0852 8.37817H90.1903C91.1037 8.37817 91.6393 8.84071 91.6393 9.56486C91.6407 9.79464 91.5632 10.0179 91.4196 10.1974C91.276 10.3768 91.0751 10.5016 90.8505 10.5507V10.6235C91.1232 10.6408 91.3788 10.762 91.5646 10.9622C91.7504 11.1624 91.8522 11.4263 91.8489 11.6994C91.8489 12.5137 91.2363 13.045 90.2116 13.045H88.0852V8.37817ZM88.9986 9.08514V10.2936H89.9119C90.4688 10.2936 90.7351 10.0795 90.7351 9.68481C90.7351 9.32095 90.5032 9.08513 90.0142 9.08513L88.9986 9.08514ZM88.9986 10.9707V12.3381H90.0912C90.6359 12.3381 90.9275 12.0977 90.9275 11.6564C90.9275 11.1894 90.5974 10.9707 89.9757 10.9707L88.9986 10.9707Z" fill="white"/>
</svg>
