<svg width="24" height="24" viewBox="0 0 24 24" fill="none" xmlns="http://www.w3.org/2000/svg">
<path d="M17 10C17 8.4087 16.3679 6.88258 15.2426 5.75736C14.1174 4.63214 12.5913 4 11 4C9.4087 4 7.88258 4.63214 6.75736 5.75736C5.63214 6.88258 5 8.4087 5 10C5 17 2 19 2 19H20C20 19 17 17 17 10Z" stroke="currentColor" stroke-width="2" stroke-linecap="round" stroke-linejoin="round"/>
<path d="M12.73 22C12.5542 22.3031 12.3018 22.5547 11.9982 22.7295C11.6946 22.9044 11.3504 22.9965 11 22.9965C10.6496 22.9965 10.3054 22.9044 10.0018 22.7295C9.69815 22.5547 9.4458 22.3031 9.26999 22" stroke="currentColor" stroke-width="2" stroke-linecap="round" stroke-linejoin="round"/>
</svg>
