<svg width="18" height="18" viewBox="0 0 18 18" fill="none" xmlns="http://www.w3.org/2000/svg">
<path d="M15.75 3H13.869L11.5545 0H6.44475L4.131 3H2.25C1.65326 3 1.08097 3.23705 0.65901 3.65901C0.237053 4.08097 0 4.65326 0 5.25L0 18H18V5.25C18 4.65326 17.7629 4.08097 17.341 3.65901C16.919 3.23705 16.3467 3 15.75 3ZM7.18275 1.5H10.818L11.9745 3H6.0255L7.18275 1.5ZM16.5 16.5H1.5V5.25C1.5 5.05109 1.57902 4.86032 1.71967 4.71967C1.86032 4.57902 2.05109 4.5 2.25 4.5H15.75C15.9489 4.5 16.1397 4.57902 16.2803 4.71967C16.421 4.86032 16.5 5.05109 16.5 5.25V16.5Z" fill="#222222"/>
<path d="M9 6C8.10999 6 7.23996 6.26392 6.49994 6.75839C5.75991 7.25285 5.18314 7.95566 4.84254 8.77792C4.50195 9.60019 4.41283 10.505 4.58647 11.3779C4.7601 12.2508 5.18869 13.0526 5.81802 13.682C6.44736 14.3113 7.24918 14.7399 8.1221 14.9135C8.99501 15.0872 9.89981 14.9981 10.7221 14.6575C11.5443 14.3169 12.2471 13.7401 12.7416 13.0001C13.2361 12.26 13.5 11.39 13.5 10.5C13.4988 9.30689 13.0243 8.16299 12.1807 7.31933C11.337 6.47568 10.1931 6.00119 9 6ZM9 13.5C8.40666 13.5 7.82664 13.3241 7.33329 12.9944C6.83994 12.6648 6.45543 12.1962 6.22836 11.6481C6.0013 11.0999 5.94189 10.4967 6.05765 9.91473C6.1734 9.33279 6.45912 8.79824 6.87868 8.37868C7.29824 7.95912 7.83279 7.6734 8.41473 7.55764C8.99667 7.44189 9.59987 7.5013 10.1481 7.72836C10.6962 7.95542 11.1648 8.33994 11.4944 8.83329C11.8241 9.32664 12 9.90666 12 10.5C12 11.2956 11.6839 12.0587 11.1213 12.6213C10.5587 13.1839 9.79565 13.5 9 13.5Z" fill="#222222"/>
</svg>
