<svg  viewBox="0 0 25 25" fill="none" xmlns="http://www.w3.org/2000/svg">
<path d="M22.7303 22.5H12.7453C10.7944 22.4991 8.88644 21.9275 7.25635 20.8558C5.62625 19.7841 4.34524 18.259 3.57109 16.4683C2.79693 14.6776 2.56345 12.6996 2.8994 10.7779C3.23534 8.85624 4.12605 7.07477 5.4618 5.65295C6.79756 4.23114 8.52002 3.23108 10.417 2.77595C12.314 2.32082 14.3028 2.4305 16.1382 3.09149C17.9737 3.75247 19.5757 4.93589 20.747 6.49597C21.9183 8.05606 22.6077 9.92468 22.7303 11.8717V11.9242V22.5ZM12.7453 4.16667C10.5351 4.16667 8.4155 5.04464 6.85269 6.60744C5.28989 8.17025 4.41191 10.2899 4.41191 12.5C4.41191 14.7101 5.28989 16.8298 6.85269 18.3926C8.4155 19.9554 10.5351 20.8333 12.7453 20.8333H21.0636V11.9508C20.9207 9.8411 19.9825 7.86419 18.4385 6.41936C16.8946 4.97453 14.8598 4.16943 12.7453 4.16667Z" fill="currentColor"/>
<path d="M13.5635 8.33301H8.56348V9.99967H13.5635V8.33301Z" fill="currentColor"/>
<path d="M16.8968 11.667H8.56348V13.3337H16.8968V11.667Z" fill="currentColor"/>
<path d="M16.8968 15H8.56348V16.6667H16.8968V15Z" fill="currentColor"/>
</svg>
