<svg width="22" height="22" viewBox="0 0 22 22" fill="none" xmlns="http://www.w3.org/2000/svg">
<path d="M19.25 3.66667H16.5V1.83333C16.5 1.3471 16.3068 0.880788 15.963 0.536971C15.6192 0.193154 15.1529 0 14.6667 0L7.33333 0C6.8471 0 6.38079 0.193154 6.03697 0.536971C5.69315 0.880788 5.5 1.3471 5.5 1.83333V3.66667H2.75C2.02065 3.66667 1.32118 3.9564 0.805456 4.47212C0.289731 4.98785 0 5.68732 0 6.41667L0 22H22V6.41667C22 5.68732 21.7103 4.98785 21.1945 4.47212C20.6788 3.9564 19.9793 3.66667 19.25 3.66667V3.66667ZM7.33333 1.83333H14.6667V3.66667H7.33333V1.83333ZM2.75 5.5H19.25C19.4931 5.5 19.7263 5.59658 19.8982 5.76849C20.0701 5.94039 20.1667 6.17355 20.1667 6.41667V11H1.83333V6.41667C1.83333 6.17355 1.92991 5.94039 2.10182 5.76849C2.27373 5.59658 2.50688 5.5 2.75 5.5V5.5ZM1.83333 20.1667V12.8333H10.0833V14.6667H11.9167V12.8333H20.1667V20.1667H1.83333Z" fill="currentColor"/>
</svg>
