<svg  viewBox="0 0 11 11" fill="none" xmlns="http://www.w3.org/2000/svg">
    <path d="M7.60707 1.00016H8.80855C9.06323 0.995659 9.3107 1.08482 9.50397 1.25073C9.69725 1.41663 9.82289 1.64773 9.85703 1.90015V5.05009C9.82289 5.30251 9.69725 5.5336 9.50397 5.69951C9.3107 5.86541 9.06323 5.95458 8.80855 5.95007H7.60707M4.45713 6.85006V8.65002C4.45713 9.00806 4.59936 9.35143 4.85253 9.6046C5.1057 9.85777 5.44907 10 5.80711 10L7.60707 5.95007V1.00016H2.53116C2.31412 0.997709 2.1035 1.07378 1.93812 1.21436C1.77273 1.35493 1.66372 1.55054 1.63118 1.76515L1.01019 5.81508C0.990613 5.94406 0.999313 6.07576 1.03569 6.20106C1.07206 6.32635 1.13524 6.44223 1.22085 6.54068C1.30646 6.63913 1.41245 6.71779 1.53147 6.77121C1.6505 6.82463 1.77972 6.85153 1.91018 6.85006H4.45713Z"
          stroke="currentColor" stroke-linecap="round" stroke-linejoin="round"/>
</svg>
