<svg width="40" height="41" viewBox="0 0 40 41" fill="none" xmlns="http://www.w3.org/2000/svg">
<path d="M26.8106 0.0104363C27.1237 0.260893 27.4576 0.490479 27.7289 0.761807C30.1291 3.15158 32.5189 5.55179 34.9191 7.93112C35.3052 8.31724 35.4826 8.72424 35.4826 9.27733C35.4722 18.252 35.4722 27.2163 35.4722 36.191C35.4722 38.539 34.0112 40 31.6841 40C24.0556 40 16.4166 40 8.78815 40C6.47143 40 5 38.5286 5 36.2223C5 25.4422 5 14.6621 5 3.88208C5 1.77407 5.93921 0.563527 7.9846 0.0417421C8.00548 0.0313064 8.02635 0.0208714 8.04722 0C14.3086 0.0104357 20.5596 0.0104363 26.8106 0.0104363ZM25.3183 2.3689C25.1931 2.35847 25.1304 2.35847 25.0574 2.35847C19.5787 2.35847 14.0895 2.35847 8.61075 2.35847C7.79676 2.35847 7.3376 2.84894 7.3376 3.70467C7.3376 14.5787 7.3376 25.4422 7.3376 36.3162C7.3376 37.2241 7.79676 37.6728 8.7151 37.6728C16.3853 37.6728 24.0556 37.6728 31.7258 37.6728C32.6859 37.6728 33.1242 37.2345 33.1242 36.264C33.1242 27.7068 33.1242 19.1599 33.1242 10.6027C33.1242 10.467 33.1242 10.3313 33.1242 10.1748C32.9259 10.1748 32.7902 10.1748 32.6441 10.1748C30.6927 10.1748 28.7412 10.1748 26.7897 10.1748C25.7357 10.1748 25.3183 9.75737 25.3183 8.72424C25.3183 6.76233 25.3183 4.78998 25.3183 2.82807C25.3183 2.67154 25.3183 2.53587 25.3183 2.3689ZM27.6976 4.10123C27.6976 5.35351 27.6976 6.57449 27.6976 7.79546C28.9499 7.79546 30.1709 7.79546 31.3919 7.79546C30.15 6.56405 28.929 5.34307 27.6976 4.10123Z" fill="#EB8A00"/>
<path d="M26.8523 16.8223C25.0469 16.8223 23.252 16.8223 21.4362 16.8223C21.4362 21.7584 21.4362 26.6841 21.4362 31.6514C21.8119 31.6514 22.1771 31.6514 22.5319 31.6514C23.2311 31.6619 23.7425 32.1524 23.7529 32.8098C23.7634 33.4777 23.2416 33.989 22.5215 33.989C20.9979 33.9995 19.4743 33.9995 17.9507 33.989C17.2306 33.989 16.7088 33.4673 16.7193 32.7994C16.7297 32.1524 17.2515 31.6619 17.9507 31.6514C18.3055 31.641 18.6499 31.6514 19.036 31.6514C19.036 26.7154 19.036 21.7897 19.036 16.8328C17.2515 16.8328 15.4461 16.8328 13.599 16.8328C13.599 17.4798 13.6094 18.1268 13.599 18.7738C13.5781 19.6295 12.7224 20.1722 11.971 19.8278C11.5327 19.6295 11.2718 19.2747 11.2718 18.7842C11.2614 17.7302 11.2614 16.6762 11.2718 15.6222C11.2823 14.9648 11.7832 14.4743 12.4406 14.4639C12.8476 14.4534 13.2442 14.4639 13.6512 14.4639C18.3785 14.4639 23.1059 14.4639 27.8333 14.4639C28.8038 14.4639 29.2421 14.9022 29.2421 15.8622C29.2421 16.791 29.2421 17.7094 29.2421 18.6381C29.2421 19.3999 28.762 19.9217 28.0733 19.9322C27.395 19.9322 26.9045 19.4104 26.8941 18.6486C26.8941 18.0746 26.8941 17.5007 26.8836 16.9267C26.8836 16.9058 26.8732 16.8849 26.8523 16.8223Z" fill="#EB8A00"/>
</svg>
