<svg width="40" height="47" viewBox="0 0 40 47" fill="none" xmlns="http://www.w3.org/2000/svg">
<path d="M17.7275 44.2767L17.7572 44.3028L17.788 44.3275C18.1093 44.5845 18.4698 44.7819 18.8624 44.9128C19.2532 45.043 19.6533 45.1 20.05 45.1C20.4431 45.1 20.8317 45.0337 21.206 44.8977C21.5789 44.7621 21.9143 44.5656 22.212 44.3275L22.2428 44.3028L22.2725 44.2767C27.3039 39.8531 31.1392 35.6907 33.7184 31.7871C36.3006 27.8789 37.7 24.0718 37.7 20.4C37.7 14.9998 35.9444 10.5361 32.3275 7.20034C28.8086 3.95487 24.6761 2.3 20 2.3C15.3239 2.3 11.1914 3.95487 7.67246 7.20034C4.05557 10.5361 2.3 14.9998 2.3 20.4C2.3 24.0718 3.69941 27.8789 6.28163 31.7871C8.86078 35.6907 12.6961 39.8531 17.7275 44.2767Z" fill="#EB8A00" stroke="white" stroke-width="3.4"/>
</svg>
