<svg width="19" height="19" viewBox="0 0 19 19" fill="none" xmlns="http://www.w3.org/2000/svg">
<path d="M8.74261 2.94805C8.59058 2.38867 8.25871 1.89486 7.7982 1.5428C7.33768 1.19074 6.77412 1 6.19444 1C5.61477 1 5.05121 1.19074 4.59069 1.5428C4.13018 1.89486 3.7983 2.38867 3.64627 2.94805H1V4.36469H3.64627C3.7983 4.92407 4.13018 5.41788 4.59069 5.76994C5.05121 6.122 5.61477 6.31274 6.19444 6.31274C6.77412 6.31274 7.33768 6.122 7.7982 5.76994C8.25871 5.41788 8.59058 4.92407 8.74261 4.36469H17.9996V2.94805H8.74261ZM6.19409 4.89593C5.94893 4.89593 5.70927 4.82323 5.50543 4.68702C5.30159 4.55082 5.14271 4.35723 5.04889 4.13073C4.95507 3.90423 4.93052 3.655 4.97835 3.41455C5.02618 3.1741 5.14424 2.95323 5.31759 2.77987C5.49095 2.60652 5.71181 2.48846 5.95226 2.44063C6.19271 2.39281 6.44195 2.41735 6.66845 2.51117C6.89495 2.60499 7.08854 2.76387 7.22474 2.96771C7.36095 3.17156 7.43364 3.41121 7.43364 3.65637C7.43308 3.98495 7.30231 4.29991 7.06997 4.53225C6.83763 4.76459 6.52267 4.89536 6.19409 4.89593Z" fill="#222222" stroke="#222222" stroke-width="0.2"/>
<path d="M12.8055 6.84375C12.2264 6.84582 11.6639 7.03733 11.2039 7.38905C10.7439 7.74076 10.4116 8.23335 10.2577 8.79162H1V10.2083H10.2577C10.4095 10.7678 10.7412 11.2618 11.2017 11.614C11.6622 11.9662 12.2258 12.157 12.8055 12.157C13.3853 12.157 13.9489 11.9662 14.4093 11.614C14.8698 11.2618 15.2016 10.7678 15.3533 10.2083H17.9996V8.79162H15.3533C15.1995 8.23335 14.8672 7.74076 14.4071 7.38905C13.9471 7.03733 13.3846 6.84582 12.8055 6.84375ZM12.8055 10.7395C12.5604 10.7395 12.3207 10.6668 12.1169 10.5306C11.913 10.3944 11.7541 10.2008 11.6603 9.9743C11.5665 9.7478 11.542 9.49857 11.5898 9.25812C11.6376 9.01766 11.7557 8.7968 11.929 8.62344C12.1024 8.45009 12.3232 8.33203 12.5637 8.2842C12.8041 8.23637 13.0534 8.26092 13.2799 8.35474C13.5064 8.44856 13.7 8.60744 13.8362 8.81128C13.9724 9.01512 14.0451 9.25478 14.0451 9.49994C14.0447 9.82858 13.914 10.1436 13.6816 10.376C13.4492 10.6084 13.1342 10.7391 12.8055 10.7395Z" fill="#222222" stroke="#222222" stroke-width="0.2"/>
<path d="M6.19409 12.6875C5.61465 12.6891 5.05167 12.8804 4.5912 13.2322C4.13073 13.5839 3.7981 14.0767 3.64415 14.6354H1V16.052H3.64627C3.7983 16.6114 4.13018 17.1052 4.59069 17.4573C5.05121 17.8093 5.61477 18.0001 6.19444 18.0001C6.77412 18.0001 7.33768 17.8093 7.7982 17.4573C8.25871 17.1052 8.59058 16.6114 8.74261 16.052H17.9996V14.6354H8.74261C8.58873 14.077 8.25631 13.5843 7.79613 13.2326C7.33595 12.8809 6.77329 12.6894 6.19409 12.6875ZM6.19409 16.5832C5.94893 16.5832 5.70927 16.5105 5.50543 16.3743C5.30159 16.2381 5.14271 16.0445 5.04889 15.818C4.95507 15.5915 4.93052 15.3423 4.97835 15.1019C5.02618 14.8614 5.14424 14.6405 5.31759 14.4672C5.49095 14.2938 5.71181 14.1758 5.95226 14.128C6.19271 14.0801 6.44195 14.1047 6.66845 14.1985C6.89495 14.2923 7.08854 14.4512 7.22474 14.655C7.36095 14.8589 7.43364 15.0985 7.43364 15.3437C7.43308 15.6723 7.30231 15.9872 7.06997 16.2196C6.83763 16.4519 6.52267 16.5827 6.19409 16.5832Z" fill="#222222" stroke="#222222" stroke-width="0.2"/>
</svg>
