<svg width="127" height="38" viewBox="0 0 127 38" fill="none" xmlns="http://www.w3.org/2000/svg">
<path d="M122.32 38H4.69933C2.12355 38 0 35.8558 0 33.255V4.74504C0 2.12435 2.12355 0 4.69933 0H122.301C124.896 0 127 2.1442 127 4.74504V33.255C127.02 35.8558 124.896 38 122.32 38Z" fill="#222222"/>
<path d="M64.0995 20.6686C61.8776 20.6686 60.0884 22.376 60.0884 24.7187C60.0884 27.0416 61.8973 28.7689 64.0995 28.7689C66.3214 28.7689 68.1106 27.0615 68.1106 24.7187C68.1303 22.3561 66.3214 20.6686 64.0995 20.6686ZM64.0995 27.1607C62.8804 27.1607 61.8383 26.1482 61.8383 24.7187C61.8383 23.2694 62.8804 22.2767 64.0995 22.2767C65.3186 22.2767 66.3607 23.2694 66.3607 24.7187C66.3607 26.1482 65.3186 27.1607 64.0995 27.1607ZM55.3497 20.6686C53.1278 20.6686 51.3386 22.376 51.3386 24.7187C51.3386 27.0416 53.1475 28.7689 55.3497 28.7689C57.5716 28.7689 59.3608 27.0615 59.3608 24.7187C59.3608 22.3561 57.5519 20.6686 55.3497 20.6686ZM55.3497 27.1607C54.1306 27.1607 53.0885 26.1482 53.0885 24.7187C53.0885 23.2694 54.1306 22.2767 55.3497 22.2767C56.5688 22.2767 57.6109 23.2694 57.6109 24.7187C57.6109 26.1482 56.5491 27.1607 55.3497 27.1607ZM44.9286 21.8995V23.6069H48.9987C48.8808 24.5798 48.5662 25.2746 48.0746 25.771C47.4847 26.3666 46.5606 27.0218 44.9286 27.0218C42.4315 27.0218 40.4652 24.9967 40.4652 22.4554C40.4652 19.934 42.4118 17.8891 44.9286 17.8891C46.2853 17.8891 47.2684 18.4251 47.9959 19.12L49.1954 17.9089C48.1729 16.9361 46.8359 16.1816 44.9286 16.1816C41.5073 16.1816 38.6169 19.0009 38.6169 22.4554C38.6169 25.91 41.4877 28.7292 44.9286 28.7292C46.7769 28.7292 48.1729 28.1137 49.2543 26.9622C50.3751 25.8305 50.729 24.2422 50.729 22.9518C50.729 22.5547 50.6897 22.1775 50.6307 21.8797H44.9286V21.8995ZM87.5568 23.2297C87.2226 22.3164 86.2001 20.6487 84.1356 20.6487C82.071 20.6487 80.3604 22.2767 80.3604 24.6989C80.3604 26.9622 82.0513 28.749 84.3322 28.749C86.1608 28.749 87.2226 27.6174 87.6748 26.9622L86.3181 26.0489C85.8659 26.724 85.2367 27.1607 84.3518 27.1607C83.467 27.1607 82.8182 26.7438 82.4053 25.9298L87.7534 23.6863L87.5568 23.2297ZM82.0907 24.5798C82.0513 23.0113 83.2901 22.2172 84.1749 22.2172C84.8827 22.2172 85.4726 22.5745 85.6692 23.0709L82.0907 24.5798ZM77.7453 28.5108H79.4952V16.6184H77.7453V28.5108ZM74.8549 21.562H74.7959C74.4026 21.0855 73.6358 20.6487 72.692 20.6487C70.6864 20.6487 68.8578 22.4157 68.8578 24.6989C68.8578 26.9622 70.6864 28.7292 72.692 28.7292C73.6555 28.7292 74.4026 28.2924 74.7959 27.8159H74.8549V28.3917C74.8549 29.9403 74.029 30.7543 72.7117 30.7543C71.6302 30.7543 70.9617 29.98 70.6864 29.3248L69.1528 29.9601C69.5853 31.0322 70.7651 32.3426 72.692 32.3426C74.7566 32.3426 76.5065 31.1116 76.5065 28.1336V20.887H74.8352V21.562H74.8549ZM72.8493 27.1607C71.6302 27.1607 70.6274 26.1284 70.6274 24.7187C70.6274 23.2893 71.6499 22.2569 72.8493 22.2569C74.0487 22.2569 74.9925 23.2893 74.9925 24.7187C74.9925 26.1284 74.0487 27.1607 72.8493 27.1607ZM95.7954 16.6184H91.5876V28.4909H93.3376V23.9841H95.7954C97.742 23.9841 99.6492 22.5547 99.6492 20.2914C99.6492 18.0479 97.742 16.6184 95.7954 16.6184ZM95.8347 22.3561H93.3376V18.2861H95.8347C97.1521 18.2861 97.8993 19.3781 97.8993 20.3311C97.8993 21.2245 97.1521 22.3561 95.8347 22.3561ZM106.688 20.6487C105.41 20.6487 104.093 21.2046 103.562 22.4753L105.115 23.1304C105.45 22.4753 106.059 22.2569 106.728 22.2569C107.632 22.2569 108.556 22.8128 108.576 23.7856V23.9047C108.261 23.726 107.573 23.4481 106.747 23.4481C105.076 23.4481 103.365 24.3812 103.365 26.1283C103.365 27.7166 104.742 28.749 106.295 28.749C107.475 28.749 108.124 28.213 108.537 27.5975H108.596V28.5108H110.287V23.9643C110.247 21.8201 108.694 20.6487 106.688 20.6487ZM106.472 27.1607C105.902 27.1607 105.096 26.8629 105.096 26.1482C105.096 25.2349 106.099 24.8776 106.964 24.8776C107.731 24.8776 108.104 25.0364 108.576 25.2746C108.419 26.3666 107.475 27.1607 106.472 27.1607ZM116.421 20.9068L114.416 26.0489H114.357L112.273 20.9068H110.385L113.511 28.0939L111.722 32.1043H113.551L118.388 20.9068H116.421ZM100.613 28.5108H102.363V16.6184H100.613V28.5108Z" fill="white"/>
<path d="M19.4855 18.4443L9.47729 29.1852C9.79189 30.3566 10.834 31.2103 12.0924 31.2103C12.584 31.2103 13.0559 31.0713 13.4688 30.8331L13.5081 30.8132L24.7747 24.2416L19.4855 18.4443Z" fill="#E43629"/>
<path d="M29.6314 16.617L24.7551 13.7581L19.2693 18.7016L24.7748 24.2607L29.6117 21.4414C30.4572 20.9848 31.0274 20.0715 31.0274 19.0391C31.0274 17.9869 30.4769 17.0935 29.6314 16.617Z" fill="#F9BD00"/>
<path d="M9.47746 8.81543C9.41848 9.03382 9.37915 9.27207 9.37915 9.51031V28.4905C9.37915 28.7287 9.41848 28.9669 9.47746 29.1853L19.8396 18.7224L9.47746 8.81543Z" fill="#587DBE"/>
<path d="M19.5641 19.0004L24.755 13.759L13.4884 7.16758C13.0755 6.92934 12.6036 6.77051 12.0924 6.77051C10.834 6.77051 9.79189 7.62422 9.47729 8.79559L19.5641 19.0004Z" fill="#30A043"/>
<path d="M40.5241 12.2097C40.0523 11.9318 39.6985 11.5744 39.4232 11.0979C39.148 10.6214 39.03 10.1052 39.03 9.52947C39.03 8.95372 39.1676 8.43752 39.4232 7.96103C39.6985 7.48454 40.0523 7.10732 40.5241 6.84922C40.996 6.57127 41.5071 6.45215 42.0772 6.45215C42.9619 6.45215 43.6697 6.76981 44.2398 7.42498L43.6107 8.04045C43.4141 7.8022 43.1782 7.62352 42.9423 7.50439C42.6867 7.38527 42.4115 7.32571 42.0772 7.32571C41.6841 7.32571 41.3105 7.42498 40.996 7.60366C40.6618 7.78235 40.4062 8.04044 40.2096 8.39781C40.013 8.73532 39.9147 9.1324 39.9147 9.56918C39.9147 10.006 40.013 10.403 40.2096 10.7406C40.4062 11.0781 40.6618 11.3362 40.996 11.5347C41.3302 11.7134 41.6841 11.8127 42.0772 11.8127C42.7457 11.8127 43.2961 11.5347 43.7483 10.9788L44.3971 11.6141C44.1218 11.9516 43.768 12.2097 43.3748 12.4083C42.9816 12.5869 42.5491 12.6862 42.0576 12.6862C41.5071 12.6068 40.996 12.4678 40.5241 12.2097Z" fill="white"/>
<path d="M45.4204 6.5498H46.3247V9.40874H46.3641L48.7035 6.5498H49.8241V6.58951L47.347 9.54772L49.9421 12.4066V12.4464H48.7625L46.3444 9.7264H46.3051V12.4464H45.4204V6.5498Z" fill="white"/>
<path d="M52.7342 6.5498H53.7565L55.978 12.4662H54.995L54.4642 10.9375H52.0658L51.535 12.4662H50.552L52.7342 6.5498ZM54.1497 10.1036L53.5009 8.29693L53.2847 7.6219H53.2453L53.0291 8.29693L52.3803 10.1036H54.1497Z" fill="white"/>
<path d="M59.3606 9.84552C58.9871 10.1632 58.5546 10.3419 58.0041 10.3419C57.6503 10.3419 57.3357 10.2624 57.0408 10.1235C56.7459 9.9845 56.5297 9.76611 56.3724 9.48815C56.2151 9.2102 56.1365 8.89254 56.1365 8.51532V6.56966H57.0408V8.35649C57.0408 8.71386 57.1391 8.99181 57.3554 9.19035C57.5716 9.38888 57.8468 9.48815 58.1811 9.48815C58.6529 9.48815 59.0461 9.30947 59.3606 8.93225V6.5498H60.2453V12.4662H59.3606V9.84552Z" fill="white"/>
<path d="M63.2535 6.5498H64.2758L66.4973 12.4662H65.5143L64.9835 10.9375H62.5851L62.0543 12.4662H61.0713L63.2535 6.5498ZM64.669 10.1036L64.0202 8.29693L63.804 7.6219H63.7646L63.5484 8.29693L62.8996 10.1036H64.669Z" fill="white"/>
<path d="M68.0122 7.425H66.3608V6.57129H70.5483V7.425H68.9166V12.4877H68.0122V7.425Z" fill="white"/>
<path d="M71.4927 6.5498H72.397V8.6543H73.6356C74.0091 8.6543 74.3433 8.73371 74.6578 8.87269C74.9724 9.03152 75.2083 9.24991 75.4049 9.52786C75.5818 9.82567 75.6801 10.1632 75.6801 10.5404C75.6801 10.9176 75.5818 11.2551 75.4049 11.5529C75.228 11.8507 74.9724 12.0691 74.6578 12.228C74.3433 12.3868 74.0091 12.4662 73.6356 12.4662H71.4927V6.5498ZM73.6945 11.6324C73.9108 11.6324 74.0877 11.5926 74.2647 11.4934C74.4219 11.3941 74.5595 11.2551 74.6382 11.0963C74.7168 10.9375 74.7758 10.7588 74.7758 10.5801C74.7758 10.4014 74.7365 10.2227 74.6382 10.0639C74.5595 9.90508 74.4219 9.76611 74.2647 9.66684C74.1074 9.56757 73.9108 9.50801 73.6945 9.50801H72.3774V11.6324H73.6945Z" fill="white"/>
<path d="M78.5713 6.5498H79.456V9.82567L79.4166 10.9573H79.456L82.0903 6.5498H83.1126V12.4662H82.2279V9.11093L82.2673 7.97927H82.2279L79.5543 12.4662H78.5713V6.5498Z" fill="white"/>
<path d="M84.8827 12.2292C84.5092 11.9711 84.2536 11.5939 84.116 11.0976L84.9417 10.7601C85.0203 11.0777 85.1579 11.316 85.3545 11.4947C85.5511 11.6733 85.8067 11.7528 86.0819 11.7528C86.3768 11.7528 86.6324 11.6535 86.8486 11.4748C87.0649 11.2763 87.1632 11.0579 87.1632 10.7601C87.1632 10.5814 87.1042 10.4027 87.0059 10.2637C86.9076 10.1049 86.77 9.98578 86.5734 9.90636C86.3965 9.82695 86.1999 9.76739 85.9836 9.76739H85.4921V8.97324H85.9246C86.2195 8.97324 86.4554 8.89382 86.652 8.73499C86.8486 8.57616 86.9469 8.35777 86.9469 8.07982C86.9469 7.84158 86.8486 7.64304 86.6717 7.48421C86.4948 7.32538 86.2588 7.24597 85.9836 7.24597C85.7477 7.24597 85.5315 7.32538 85.3545 7.46436C85.1776 7.60333 85.0596 7.78202 85.0006 8.00041L84.2143 7.66289C84.3322 7.34523 84.5288 7.04743 84.8434 6.78933C85.1383 6.53123 85.5314 6.41211 85.9836 6.41211C86.3375 6.41211 86.652 6.49152 86.9273 6.6305C87.2025 6.76948 87.4188 6.96801 87.576 7.20626C87.7333 7.4445 87.8119 7.72246 87.8119 8.04011C87.8119 8.61587 87.5564 9.0328 87.0649 9.31075V9.35046C87.3401 9.46958 87.576 9.66812 87.753 9.90636C87.9299 10.1446 88.0085 10.4424 88.0085 10.7998C88.0085 11.1373 87.9299 11.4351 87.753 11.7131C87.576 11.991 87.3401 12.2094 87.0452 12.3682C86.7503 12.5271 86.4161 12.6065 86.0426 12.6065C85.6494 12.6065 85.2562 12.4873 84.8827 12.2292Z" fill="white"/>
</svg>
