<svg width="32" height="32" viewBox="0 0 32 32" fill="none" xmlns="http://www.w3.org/2000/svg">
<g clip-path="url(#clip0_1288_21991)">
<path d="M32 0H0V32H32V0Z" fill="#E8E8E8"/>
<path d="M32 0H0V3.86207H32V0Z" fill="#FAB80F"/>
<path d="M25.324 6.74219H6.67575C6.43199 6.74219 6.23438 6.9398 6.23438 7.18357V9.80315C6.23438 10.0469 6.43199 10.2445 6.67575 10.2445H25.324C25.5678 10.2445 25.7654 10.0469 25.7654 9.80315V7.18357C25.7654 6.9398 25.5678 6.74219 25.324 6.74219Z" fill="#8D8A94"/>
<path d="M25.324 13.0205H6.67575C6.43199 13.0205 6.23438 13.2181 6.23438 13.4619V16.0815C6.23438 16.3252 6.43199 16.5229 6.67575 16.5229H25.324C25.5678 16.5229 25.7654 16.3252 25.7654 16.0815V13.4619C25.7654 13.2181 25.5678 13.0205 25.324 13.0205Z" fill="#8D8A94"/>
<path d="M25.324 19.2988H6.67575C6.43199 19.2988 6.23438 19.4964 6.23438 19.7402V22.3598C6.23438 22.6036 6.43199 22.8012 6.67575 22.8012H25.324C25.5678 22.8012 25.7654 22.6036 25.7654 22.3598V19.7402C25.7654 19.4964 25.5678 19.2988 25.324 19.2988Z" fill="#8D8A94"/>
<path d="M25.3244 25.4062H12.6347C12.391 25.4062 12.1934 25.6039 12.1934 25.8476V28.4672C12.1934 28.711 12.391 28.9086 12.6347 28.9086H25.3244C25.5682 28.9086 25.7658 28.711 25.7658 28.4672V25.8476C25.7658 25.6039 25.5682 25.4062 25.3244 25.4062Z" fill="#FAB80F"/>
<path d="M19.8772 3.08935C20.5256 3.08935 21.0513 2.5637 21.0513 1.91528C21.0513 1.26686 20.5256 0.741211 19.8772 0.741211C19.2288 0.741211 18.7031 1.26686 18.7031 1.91528C18.7031 2.5637 19.2288 3.08935 19.8772 3.08935Z" fill="#1E150F"/>
<path d="M23.1174 3.08935C23.7658 3.08935 24.2915 2.5637 24.2915 1.91528C24.2915 1.26686 23.7658 0.741211 23.1174 0.741211C22.469 0.741211 21.9434 1.26686 21.9434 1.91528C21.9434 2.5637 22.469 3.08935 23.1174 3.08935Z" fill="#1E150F"/>
<path d="M26.3567 3.08935C27.0051 3.08935 27.5308 2.5637 27.5308 1.91528C27.5308 1.26686 27.0051 0.741211 26.3567 0.741211C25.7083 0.741211 25.1826 1.26686 25.1826 1.91528C25.1826 2.5637 25.7083 3.08935 26.3567 3.08935Z" fill="#1E150F"/>
</g>
<defs>
<clipPath id="clip0_1288_21991">
<rect width="32" height="32" fill="white"/>
</clipPath>
</defs>
</svg>
