<svg width="32" height="32" viewBox="0 0 32 32" fill="none" xmlns="http://www.w3.org/2000/svg">
<g clip-path="url(#clip0_1288_22058)">
<path d="M16 32C24.8366 32 32 24.8366 32 16C32 7.16344 24.8366 0 16 0C7.16344 0 0 7.16344 0 16C0 24.8366 7.16344 32 16 32Z" fill="#E8A50F"/>
<path d="M15.9999 30.4447C23.9774 30.4447 30.4445 23.9777 30.4445 16.0002C30.4445 8.0227 23.9774 1.55566 15.9999 1.55566C8.02245 1.55566 1.55542 8.0227 1.55542 16.0002C1.55542 23.9777 8.02245 30.4447 15.9999 30.4447Z" fill="#FAB80F"/>
<path d="M15.8631 10.3121H17.5488V8.50774C17.5488 6.99796 16.7837 6.32133 15.8154 6.11328C15.8481 6.31448 15.864 6.51803 15.8631 6.72186V10.3121Z" fill="white"/>
<path d="M22.7868 12.1387C22.8063 12.4283 22.7969 12.7191 22.7586 13.0068C22.5544 14.641 22.2725 16.3122 21.8603 19.0839C21.4481 21.8555 20.3107 22.0626 19.2909 22.0626H10.6385C10.4268 22.0634 10.2159 22.036 10.0115 21.9809C10.2759 22.7412 10.9049 23.8475 12.3233 23.8475H20.9756C21.9954 23.8475 23.1377 23.6443 23.546 20.8697C23.9544 18.0952 24.2392 16.4269 24.4434 14.7927C24.6242 13.3432 24.1945 12.3467 22.7868 12.1387Z" fill="#F2F2F2"/>
<path d="M19.2908 22.0624C20.3106 22.0624 21.4529 21.8583 21.8603 19.0837C22.2676 16.3091 22.5544 14.6409 22.7586 13.0067C22.7969 12.7189 22.8063 12.4281 22.7867 12.1385C22.5935 12.1109 22.3986 12.0973 22.2034 12.0977H17.5487V10.3118H15.8629V6.72157C15.8639 6.51774 15.8479 6.31419 15.8153 6.11299C15.5738 6.06339 15.3278 6.03895 15.0813 6.04008H14.2064V9.77224C14.2064 10.9962 12.4934 12.8317 11.3103 13.2808C10.1271 13.73 9.84131 13.6483 9.84131 13.6483V21.2769C9.87677 21.5164 9.93437 21.752 10.0134 21.9808C10.2178 22.0358 10.4287 22.0633 10.6404 22.0624H19.2908Z" fill="white"/>
<path d="M8.67074 13.1582H7.04624C6.40195 13.1582 5.87964 13.6805 5.87964 14.3248V22.0691C5.87964 22.7134 6.40195 23.2357 7.04624 23.2357H8.67074C9.31504 23.2357 9.83735 22.7134 9.83735 22.0691V14.3248C9.83735 13.6805 9.31504 13.1582 8.67074 13.1582Z" fill="#1E150F"/>
<path d="M7.98454 22.0623C8.41246 22.0623 8.75936 21.7154 8.75936 21.2875C8.75936 20.8596 8.41246 20.5127 7.98454 20.5127C7.55662 20.5127 7.20972 20.8596 7.20972 21.2875C7.20972 21.7154 7.55662 22.0623 7.98454 22.0623Z" fill="#D6D6D6"/>
</g>
<defs>
<clipPath id="clip0_1288_22058">
<rect width="32" height="32" fill="white"/>
</clipPath>
</defs>
</svg>
