<svg width="40" height="32" viewBox="0 0 40 32" fill="none" xmlns="http://www.w3.org/2000/svg">
<g clip-path="url(#clip0_1288_22031)">
<path d="M18.625 16.6387H17.2422V18.6771H18.625V16.6387Z" fill="#1E150F"/>
<path d="M21.3828 18.6772H20V15.1695C20 14.6311 20.2187 14.108 20.6094 13.7311L20.9609 13.3849C21.1172 13.2311 21.3594 13.2311 21.5156 13.3849L21.9375 13.8003C22.0937 13.9541 22.0937 14.1926 21.9375 14.3465L21.5859 14.6926C21.4531 14.8234 21.3828 14.9926 21.3828 15.1695V18.6772Z" fill="#3D3C3F"/>
<path d="M31.6094 24.9914L28.6953 21.2298L29.2422 20.8145L32.1641 24.576L31.6094 24.9914Z" fill="#A7A5AC"/>
<path d="M14.4844 9.8457H2.75781V22.0688H15.1719V17.9919L14.4844 9.8457Z" fill="#3D3C3F"/>
<path d="M11.6016 21.3926H13.2266C13.5547 21.3926 13.8359 21.1619 13.9063 20.8465L14.3906 18.5003C14.4531 18.1849 14.4766 17.8695 14.4453 17.5465L13.9609 11.8311C13.9297 11.4772 13.6328 11.208 13.2734 11.208H11.0391C10.6563 11.208 10.3516 11.5157 10.3516 11.8849V17.6619C10.3516 17.8849 10.375 18.108 10.4219 18.3311L10.9375 20.8542C10.9844 21.1619 11.2734 21.3926 11.6016 21.3926Z" fill="#1E150F"/>
<path d="M24.1406 18.6778L15.1719 17.9932L14.4844 22.0701H24.1406V18.6778Z" fill="#8D8A94"/>
<path d="M8.27344 17.3157H4.82812C4.44531 17.3157 4.14062 17.008 4.14062 16.6388V11.8849C4.14062 11.508 4.45312 11.208 4.82812 11.208H8.27344C8.65625 11.208 8.96094 11.5157 8.96094 11.8849V16.6388C8.96875 17.0157 8.65625 17.3157 8.27344 17.3157Z" fill="#1E150F"/>
<path d="M7.58594 9.8457H5.51562V18.6765H7.58594V9.8457Z" fill="#E69B01"/>
<path d="M0.6875 17.9932H9.07031C9.40625 17.9932 9.69531 18.2316 9.75 18.5624L10.25 21.5009C10.3047 21.8316 10.5937 22.0701 10.9297 22.0701H22.2656C22.5625 22.0701 22.8281 21.8855 22.9219 21.6085L23.9844 18.4624C24.0781 18.1855 24.3437 18.0009 24.6406 18.0009H28.9687V28.1855H7.58594V22.0778H0.6875C0.304687 22.0778 0 21.7701 0 21.4009V18.6855C0 18.3009 0.3125 17.9932 0.6875 17.9932Z" fill="#FAB80F"/>
<path d="M22.7578 30.2153H3.44531C1.54688 30.2153 0 28.6999 0 26.823C0 24.946 1.54688 23.4307 3.44531 23.4307H22.7578C24.6641 23.4307 26.2031 24.9537 26.2031 26.823C26.2031 28.6999 24.6641 30.2153 22.7578 30.2153Z" fill="#1E150F"/>
<path d="M22.7578 25.4619H3.44531V28.8542H22.7578V25.4619Z" fill="#E69B01"/>
<path d="M3.44531 28.8611C4.58871 28.8611 5.51562 27.9485 5.51562 26.8226C5.51562 25.6968 4.58871 24.7842 3.44531 24.7842C2.30191 24.7842 1.375 25.6968 1.375 26.8226C1.375 27.9485 2.30191 28.8611 3.44531 28.8611Z" fill="#FAB80F"/>
<path d="M22.7578 28.8611C23.9012 28.8611 24.8281 27.9485 24.8281 26.8226C24.8281 25.6968 23.9012 24.7842 22.7578 24.7842C21.6144 24.7842 20.6875 25.6968 20.6875 26.8226C20.6875 27.9485 21.6144 28.8611 22.7578 28.8611Z" fill="#FAB80F"/>
<path d="M32.8899 24.1346L22.5442 27.5322L22.9817 28.8238L33.3274 25.4261L32.8899 24.1346Z" fill="#E69B01"/>
<path d="M34.1406 28.8607H16.2031C16.0156 28.8607 15.8594 28.7068 15.8594 28.5222V27.8453C15.8594 27.6607 16.0156 27.5068 16.2031 27.5068H34.1406C34.3281 27.5068 34.4844 27.6607 34.4844 27.8453V28.5222C34.4844 28.7068 34.3281 28.8607 34.1406 28.8607Z" fill="#3D3C3F"/>
<path d="M33.7969 28.1768V23.7691C33.7969 23.5845 33.9531 23.4307 34.1406 23.4307H34.7734C35.0234 23.4307 35.25 23.5614 35.375 23.7691L37.9375 28.1768H39.3203C39.7031 28.1768 40.0078 28.4845 40.0078 28.8537C40.0078 29.2307 39.6953 29.5307 39.3203 29.5307H35.1797C34.4141 29.5384 33.7969 28.9307 33.7969 28.1768Z" fill="#A7A5AC"/>
<path d="M32.4141 27.4999H33.7969V23.0846C33.7969 22.8999 33.6406 22.7461 33.4531 22.7461H32.7656C32.5781 22.7461 32.4219 22.8999 32.4219 23.0846L32.4141 27.4999Z" fill="#FAB80F"/>
<path d="M15.1719 22.0693H1.38281L1.88281 23.054C2 23.2847 2.24219 23.4309 2.5 23.4309H15.1797V22.0693H15.1719Z" fill="#E69B01"/>
<path d="M14.4844 10.5228H2.07031C1.6875 10.5228 1.38281 10.2151 1.38281 9.84587C1.38281 9.46895 1.69531 9.16895 2.07031 9.16895H14.4844C14.8672 9.16895 15.1719 9.47664 15.1719 9.84587C15.1719 10.2228 14.8672 10.5228 14.4844 10.5228Z" fill="#FAB80F"/>
<path d="M29.547 22.8929L23.797 15.4852C23.6798 15.3391 23.7111 15.1237 23.8595 15.016L24.4142 14.6006C24.5627 14.4852 24.7814 14.516 24.8908 14.6622L30.6408 22.0698C30.758 22.216 30.7267 22.4314 30.5783 22.5391L30.0236 22.9545C29.8751 23.0698 29.6642 23.0391 29.547 22.8929Z" fill="#E69B01"/>
<path d="M18.9688 17.3158H16.8984C16.7109 17.3158 16.5547 17.1619 16.5547 16.9773V16.3004C16.5547 16.1158 16.7109 15.9619 16.8984 15.9619H18.9688C19.1563 15.9619 19.3125 16.1158 19.3125 16.3004V16.9773C19.3125 17.1619 19.1563 17.3158 18.9688 17.3158Z" fill="#3D3C3F"/>
</g>
<defs>
<clipPath id="clip0_1288_22031">
<rect width="40" height="32" fill="white"/>
</clipPath>
</defs>
</svg>
