<svg width="34" height="32" viewBox="0 0 34 32" fill="none" xmlns="http://www.w3.org/2000/svg">
<g clip-path="url(#clip0_1288_22006)">
<path d="M24.5 6.6875V29.1875C24.5005 29.557 24.4281 29.9229 24.2869 30.2644C24.1458 30.6058 23.9386 30.9161 23.6773 31.1773C23.4161 31.4386 23.1058 31.6458 22.7644 31.7869C22.4229 31.9281 22.057 32.0005 21.6875 32H2.875C1.31875 32 0 30.7438 0 29.1875V6.6875C0 5.13125 1.31875 3.875 2.875 3.875H21.6875C22.057 3.87451 22.4229 3.94692 22.7644 4.08809C23.1058 4.22925 23.4161 4.4364 23.6773 4.69766C23.9386 4.95893 24.1458 5.26917 24.2869 5.61062C24.4281 5.95207 24.5005 6.31802 24.5 6.6875Z" fill="#3D3C3F"/>
<path d="M24.5 6.6875V29.1875C24.5005 29.557 24.4281 29.9229 24.2869 30.2644C24.1458 30.6058 23.9386 30.9161 23.6773 31.1773C23.4161 31.4386 23.1058 31.6458 22.7644 31.7869C22.4229 31.9281 22.057 32.0005 21.6875 32H12.25V3.875H21.6875C22.057 3.87451 22.4229 3.94692 22.7644 4.08809C23.1058 4.22925 23.4161 4.4364 23.6773 4.69766C23.9386 4.95893 24.1458 5.26917 24.2869 5.61062C24.4281 5.95207 24.5005 6.31802 24.5 6.6875Z" fill="#1E150F"/>
<path d="M33.4374 7.01163L32.9118 11.6698L29.9068 13.2179L27.3218 11.0391L27.8474 6.38101C27.8601 6.25822 27.8972 6.1392 27.9564 6.0309C28.0156 5.92259 28.0959 5.82719 28.1924 5.75026C28.289 5.67333 28.3999 5.61642 28.5187 5.58285C28.6375 5.54928 28.7618 5.53973 28.8843 5.55476L32.6105 5.97538C32.7333 5.98793 32.8524 6.02486 32.9608 6.084C33.0692 6.14314 33.1646 6.22331 33.2416 6.31981C33.3186 6.41631 33.3756 6.5272 33.4092 6.646C33.4428 6.76479 33.4524 6.88909 33.4374 7.01163Z" fill="#FAB80F"/>
<path d="M33.4379 7.01152L32.9122 11.6696L29.9072 13.2178L30.7454 5.76465L32.6085 5.97527C32.7315 5.98751 32.8509 6.02422 32.9595 6.08322C33.0682 6.14223 33.1639 6.22235 33.2412 6.31888C33.3185 6.41542 33.3757 6.52641 33.4094 6.64536C33.4432 6.7643 33.4529 6.88879 33.4379 7.01152Z" fill="#FF9F00"/>
<path d="M29.0625 20.6699L26.0575 22.2174L25.7419 25.0124C25.7285 25.1542 25.7446 25.2972 25.7894 25.4324L27.2319 29.3699C27.3638 29.7055 27.6506 30.0087 28.0044 30.0487C28.3581 30.0887 28.705 29.8568 28.9088 29.5593L31.1925 26.043C31.2661 25.921 31.3136 25.785 31.3319 25.6437L31.6444 22.8493L29.0625 20.6699Z" fill="#FAB80F"/>
<path d="M29.0625 20.6699L31.6468 22.8487L31.3343 25.643C31.316 25.7844 31.2686 25.9204 31.195 26.0424L28.9112 29.5587C28.7075 29.8562 28.3606 30.088 28.0068 30.048L29.0625 20.6699Z" fill="#FF9F00"/>
<path d="M27.3194 11.0391L32.9094 11.6697L31.6475 22.8491L26.0581 22.2178L27.3194 11.0391Z" fill="#3D3C3F"/>
<path d="M30.1143 11.3545L32.9093 11.667L31.6474 22.8489L28.853 22.5332L30.1143 11.3545Z" fill="#1E150F"/>
<path d="M22.625 6.68755V29.1875C22.6263 29.311 22.6029 29.4335 22.5562 29.5478C22.5095 29.6621 22.4405 29.7659 22.3532 29.8533C22.2659 29.9406 22.1621 30.0096 22.0477 30.0562C21.9334 30.1029 21.811 30.1263 21.6875 30.125H2.875C2.35 30.125 1.875 29.7125 1.875 29.1875V6.68755C1.875 6.16255 2.35 5.75005 2.875 5.75005H21.6875C21.811 5.74879 21.9334 5.77219 22.0477 5.81886C22.1621 5.86553 22.2659 5.93454 22.3532 6.02184C22.4405 6.10915 22.5095 6.213 22.5562 6.3273C22.6029 6.44161 22.6263 6.56409 22.625 6.68755Z" fill="white"/>
<path d="M22.625 6.68755V29.1875C22.6263 29.311 22.6029 29.4335 22.5562 29.5478C22.5095 29.6621 22.4405 29.7659 22.3532 29.8533C22.2659 29.9406 22.1621 30.0096 22.0477 30.0562C21.9334 30.1029 21.811 30.1263 21.6875 30.125H12.25V5.75005H21.6875C21.811 5.74879 21.9334 5.77219 22.0477 5.81886C22.1621 5.86553 22.2659 5.93454 22.3532 6.02184C22.4405 6.10915 22.5095 6.213 22.5562 6.3273C22.6029 6.44161 22.6263 6.56409 22.625 6.68755Z" fill="white"/>
<path d="M6.6253 15.1253C6.50217 15.1254 6.38022 15.1012 6.26644 15.0541C6.15266 15.007 6.04927 14.938 5.96218 14.8509L4.08718 12.9759C3.9113 12.8001 3.8125 12.5615 3.8125 12.3128C3.8125 12.0641 3.9113 11.8255 4.08718 11.6497C4.26305 11.4738 4.50158 11.375 4.7503 11.375C4.99902 11.375 5.23755 11.4738 5.41343 11.6497L6.6253 12.8622L9.71218 9.77468C9.88805 9.5988 10.1266 9.5 10.3753 9.5C10.624 9.5 10.8626 9.5988 11.0384 9.77468C11.2143 9.95055 11.3131 10.1891 11.3131 10.4378C11.3131 10.6865 11.2143 10.9251 11.0384 11.1009L7.28843 14.8509C7.20133 14.938 7.09794 15.007 6.98416 15.0541C6.87038 15.1012 6.74844 15.1254 6.6253 15.1253Z" fill="#FAB80F"/>
<path d="M6.6253 21.6878C6.50217 21.6879 6.38022 21.6637 6.26644 21.6166C6.15266 21.5695 6.04927 21.5005 5.96218 21.4134L4.08718 19.5384C3.9113 19.3626 3.8125 19.124 3.8125 18.8753C3.8125 18.6266 3.9113 18.388 4.08718 18.2122C4.26305 18.0363 4.50158 17.9375 4.7503 17.9375C4.99902 17.9375 5.23755 18.0363 5.41343 18.2122L6.6253 19.4247L9.71218 16.3372C9.79926 16.2501 9.90264 16.181 10.0164 16.1339C10.1302 16.0868 10.2521 16.0625 10.3753 16.0625C10.4985 16.0625 10.6204 16.0868 10.7342 16.1339C10.848 16.181 10.9513 16.2501 11.0384 16.3372C11.1255 16.4243 11.1946 16.5276 11.2417 16.6414C11.2888 16.7552 11.3131 16.8771 11.3131 17.0003C11.3131 17.1235 11.2888 17.2454 11.2417 17.3592C11.1946 17.473 11.1255 17.5763 11.0384 17.6634L7.28843 21.4134C7.20133 21.5005 7.09794 21.5695 6.98416 21.6166C6.87038 21.6637 6.74844 21.6879 6.6253 21.6878Z" fill="#FAB80F"/>
<path d="M6.6253 28.2503C6.50217 28.2504 6.38022 28.2262 6.26644 28.1791C6.15266 28.132 6.04927 28.063 5.96218 27.9759L4.08718 26.1009C3.9113 25.9251 3.8125 25.6865 3.8125 25.4378C3.8125 25.1891 3.9113 24.9505 4.08718 24.7747C4.26305 24.5988 4.50158 24.5 4.7503 24.5C4.99902 24.5 5.23755 24.5988 5.41343 24.7747L6.6253 25.9872L9.71218 22.8997C9.88805 22.7238 10.1266 22.625 10.3753 22.625C10.624 22.625 10.8626 22.7238 11.0384 22.8997C11.2143 23.0755 11.3131 23.3141 11.3131 23.5628C11.3131 23.8115 11.2143 24.0501 11.0384 24.2259L7.28843 27.9759C7.20133 28.063 7.09794 28.132 6.98416 28.1791C6.87038 28.2262 6.74844 28.2504 6.6253 28.2503Z" fill="#FAB80F"/>
<path d="M19.8125 13.25H14.125C13.8764 13.25 13.6379 13.1512 13.4621 12.9754C13.2863 12.7996 13.1875 12.5611 13.1875 12.3125C13.1875 12.0639 13.2863 11.8254 13.4621 11.6496C13.6379 11.4738 13.8764 11.375 14.125 11.375H19.8125C20.0611 11.375 20.2996 11.4738 20.4754 11.6496C20.6512 11.8254 20.75 12.0639 20.75 12.3125C20.75 12.5611 20.6512 12.7996 20.4754 12.9754C20.2996 13.1512 20.0611 13.25 19.8125 13.25Z" fill="#8D8A94"/>
<path d="M19.8125 19.8125H14.125C13.8764 19.8125 13.6379 19.7137 13.4621 19.5379C13.2863 19.3621 13.1875 19.1236 13.1875 18.875C13.1875 18.6264 13.2863 18.3879 13.4621 18.2121C13.6379 18.0363 13.8764 17.9375 14.125 17.9375H19.8125C20.0611 17.9375 20.2996 18.0363 20.4754 18.2121C20.6512 18.3879 20.75 18.6264 20.75 18.875C20.75 19.1236 20.6512 19.3621 20.4754 19.5379C20.2996 19.7137 20.0611 19.8125 19.8125 19.8125Z" fill="#8D8A94"/>
<path d="M19.8125 26.375H14.125C13.8764 26.375 13.6379 26.2762 13.4621 26.1004C13.2863 25.9246 13.1875 25.6861 13.1875 25.4375C13.1875 25.1889 13.2863 24.9504 13.4621 24.7746C13.6379 24.5988 13.8764 24.5 14.125 24.5H19.8125C20.0611 24.5 20.2996 24.5988 20.4754 24.7746C20.6512 24.9504 20.75 25.1889 20.75 25.4375C20.75 25.6861 20.6512 25.9246 20.4754 26.1004C20.2996 26.2762 20.0611 26.375 19.8125 26.375Z" fill="#8D8A94"/>
<path d="M17.875 3.875V4.8125C17.8763 4.93596 17.8529 5.05843 17.8062 5.17274C17.7596 5.28705 17.6906 5.3909 17.6033 5.47821C17.5159 5.56551 17.4121 5.63452 17.2978 5.68119C17.1835 5.72786 17.061 5.75125 16.9375 5.75H7.56255C7.43909 5.75125 7.31661 5.72786 7.2023 5.68119C7.088 5.63452 6.98415 5.56551 6.89684 5.47821C6.80954 5.3909 6.74053 5.28705 6.69386 5.17274C6.64719 5.05843 6.62379 4.93596 6.62505 4.8125V3.875C6.62653 3.37818 6.82455 2.90212 7.17586 2.55081C7.52717 2.1995 8.00322 2.00148 8.50005 2H10.375C10.375 0.96875 11.2188 0 12.25 0C13.2813 0 14.125 0.96875 14.125 2H16C16.4969 2.00148 16.9729 2.1995 17.3242 2.55081C17.6755 2.90212 17.8736 3.37818 17.875 3.875Z" fill="#8D8A94"/>
<path d="M17.875 3.875V4.8125C17.8763 4.93596 17.8529 5.05843 17.8062 5.17274C17.7595 5.28705 17.6905 5.3909 17.6032 5.47821C17.5159 5.56551 17.4121 5.63452 17.2977 5.68119C17.1834 5.72786 17.061 5.75125 16.9375 5.75H12.25V0C13.2812 0 14.125 0.96875 14.125 2H16C16.4968 2.00148 16.9729 2.1995 17.3242 2.55081C17.6755 2.90212 17.8735 3.37818 17.875 3.875Z" fill="#3D3C3F"/>
</g>
<defs>
<clipPath id="clip0_1288_22006">
<rect width="33.4412" height="32" fill="white"/>
</clipPath>
</defs>
</svg>
