<svg width="16" height="16" viewBox="0 0 16 16" fill="none" xmlns="http://www.w3.org/2000/svg">
<path d="M8.17869 3.60156C6.0221 3.60156 4.26758 5.35609 4.26758 7.51267C4.26758 8.19223 4.42813 8.87257 4.73222 9.48035C5.03611 10.0879 5.48393 10.6247 6.02758 11.0327L6.22313 11.1793V13.8682C6.22313 14.677 6.88098 15.3349 7.6898 15.3349H8.66758C9.4764 15.3349 10.1342 14.677 10.1342 13.8682V11.1793L10.3298 11.0327C10.8732 10.6249 11.3213 10.0881 11.6252 9.48035C11.9291 8.87257 12.0898 8.19203 12.0898 7.51267C12.0898 5.35609 10.3353 3.60156 8.17869 3.60156ZM9.15647 13.8682C9.15647 14.1377 8.93705 14.3571 8.66758 14.3571H7.6898C7.42032 14.3571 7.20091 14.1377 7.20091 13.8682V13.3793H9.15647V13.8682ZM9.74313 10.2505L9.35202 10.5438C9.22902 10.6361 9.15647 10.781 9.15647 10.9349V12.4016H7.20091V10.9349C7.20091 10.781 7.12836 10.6361 7.00536 10.5438L6.61424 10.2505C5.75712 9.60727 5.24536 8.58393 5.24536 7.51267C5.24536 5.89523 6.56125 4.57934 8.17869 4.57934C9.79613 4.57934 11.112 5.89523 11.112 7.51267C11.112 8.58393 10.6003 9.60746 9.74313 10.2505Z" fill="black"/>
<path d="M8.66723 0.667969H7.68945V2.62352H8.66723V0.667969Z" fill="black"/>
<path d="M3.68358 2.32423L2.99219 3.01562L4.37525 4.39869L5.06664 3.70729L3.68358 2.32423Z" fill="black"/>
<path d="M12.6721 2.32397L11.2891 3.70703L11.9805 4.39842L13.3635 3.01536L12.6721 2.32397Z" fill="black"/>
<path d="M3.28954 7.02344H1.33398V8.00122H3.28954V7.02344Z" fill="black"/>
<path d="M15.022 7.02344H13.0664V8.00122H15.022V7.02344Z" fill="black"/>
</svg>
