<svg width="22" height="22" viewBox="0 0 22 22" fill="none" xmlns="http://www.w3.org/2000/svg">
<path d="M22 2.75C22 2.02065 21.7103 1.32118 21.1945 0.805456C20.6788 0.289731 19.9793 0 19.25 0L10.0833 0C9.35399 0 8.65451 0.289731 8.13879 0.805456C7.62306 1.32118 7.33333 2.02065 7.33333 2.75V4.58333H6.41667C5.68732 4.58333 4.98785 4.87306 4.47212 5.38879C3.9564 5.90451 3.66667 6.60399 3.66667 7.33333V9.16667H2.75C2.02065 9.16667 1.32118 9.4564 0.805456 9.97212C0.289731 10.4878 0 11.1873 0 11.9167L0 22H14.6667V17.4167H18.3333V12.8333H22V2.75ZM2.75 11H11.9167C12.1598 11 12.3929 11.0966 12.5648 11.2685C12.7368 11.4404 12.8333 11.6736 12.8333 11.9167V12.4538L9.16667 16.1205L7.38192 14.3348L1.83333 19.0905V11.9167C1.83333 11.6736 1.92991 11.4404 2.10182 11.2685C2.27373 11.0966 2.50688 11 2.75 11ZM12.8333 20.1667H3.39167L7.282 16.8318L9.16667 18.7128L12.8333 15.0462V20.1667ZM16.5 15.5833H14.6667V11.9167C14.6667 11.1873 14.3769 10.4878 13.8612 9.97212C13.3455 9.4564 12.646 9.16667 11.9167 9.16667H5.5V7.33333C5.5 7.09022 5.59658 6.85706 5.76849 6.68515C5.94039 6.51324 6.17355 6.41667 6.41667 6.41667H15.5833C15.8264 6.41667 16.0596 6.51324 16.2315 6.68515C16.4034 6.85706 16.5 7.09022 16.5 7.33333V15.5833ZM20.1667 11H18.3333V7.33333C18.3333 6.60399 18.0436 5.90451 17.5279 5.38879C17.0122 4.87306 16.3127 4.58333 15.5833 4.58333H9.16667V2.75C9.16667 2.50688 9.26324 2.27373 9.43515 2.10182C9.60706 1.92991 9.84022 1.83333 10.0833 1.83333H19.25C19.4931 1.83333 19.7263 1.92991 19.8982 2.10182C20.0701 2.27373 20.1667 2.50688 20.1667 2.75V11ZM3.66667 13.75C3.66667 13.5687 3.72043 13.3915 3.82115 13.2407C3.92188 13.09 4.06504 12.9725 4.23254 12.9031C4.40004 12.8337 4.58435 12.8156 4.76217 12.8509C4.93998 12.8863 5.10332 12.9736 5.23151 13.1018C5.35971 13.23 5.44702 13.3934 5.48239 13.5712C5.51776 13.749 5.4996 13.9333 5.43022 14.1008C5.36084 14.2683 5.24335 14.4115 5.09261 14.5122C4.94186 14.6129 4.76463 14.6667 4.58333 14.6667C4.34022 14.6667 4.10706 14.5701 3.93515 14.3982C3.76324 14.2263 3.66667 13.9931 3.66667 13.75Z" fill="currentColor"/>
</svg>
