<svg width="20" height="13" viewBox="0 0 20 13" fill="none" xmlns="http://www.w3.org/2000/svg">
<defs>
<clipPath id="clip0_1472_41232">
<rect width="20" height="13" fill="white"/>
</clipPath>
</defs>
<g clip-path="url(#clip0_1472_41232)">
<path d="M15.9425 0H2V10.0001H15.9425V0ZM14.87 9.00008H3.0725V1.00001H14.87V9.00008Z" fill="#EB8A00" stroke="#EB8A00" stroke-width="0.1"></path>
<path d="M17.0149 2.5V11.0001H4.68115V12.0001H18.0874V2.5H17.0149Z" fill="#EB8A00" stroke="#EB8A00" stroke-width="0.1"></path>
<path d="M8.97123 7.45206C10.3018 7.45206 11.3844 6.35402 11.3844 5.00435C11.3844 3.65468 10.3018 2.55664 8.97123 2.55664C7.64066 2.55664 6.55811 3.65465 6.55811 5.00435C6.55811 6.35405 7.64066 7.45206 8.97123 7.45206ZM8.97123 3.55665C9.71046 3.55665 10.3119 4.20609 10.3119 5.00435C10.3119 5.80261 9.71046 6.45205 8.97123 6.45205C8.23201 6.45205 7.63061 5.80261 7.63061 5.00435C7.63061 4.20609 8.23201 3.55665 8.97123 3.55665Z" fill="#EB8A00" stroke="#EB8A00" stroke-width="0.1"></path>
</g>
</svg>
