<svg width="24" height="24" viewBox="0 0 24 24" fill="none" xmlns="http://www.w3.org/2000/svg">
<path d="M5.74986 22C5.55806 21.9384 5.35658 21.8946 5.17616 21.8122C4.43797 21.4773 4.01566 20.9233 4.01111 20.1711C3.9946 17.2239 3.99745 14.2766 4.00883 11.3294C4.01282 10.3362 4.91435 9.5308 5.99915 9.50733C6.2325 9.50211 6.46642 9.50681 6.72994 9.50681C6.72994 9.427 6.72994 9.35866 6.72994 9.28981C6.72994 8.54804 6.7288 7.80628 6.72994 7.06451C6.73506 4.5252 8.65139 2.4663 11.3873 2.05995C14.2518 1.63482 17.0959 3.52001 17.5495 6.1527C17.6047 6.47246 17.6275 6.799 17.632 7.12294C17.6434 7.90904 17.636 8.69515 17.636 9.50472C17.8466 9.50472 18.0429 9.50472 18.2393 9.50472C19.4778 9.50837 20.3611 10.3127 20.3617 11.4462C20.3639 14.309 20.3634 17.1717 20.3617 20.0344C20.3617 21.0402 19.739 21.7475 18.6667 21.9692C18.6479 21.9728 18.6326 21.989 18.6155 21.9994H5.74986V22ZM12.1881 20.7506C14.1904 20.7506 16.1926 20.7506 18.1943 20.7506C18.7407 20.7506 18.9991 20.5123 18.9991 20.0084C18.9991 17.1712 18.9991 14.334 18.9991 11.4974C18.9991 10.9893 18.7453 10.7551 18.1943 10.7551C14.1898 10.7551 10.1858 10.7551 6.18128 10.7551C5.61839 10.7551 5.36569 10.9877 5.36569 11.5068C5.36569 14.3371 5.36569 17.1681 5.36569 19.9985C5.36569 20.517 5.61896 20.7512 6.18071 20.7512C8.18298 20.7512 10.1853 20.7512 12.187 20.7512L12.1881 20.7506ZM16.2638 9.49794C16.2638 8.56109 16.2655 7.64457 16.2621 6.72806C16.2621 6.618 16.2404 6.50793 16.2199 6.39891C15.8665 4.47981 13.9599 3.10635 11.8756 3.26649C9.73278 3.43133 8.10614 5.03536 8.09419 6.99879C8.08964 7.77968 8.09305 8.56056 8.09419 9.34145C8.09419 9.39153 8.10102 9.44161 8.10501 9.49794H16.2638Z" fill="#F92609"/>
<path d="M11.5021 17.1093C11.5021 16.8104 11.4958 16.511 11.5049 16.2121C11.5089 16.0921 11.4674 16.0326 11.3479 15.9763C10.6916 15.6664 10.3006 15.0113 10.374 14.3707C10.4554 13.6602 10.9574 13.0927 11.6717 12.9044C12.5681 12.6681 13.5027 13.0786 13.8607 13.8652C14.2175 14.6498 13.876 15.5517 13.0519 15.9575C12.9022 16.0311 12.8595 16.1083 12.8618 16.2548C12.8709 16.8271 12.8663 17.3993 12.8652 17.971C12.8641 18.3821 12.5806 18.6695 12.1817 18.6685C11.7844 18.6674 11.5038 18.3784 11.5027 17.9669C11.5015 17.681 11.5027 17.3946 11.5027 17.1088L11.5021 17.1093ZM12.6376 14.4933C12.6313 14.2726 12.4241 14.0869 12.1845 14.0864C11.9364 14.0864 11.7235 14.2852 11.7303 14.5115C11.7366 14.7322 11.9443 14.9184 12.1834 14.9184C12.4315 14.9184 12.6438 14.7197 12.6376 14.4928V14.4933Z" fill="#F92609"/>
</svg>
