<svg width="103" height="26" viewBox="0 0 103 26" fill="none" xmlns="http://www.w3.org/2000/svg">
<g clip-path="url(#clip0_2710_83896)">
<path d="M0 0V26L13.2479 13L0 0Z" fill="#222222"/>
<path d="M26.4972 0H0L13.2486 13L26.4972 0Z" fill="#222222"/>
<path d="M0 26H26.4972L13.2486 13L0 26Z" fill="#E4E4E4"/>
<path d="M26.4959 0L13.248 13L26.4959 26V0Z" fill="#FAB80F"/>
<path d="M40.9869 17.5086H36.1059L35.3814 19.0361H32.293V18.5852L37.8695 6.72266H39.2315L44.8246 18.5852V19.0361H41.7279L40.9869 17.5086ZM38.5319 11.6545L37.1326 14.8517H39.9685L38.5319 11.6545Z" fill="white"/>
<path d="M52.2866 15.4628C52.2866 14.6097 51.2599 14.4188 50.022 14.3497C47.3311 14.1588 45.5592 13.2569 45.526 10.6163C45.4184 5.3675 55.048 5.3675 54.9776 10.6163H51.9678C51.9678 8.99125 48.6559 9.1375 48.5317 10.5797C48.4613 11.5019 49.3845 11.6928 50.4981 11.7984C52.9573 12.0584 55.3667 12.4241 55.3667 15.4547C55.3667 20.5613 45.2776 20.6466 45.348 15.2963H48.4075C48.4075 16.8684 52.2866 16.8847 52.2866 15.4628Z" fill="white"/>
<path d="M56.3066 9.65766V6.87891H65.5139V9.65766H62.5166V19.038H59.3702V9.65766H56.3066Z" fill="white"/>
<path d="M66.959 9.65766V6.87891H76.1787V9.65766H73.1524V19.038H70.0184V9.65766H66.959Z" fill="white"/>
<path d="M75.9395 17.5607C75.9613 17.1189 76.1556 16.7023 76.482 16.3972C76.8084 16.0921 77.2419 15.9219 77.6927 15.9219C78.1435 15.9219 78.577 16.0921 78.9034 16.3972C79.2298 16.7023 79.4241 17.1189 79.446 17.5607C79.4442 17.7782 79.3972 17.9931 79.3078 18.1921C79.2184 18.3911 79.0885 18.5701 78.926 18.7181C78.7636 18.866 78.5721 18.9799 78.3632 19.0526C78.1543 19.1254 77.9325 19.1555 77.7114 19.1411C76.7178 19.1411 75.9395 18.5154 75.9395 17.5607Z" fill="#FAB80F"/>
<path d="M87.978 15.4628C87.978 14.6097 86.9513 14.4188 85.7134 14.3497C83.0225 14.1588 81.2547 13.2569 81.2174 10.6163C81.1098 5.3675 90.7394 5.3675 90.669 10.6163H87.6592C87.6592 8.99125 84.3473 9.1375 84.2272 10.5797C84.1568 11.5019 85.0759 11.6928 86.1895 11.7984C88.6528 12.0584 91.0581 12.4241 91.0581 15.4547C91.0581 20.5613 80.969 20.6466 81.0394 15.2963H84.103C84.103 16.8684 87.978 16.8847 87.978 15.4628Z" fill="white"/>
<path d="M99.8855 14.9389V6.87891H102.916V15.0039C102.916 17.6811 100.56 19.2248 98.0101 19.2248C95.4599 19.2248 93.0918 17.6811 93.0918 15.0039V6.87891H96.1181V14.9389C96.1181 15.9302 97.091 16.4177 98.0101 16.4177C98.9291 16.4177 99.8855 15.9302 99.8855 14.9389Z" fill="white"/>
</g>
<defs>
<clipPath id="clip0_2710_83896">
<rect width="102.917" height="26" fill="white"/>
</clipPath>
</defs>
</svg>
