<svg width="146px" height="37px" viewBox="0 0 103 26" fill="none" xmlns="http://www.w3.org/2000/svg">
    <g clip-path="url(#clip0_1866_76065)">
        <path d="M0 0V26L13.2479 13L0 0Z" fill="#222222"/>
        <path d="M26.4972 0H0L13.2486 13L26.4972 0Z" fill="#222222"/>
        <path d="M0 26H26.4972L13.2486 13L0 26Z" fill="#E4E4E4"/>
        <path d="M26.4964 0L13.2485 13L26.4964 26V0Z" fill="#FAB80F"/>
        <path d="M40.9876 17.5096H36.1066L35.3821 19.0371H32.2937V18.5861L37.8702 6.72363H39.2323L44.8254 18.5861V19.0371H41.7287L40.9876 17.5096ZM38.5326 11.6555L37.1333 14.8527H39.9692L38.5326 11.6555Z"
              fill="#222222"/>
        <path d="M52.2861 15.462C52.2861 14.6088 51.2594 14.4179 50.0216 14.3488C47.3306 14.1579 45.5587 13.256 45.5256 10.6154C45.4179 5.36665 55.0475 5.36665 54.9771 10.6154H51.9673C51.9673 8.9904 48.6554 9.13665 48.5312 10.5788C48.4608 11.501 49.384 11.692 50.4977 11.7976C52.9568 12.0576 55.3662 12.4232 55.3662 15.4538C55.3662 20.5604 45.2772 20.6457 45.3475 15.2954H48.407C48.407 16.8676 52.2861 16.8838 52.2861 15.462Z"
              fill="#222222"/>
        <path d="M56.3066 9.65668V6.87793H65.5139V9.65668H62.5166V19.037H59.3702V9.65668H56.3066Z" fill="#222222"/>
        <path d="M66.9592 9.65668V6.87793H76.1789V9.65668H73.1526V19.037H70.0187V9.65668H66.9592Z" fill="#222222"/>
        <path d="M75.9392 17.5617C75.9611 17.1199 76.1554 16.7033 76.4818 16.3981C76.8082 16.093 77.2417 15.9229 77.6925 15.9229C78.1433 15.9229 78.5768 16.093 78.9032 16.3981C79.2296 16.7033 79.4239 17.1199 79.4458 17.5617C79.444 17.7792 79.397 17.994 79.3075 18.1931C79.2181 18.3921 79.0882 18.571 78.9258 18.719C78.7634 18.867 78.5718 18.9809 78.363 19.0536C78.1541 19.1263 77.9323 19.1564 77.7111 19.142C76.7175 19.142 75.9392 18.5164 75.9392 17.5617Z"
              fill="#FAB80F"/>
        <path d="M87.9787 15.462C87.9787 14.6088 86.952 14.4179 85.7142 14.3488C83.0232 14.1579 81.2554 13.256 81.2182 10.6154C81.1105 5.36665 90.7401 5.36665 90.6697 10.6154H87.66C87.66 8.9904 84.348 9.13665 84.2279 10.5788C84.1576 11.501 85.0766 11.692 86.1903 11.7976C88.6536 12.0576 91.0589 12.4232 91.0589 15.4538C91.0589 20.5604 80.9698 20.6457 81.0402 15.2954H84.1037C84.1037 16.8676 87.9787 16.8838 87.9787 15.462Z"
              fill="#222222"/>
        <path d="M99.8857 14.9379V6.87793H102.916V15.0029C102.916 17.6801 100.561 19.2239 98.0103 19.2239C95.4601 19.2239 93.092 17.6801 93.092 15.0029V6.87793H96.1184V14.9379C96.1184 15.9292 97.0912 16.4167 98.0103 16.4167C98.9294 16.4167 99.8857 15.9292 99.8857 14.9379Z"
              fill="#222222"/>
    </g>
    <defs>
        <clipPath id="clip0_1866_76065">
            <rect width="102.917" height="26" fill="white"/>
        </clipPath>
    </defs>
</svg>
