<svg width="24" height="25" viewBox="0 0 24 25" fill="none" xmlns="http://www.w3.org/2000/svg">
<path d="M14.345 2.5H6.5C5.83696 2.5 5.20107 2.76339 4.73223 3.23223C4.26339 3.70107 4 4.33696 4 5V22.5H20.6667V8.82167L14.345 2.5ZM14.8333 5.345L17.8217 8.33333H14.8333V5.345ZM5.66667 20.8333V5C5.66667 4.77899 5.75447 4.56702 5.91075 4.41074C6.06703 4.25446 6.27899 4.16667 6.5 4.16667H13.1667V10H19V20.8333H5.66667ZM13.1667 14.1667H15.6667V15.8333H13.1667V18.3333H11.5V15.8333H9V14.1667H11.5V11.6667H13.1667V14.1667Z" fill="currentColor"/>
</svg>
