<svg width="25" height="24" viewBox="0 0 25 24" fill="none" xmlns="http://www.w3.org/2000/svg">
    <path d="M20.244 2H5.03485C3.64068 2 2.5 3.14068 2.5 4.53485V18.899H8.34706L11.5156 21.5691C11.8367 21.8564 12.2423 22 12.6479 22C13.045 22 13.4337 21.8648 13.7379 21.5944L16.9909 18.9075H22.7788V4.53485C22.7788 3.14068 21.6381 2 20.244 2ZM21.0889 17.2091H16.3826L12.6225 20.2847L8.96388 17.2091H4.1899V4.53485C4.1899 4.07013 4.57013 3.6899 5.03485 3.6899H20.244C20.7087 3.6899 21.0889 4.07013 21.0889 4.53485V17.2091Z"
          fill="currentColor"/>
    <path d="M13.6153 12.098H9.06445V10.7078H13.5737C13.9421 10.7078 14.2352 10.6504 14.453 10.5355C14.6748 10.4207 14.8352 10.2622 14.9342 10.0602C15.0332 9.85429 15.0828 9.6206 15.0828 9.3592C15.0828 9.10175 15.0293 8.86609 14.9223 8.65221C14.8194 8.43437 14.659 8.2601 14.4411 8.1294C14.2272 7.99473 13.9539 7.9274 13.6212 7.9274H12.0469V15.1814H10.2645V6.53125H13.6153C14.2965 6.53125 14.8788 6.65205 15.362 6.89365C15.8491 7.13526 16.2234 7.46796 16.4848 7.89175C16.7462 8.31555 16.877 8.80074 16.877 9.34731C16.877 9.92162 16.7423 10.4147 16.473 10.8266C16.2076 11.2386 15.8313 11.5534 15.3442 11.7713C14.861 11.9891 14.2847 12.098 13.6153 12.098ZM13.9421 12.5852V13.9754H9.06445V12.5852H13.9421Z"
          fill="currentColor"/>
</svg>
