<svg width="24" height="17" viewBox="0 0 24 17" fill="none" xmlns="http://www.w3.org/2000/svg">
<rect x="2.64908" y="14.9569" width="22.5" height="1.6" transform="rotate(-38 2.64908 14.9569)" fill="#EB8A00" stroke="white" stroke-width="0.5"/>
<path d="M5.04405 3.95H6.36655V12H5.04405V8.5155H1.59405V12H0.271553V3.95H1.59405V7.2505H5.04405V3.95ZM14.0132 10.735H14.8757V13.541H13.5532V12H8.66565V13.541H7.34315V10.735H8.09065C8.55832 10.1217 8.79215 9.19783 8.79215 7.9635V3.95H14.0132V10.735ZM9.53965 10.735H12.6907V5.192H10.1147V7.9865C10.1147 9.1825 9.92299 10.0987 9.53965 10.735ZM19.7221 12.1495C18.5108 12.1495 17.5064 11.7508 16.7091 10.9535C15.9118 10.1485 15.5131 9.15567 15.5131 7.975C15.5131 6.79433 15.9118 5.80533 16.7091 5.008C17.5064 4.203 18.5108 3.8005 19.7221 3.8005C20.4504 3.8005 21.1213 3.973 21.7346 4.318C22.3556 4.663 22.8386 5.13067 23.1836 5.721L22.0336 6.388C21.8189 5.98933 21.5046 5.675 21.0906 5.445C20.6843 5.20733 20.2281 5.0885 19.7221 5.0885C18.8634 5.0885 18.1658 5.36067 17.6291 5.905C17.1001 6.44933 16.8356 7.13933 16.8356 7.975C16.8356 8.81067 17.1001 9.50067 17.6291 10.045C18.1658 10.5893 18.8634 10.8615 19.7221 10.8615C20.2281 10.8615 20.6881 10.7465 21.1021 10.5165C21.5161 10.2788 21.8266 9.96067 22.0336 9.562L23.1836 10.2175C22.8463 10.8078 22.3671 11.2793 21.7461 11.632C21.1328 11.977 20.4581 12.1495 19.7221 12.1495Z" fill="#EB8A00"/>
</svg>
