<svg width="18" height="18" viewBox="0 0 18 18" fill="none" xmlns="http://www.w3.org/2000/svg">
    <path d="M12.1558 9.34417C12.6108 9.79917 12.6108 10.54 12.1558 10.995L9.6825 13.4683L8.86 12.6458L10.75 10.7558H5.5V9.58917H10.75L8.86 7.69917L9.6825 6.87667L12.1558 9.35V9.34417ZM16 6.08333V16H2V6.08333C2 5.12083 2.7875 4.33333 3.75 4.33333H5.5V3.16667C5.5 2.525 6.025 2 6.66667 2H11.3333C11.975 2 12.5 2.525 12.5 3.16667V4.33333H14.25C15.2125 4.33333 16 5.12083 16 6.08333ZM6.66667 4.33333H11.3333V3.16667H6.66667V4.33333ZM14.8333 6.08333C14.8333 5.7625 14.5708 5.5 14.25 5.5H3.75C3.42917 5.5 3.16667 5.7625 3.16667 6.08333V14.8333H14.8333V6.08333Z"
          fill="currentColor"/>
</svg>
