<svg width="16" height="20" viewBox="0 0 16 20" fill="none" xmlns="http://www.w3.org/2000/svg">
<path d="M11.0526 0H4.73684C3.86842 0 3.15789 0.75 3.15789 1.66667V15C3.15789 15.9167 3.86842 16.6667 4.73684 16.6667H14.2105C15.0789 16.6667 15.7895 15.9167 15.7895 15V5L11.0526 0ZM14.2105 15H4.73684V1.66667H10.2632V5.83333H14.2105V15ZM1.57895 3.33333V18.3333H14.2105V20H1.57895C0.710526 20 0 19.25 0 18.3333V3.33333H1.57895ZM6.31579 8.33333V10H12.6316V8.33333H6.31579ZM6.31579 11.6667V13.3333H10.2632V11.6667H6.31579Z" fill="currentColor"/>
</svg>
