<svg width="15" height="18" viewBox="0 0 15 18" fill="none" xmlns="http://www.w3.org/2000/svg">
<path d="M8.875 0.5H2.375C1.94402 0.5 1.5307 0.671205 1.22595 0.975951C0.921205 1.2807 0.75 1.69402 0.75 2.125V15.125C0.75 15.556 0.921205 15.9693 1.22595 16.274C1.5307 16.5788 1.94402 16.75 2.375 16.75H12.125C12.556 16.75 12.9693 16.5788 13.274 16.274C13.5788 15.9693 13.75 15.556 13.75 15.125V5.375L8.875 0.5Z" stroke="#9AA1A9" stroke-linecap="round" stroke-linejoin="round"/>
<path d="M8.875 0.5V5.375H13.75" stroke="#9AA1A9" stroke-linecap="round" stroke-linejoin="round"/>
<path d="M10.5 9.4375H4" stroke="#9AA1A9" stroke-linecap="round" stroke-linejoin="round"/>
<path d="M10.5 12.6875H4" stroke="#9AA1A9" stroke-linecap="round" stroke-linejoin="round"/>
<path d="M5.625 6.1875H4.8125H4" stroke="#9AA1A9" stroke-linecap="round" stroke-linejoin="round"/>
</svg>
