<svg width="40" height="40" viewBox="0 0 40 40" fill="none" xmlns="http://www.w3.org/2000/svg">
<g clip-path="url(#clip0_1077_3093)">
<path d="M26.5073 0C26.8198 0.25 27.149 0.473958 27.4292 0.753125C29.825 3.13542 32.2094 5.53229 34.6073 7.91354C34.7918 8.08478 34.9377 8.29339 35.0352 8.52546C35.1328 8.75753 35.1797 9.00773 35.1729 9.25938C35.1625 18.2274 35.1601 27.1958 35.1656 36.1646C35.1656 38.4646 33.6927 39.9292 31.3813 39.9292H8.52604C6.21563 39.9292 4.74583 38.4635 4.74583 36.1604C4.74583 25.3965 4.74583 14.6344 4.74583 3.87396C4.74583 1.76562 5.68333 0.559375 7.72083 0.0385417C7.74464 0.0286432 7.76705 0.0156871 7.7875 0L26.5073 0ZM25.026 2.33958H8.48229C7.52188 2.33958 7.08333 2.77917 7.08333 3.75V36.1844C7.08333 37.149 7.52188 37.5896 8.48438 37.5896H31.4115C32.3812 37.5896 32.8229 37.1531 32.8229 36.1948C32.8229 27.6531 32.8229 19.1153 32.8229 10.5813V10.1385H32.3542C30.3403 10.1385 28.3264 10.1385 26.3125 10.1385C25.5042 10.1385 25.0271 9.66146 25.026 8.85521C25.026 7.21771 25.026 5.58021 25.026 3.94271V2.33958ZM31.0292 7.77708L27.3885 4.13646V7.77708H31.0292Z" fill="#EB8A00"/>
<path d="M19.9469 27.2917C19.0375 27.2917 18.1271 27.3011 17.2177 27.2855C16.9542 27.2855 16.801 27.35 16.6656 27.598C16.2698 28.3271 15.8531 29.048 15.4229 29.7584C15.0611 30.3755 14.5011 30.852 13.8341 31.1106C13.1671 31.3691 12.4322 31.3944 11.749 31.1823C10.3792 30.7657 9.4573 29.4542 9.50313 27.9792C9.55521 26.3823 10.9167 25.0063 12.5146 24.9584C13.3979 24.9355 14.2854 24.9438 15.1667 24.9584C15.2672 24.9706 15.3691 24.951 15.4579 24.9022C15.5467 24.8534 15.6179 24.778 15.6615 24.6865C16.5802 23.074 17.508 21.466 18.4448 19.8625C18.5781 19.6365 18.5573 19.475 18.4302 19.2615C17.9854 18.5146 17.5365 17.7678 17.1313 16.999C16.7706 16.3123 16.6749 15.517 16.8623 14.7643C17.0498 14.0116 17.5073 13.3541 18.1479 12.9167C18.7817 12.4838 19.5499 12.2932 20.3126 12.3796C21.0752 12.466 21.7813 12.8238 22.3021 13.3875C22.7609 13.8824 23.0489 14.5113 23.1239 15.182C23.1989 15.8526 23.0569 16.5296 22.7188 17.1136C22.3094 17.8511 21.8667 18.5719 21.4688 19.3136C21.4313 19.3953 21.4119 19.4841 21.4119 19.574C21.4119 19.6639 21.4313 19.7527 21.4688 19.8344C22.3896 21.4584 23.3333 23.073 24.2594 24.6969C24.2997 24.783 24.366 24.8541 24.449 24.9003C24.5321 24.9465 24.6275 24.9654 24.7219 24.9542C25.5552 24.9428 26.3885 24.9438 27.2219 24.9542C28.8323 24.9698 30.0865 26.0428 30.3771 27.6448C30.6354 29.0636 29.7573 30.5803 28.3708 31.1084C27.6653 31.3808 26.8857 31.3925 26.1723 31.1414C25.4589 30.8903 24.8585 30.3929 24.4792 29.7386C24.0521 29.0261 23.6379 28.3056 23.2365 27.5771C23.1125 27.3511 22.9688 27.2792 22.7156 27.2834C21.7938 27.299 20.8698 27.2917 19.9469 27.2917ZM18.2156 24.9261H21.6958C21.1115 23.9157 20.55 22.9469 19.9563 21.9157L18.2156 24.9261ZM19.9552 17.2334C20.2344 16.7469 20.4865 16.3407 20.7052 15.9178C20.7969 15.7441 20.823 15.5432 20.7786 15.3519C20.7342 15.1606 20.6223 14.9916 20.4635 14.8761C20.3166 14.7682 20.1391 14.71 19.9568 14.71C19.7745 14.71 19.5969 14.7682 19.45 14.8761C19.2901 14.9908 19.1772 15.1594 19.132 15.3509C19.0868 15.5424 19.1125 15.7437 19.2042 15.9178C19.424 16.3365 19.675 16.7428 19.9552 17.2313V17.2334ZM14.1458 27.2917C13.6031 27.2917 13.1385 27.2823 12.674 27.2917C12.4777 27.2918 12.2878 27.3611 12.1376 27.4874C11.9875 27.6137 11.8867 27.789 11.8531 27.9823C11.8252 28.1693 11.8589 28.3602 11.9491 28.5264C12.0393 28.6925 12.1811 28.8247 12.3531 28.9032C12.5342 28.9796 12.7362 28.9901 12.9242 28.9331C13.1122 28.876 13.2743 28.7548 13.3823 28.5907C13.6396 28.1938 13.8656 27.774 14.1458 27.2917ZM25.7646 27.2917C26.05 27.7792 26.2802 28.2115 26.5479 28.6188C26.6603 28.7797 26.8263 28.8955 27.0162 28.9453C27.2061 28.9951 27.4075 28.9757 27.5844 28.8907C27.748 28.8101 27.8819 28.6799 27.967 28.5186C28.0522 28.3573 28.0841 28.1733 28.0583 27.9928C28.0265 27.7991 27.9273 27.623 27.7783 27.4953C27.6293 27.3676 27.44 27.2966 27.2438 27.2948C26.7781 27.2823 26.3125 27.2917 25.7646 27.2917Z" fill="#EB8A00"/>
</g>
<defs>
<clipPath id="clip0_1077_3093">
<rect width="40" height="40" fill="white"/>
</clipPath>
</defs>
</svg>
