<svg width="17" height="17" viewBox="0 0 17 17" fill="none" xmlns="http://www.w3.org/2000/svg">
<path d="M16.2491 0.750876C15.7676 0.270058 15.1149 0 14.4344 0C13.7539 0 13.1012 0.270058 12.6196 0.750876L0 13.3705V17H3.62949L16.2491 4.38037C16.7298 3.89872 16.9997 3.24607 16.9997 2.56562C16.9997 1.88518 16.7298 1.23252 16.2491 0.750876ZM3.04583 15.5833H1.41666V13.9542L10.8446 4.53337L12.4737 6.16253L3.04583 15.5833ZM15.2475 3.37879L13.4718 5.15457L11.8461 3.52541L13.6212 1.75246C13.8373 1.53642 14.1303 1.41505 14.4358 1.41505C14.7413 1.41505 15.0343 1.53642 15.2504 1.75246C15.4664 1.9685 15.5878 2.26151 15.5878 2.56704C15.5878 2.87257 15.4664 3.16558 15.2504 3.38162L15.2475 3.37879Z" fill="currentColor"/>
</svg>
