<svg width="24" height="24" viewBox="0 0 24 24" fill="none" xmlns="http://www.w3.org/2000/svg">
    <path d="M21.9618 17.2252V20.0854C21.9628 20.3509 21.9085 20.6138 21.8021 20.8571C21.6957 21.1004 21.5397 21.3188 21.344 21.4983C21.1484 21.6778 20.9174 21.8144 20.6658 21.8995C20.4143 21.9846 20.1478 22.0162 19.8833 21.9923C16.9495 21.6735 14.1313 20.671 11.6553 19.0653C9.35165 17.6014 7.39857 15.6484 5.93474 13.3447C4.32344 10.8574 3.32069 8.02557 3.00774 5.07855C2.98391 4.8149 3.01525 4.54917 3.09974 4.2983C3.18424 4.04742 3.32005 3.81688 3.49853 3.62136C3.677 3.42585 3.89424 3.26963 4.13639 3.16267C4.37855 3.05571 4.64032 3.00034 4.90505 3.00009H7.76532C8.22802 2.99554 8.67659 3.15939 9.02742 3.4611C9.37825 3.76282 9.6074 4.18181 9.67216 4.63998C9.79288 5.55533 10.0168 6.45408 10.3396 7.31909C10.4678 7.66035 10.4956 8.03122 10.4196 8.38777C10.3435 8.74431 10.1669 9.07159 9.91051 9.33082L8.69967 10.5417C10.0569 12.9286 12.0333 14.9049 14.4202 16.2622L15.631 15.0513C15.8903 14.795 16.2175 14.6184 16.5741 14.5423C16.9306 14.4663 17.3015 14.494 17.6428 14.6223C18.5078 14.9451 19.4065 15.169 20.3219 15.2897C20.785 15.355 21.208 15.5883 21.5104 15.9452C21.8127 16.302 21.9734 16.7576 21.9618 17.2252Z"
          stroke="currentColor" stroke-width="2" stroke-linecap="round" stroke-linejoin="round"/>
</svg>
