<svg width="40" height="40" viewBox="0 0 40 40" fill="none" xmlns="http://www.w3.org/2000/svg">
<g clip-path="url(#clip0_1077_3109)">
<path d="M26.5073 0C26.8198 0.25 27.1489 0.473958 27.4292 0.753125C29.825 3.13542 32.2094 5.53229 34.6073 7.91354C34.7918 8.08478 34.9377 8.29339 35.0352 8.52546C35.1328 8.75753 35.1797 9.00773 35.1729 9.25938C35.1625 18.2274 35.1601 27.1958 35.1656 36.1646C35.1656 38.4646 33.6927 39.9292 31.3812 39.9292H8.52603C6.21561 39.9292 4.74582 38.4635 4.74582 36.1604C4.74582 25.3965 4.74582 14.6344 4.74582 3.87396C4.74582 1.76562 5.68332 0.559375 7.72082 0.0385417C7.74462 0.0286432 7.76703 0.0156871 7.78749 0L26.5073 0ZM32.826 10.1385H32.3573C30.3691 10.1385 28.3802 10.1385 26.3906 10.1385C25.4792 10.1385 25.026 9.68646 25.026 8.77604C25.026 6.77535 25.026 4.77431 25.026 2.77292V2.33958H8.52082C7.50624 2.33958 7.08332 2.76458 7.08332 3.78854V36.1458C7.08332 37.1646 7.50728 37.5896 8.52394 37.5896H31.3364C32.4135 37.5896 32.826 37.1813 32.826 36.1156V10.1385ZM27.3802 7.76875H30.976L27.3802 4.17292V7.76875Z" fill="#EB8A00"/>
<path d="M18.7854 24.9562H20.5385C22.1107 24.9562 23.683 24.9562 25.2552 24.9562C26.1312 24.9562 26.5937 25.4322 26.5833 26.3104C26.5302 30.727 23.0416 34.5583 18.6583 35.0229C13.7969 35.5374 9.50206 32.2645 8.7406 27.4645C7.9531 22.4968 11.5791 17.7666 16.5948 17.2208C16.8916 17.1885 17.1896 17.1624 17.4875 17.1583C18.2927 17.1468 18.7823 17.626 18.7844 18.4281C18.7844 20.4416 18.7844 22.4552 18.7844 24.4697L18.7854 24.9562ZM16.4458 19.6291C13.6239 20.0458 10.7083 22.7791 11.0083 26.6416C11.1428 28.3793 11.9563 29.9941 13.2726 31.1364C14.589 32.2787 16.3023 32.8565 18.0416 32.7447C21.0448 32.5614 24.1791 29.7416 24.075 27.2958H23.651C21.6885 27.2958 19.7264 27.2958 17.7646 27.2958C16.9094 27.2958 16.4469 26.827 16.4458 25.9666C16.4458 24.5777 16.4458 23.1888 16.4458 21.7999V19.6291Z" fill="#EB8A00"/>
<path d="M21.126 17.5448C21.126 16.3226 21.126 15.1011 21.126 13.8803C21.126 12.9146 21.576 12.4667 22.5281 12.4813C26.9219 12.5469 30.7375 16.0355 31.1958 20.4084C31.2377 20.7568 31.2593 21.1074 31.2604 21.4584C31.2626 21.7617 31.1445 22.0536 30.9318 22.27C30.7192 22.4863 30.4294 22.6095 30.126 22.6126C27.501 22.6237 24.876 22.6237 22.251 22.6126C21.5969 22.6126 21.1323 22.0917 21.1281 21.4073C21.1208 20.1167 21.126 18.8303 21.126 17.5448ZM23.4927 14.9563V20.2771H28.5417C28.6177 20.2771 28.6937 20.2698 28.7708 20.2657C28.5417 18.0115 26.3802 15.3782 23.4927 14.9563Z" fill="#EB8A00"/>
</g>
<defs>
<clipPath id="clip0_1077_3109">
<rect width="40" height="40" fill="white"/>
</clipPath>
</defs>
</svg>
