<svg id="eBF3uQAIi1q1" xmlns="http://www.w3.org/2000/svg" xmlns:xlink="http://www.w3.org/1999/xlink" viewBox="0 0 190.3 204.3" shape-rendering="geometricPrecision" text-rendering="geometricPrecision">
<style><![CDATA[
#eBF3uQAIi1q2_tr {animation: eBF3uQAIi1q2_tr__tr 1000ms linear infinite normal forwards}@keyframes eBF3uQAIi1q2_tr__tr { 0% {transform: translate(100.007664px,100.016483px) rotate(-90deg)} 30% {transform: translate(100.007664px,100.016483px) rotate(0deg);animation-timing-function: cubic-bezier(0.6,0.04,0.98,0.335)} 70% {transform: translate(100.007664px,100.016483px) rotate(90deg)} 100% {transform: translate(100.007664px,100.016483px) rotate(240deg)}} #eBF3uQAIi1q2 {animation: eBF3uQAIi1q2_c_o 1000ms linear infinite normal forwards}@keyframes eBF3uQAIi1q2_c_o { 0% {opacity: 0} 20% {opacity: 1} 80% {opacity: 1} 100% {opacity: 0}} #eBF3uQAIi1q3_to {animation: eBF3uQAIi1q3_to__to 1000ms linear infinite normal forwards}@keyframes eBF3uQAIi1q3_to__to { 0% {transform: translate(100.007715px,149.306418px)} 30% {transform: translate(100.087714px,114.305779px)} 70% {transform: translate(100.007714px,114.390059px)} 100% {transform: translate(100.007715px,149.306418px)}} #eBF3uQAIi1q4_to {animation: eBF3uQAIi1q4_to__to 1000ms linear infinite normal forwards}@keyframes eBF3uQAIi1q4_to__to { 0% {transform: translate(100.027714px,65.602114px)} 30% {transform: translate(100.027714px,85.602114px)} 70% {transform: translate(100.027714px,85.602114px)} 100% {transform: translate(100.027714px,65.602114px)}} #eBF3uQAIi1q5_to {animation: eBF3uQAIi1q5_to__to 1000ms linear infinite normal forwards}@keyframes eBF3uQAIi1q5_to__to { 0% {transform: translate(149.240381px,99.986085px)} 30% {transform: translate(114.411684px,99.986085px)} 70% {transform: translate(114.411684px,99.986085px)} 100% {transform: translate(149.240381px,99.986085px)}} #eBF3uQAIi1q6_to {animation: eBF3uQAIi1q6_to__to 1000ms linear infinite normal forwards}@keyframes eBF3uQAIi1q6_to__to { 0% {transform: translate(65.712133px,99.904349px)} 30% {transform: translate(85.712133px,99.904349px)} 70% {transform: translate(85.712133px,99.904349px)} 100% {transform: translate(65.712133px,99.904349px)}}
]]></style>
<g id="eBF3uQAIi1q2_tr" transform="translate(100.007664,100.016483) rotate(-90)"><g id="eBF3uQAIi1q2" transform="translate(-100.007664,-100.016483)" opacity="0"><g id="eBF3uQAIi1q3_to" transform="translate(100.007715,149.306418)"><path d="M31.6,165.7c7.1,7.1,16.8,11.4,27.6,11.4h71.9c10.8,0,20.6-4.4,27.6-11.4L95.1,102.1L31.6,165.7Z" transform="scale(0.384106,0.384106) translate(-95.150007,-139.599995)" fill="#e4e4e4"/></g><g id="eBF3uQAIi1q4_to" transform="translate(100.027714,65.602114)"><path d="M31.6,165.7c7.1,7.1,16.8,11.4,27.6,11.4h71.9c10.8,0,20.6-4.4,27.6-11.4L95.1,102.1L31.6,165.7Z" transform="scale(0.384106,-0.384106) translate(-95.150007,-139.599995)" fill="#222" stroke="#222"/></g><g id="eBF3uQAIi1q5_to" transform="translate(149.240381,99.986085)"><path d="M158.7,165.7c7.1-7.1,11.4-16.8,11.4-27.6v-71.9c0-10.8-4.4-20.6-11.4-27.6L95.1,102.2l63.6,63.5Z" transform="scale(0.384106,0.384106) translate(-132.599995,-102.149998)" opacity="0.95" fill="#fab80f"/></g><g id="eBF3uQAIi1q6_to" transform="translate(65.712133,99.904349)"><path d="M158.7,165.7c7.1-7.1,11.4-16.8,11.4-27.6v-71.9c0-10.8-4.4-20.6-11.4-27.6L95.1,102.2l63.6,63.5Z" transform="scale(-0.384106,0.384106) translate(-132.6,-102.150001)" fill="#222" stroke="#222"/></g></g></g></svg>
