<svg width="21" height="20" viewBox="0 0 21 20" fill="none" xmlns="http://www.w3.org/2000/svg">
<path d="M1.69721 20H0V13.2111C0.00157061 11.1871 0.805918 9.24625 2.2366 7.81446C3.66727 6.38266 5.60745 5.5768 7.63152 5.57366L11.7413 5.44297V0L19.6223 7.88612C20.0996 8.36353 20.3677 9.01095 20.3677 9.68601C20.3677 10.3611 20.0996 11.0085 19.6223 11.4859L11.743 19.372V13.9291L7.63152 14.0597C6.05751 14.0627 4.54889 14.6896 3.43646 15.8032C2.32402 16.9167 1.69856 18.426 1.69721 20V20ZM7.63746 12.3625L13.4436 12.2318V15.2749L18.4283 10.286C18.5874 10.1268 18.6768 9.91103 18.6768 9.68601C18.6768 9.46099 18.5874 9.24519 18.4283 9.08605L13.4394 4.09708V7.14019L7.63152 7.27088C6.05648 7.27222 4.54634 7.8985 3.43262 9.01223C2.3189 10.1259 1.69262 11.6361 1.69127 13.2111V15.2045C2.4059 14.3168 3.31053 13.6006 4.33857 13.1088C5.36661 12.6169 6.49188 12.3619 7.63152 12.3625H7.63746Z" fill="currentColor"/>
</svg>
