<svg width="18" height="18" viewBox="0 0 24 24" fill="none" xmlns="http://www.w3.org/2000/svg">
<g clip-path="url(#clip0_1398_29953)">
<path d="M24.0077 11.4434V11.7715C23.9399 11.874 23.8865 11.9858 23.8022 12.0699C21.9865 13.8906 20.1687 15.7085 18.3488 17.5234C18.0626 17.8085 17.7101 17.8039 17.4213 17.5173C16.6881 16.7906 15.9579 16.0607 15.2306 15.3275C14.9443 15.0389 14.9469 14.6949 15.2306 14.4047C15.3585 14.2724 15.4988 14.1524 15.6139 14.0458L14.1077 12.5333C14.0774 12.5692 14.0368 12.6246 13.9885 12.6728C11.4985 15.1618 9.00858 17.6523 6.51863 20.1443C6.1106 20.5545 5.6851 20.9093 5.09259 21H4.68148C4.64322 20.9875 4.60428 20.9772 4.56483 20.9692C4.17077 20.9031 3.80846 20.7123 3.53142 20.425C3.25437 20.1377 3.07727 19.7691 3.02625 19.3737C2.93632 18.7042 3.18042 18.1612 3.64754 17.6952C6.20636 15.1406 8.76397 12.585 11.3204 10.0283C11.3697 9.98383 11.4223 9.94305 11.4776 9.9063L9.96064 8.39436C9.87482 8.48665 9.77564 8.59944 9.66978 8.70608C9.29978 9.07778 8.97912 9.07932 8.61169 8.71326C7.92993 8.03137 7.24835 7.35 6.56693 6.66914C6.1661 6.26821 6.16559 5.96572 6.56693 5.56582C8.29154 3.84043 10.0172 2.11606 11.7438 0.392725C11.8908 0.246606 12.0676 0.130225 12.2305 0H12.5589C12.6575 0.0692139 12.768 0.126123 12.8523 0.209692C13.5865 0.936353 14.317 1.66575 15.044 2.39788C15.3385 2.69524 15.3308 3.03823 15.0373 3.33918C14.9104 3.46992 14.7758 3.58887 14.673 3.6873L20.3206 9.33464C20.4049 9.24338 20.503 9.12957 20.6089 9.02395C20.9768 8.6543 21.3021 8.65225 21.668 9.01677C22.3119 9.65867 22.9568 10.2985 23.5951 10.9471C23.7457 11.0993 23.8716 11.2793 24.0077 11.4434ZM19.3571 10.2354L13.7742 4.65527L10.9478 7.4792L16.5312 13.0599L19.3571 10.2354ZM12.3487 10.7528C12.3096 10.7897 12.2587 10.8338 12.2115 10.8814C9.64923 13.4418 7.0875 16.0028 4.52629 18.5642C4.46147 18.6253 4.40262 18.6924 4.35054 18.7646C4.29278 18.8476 4.25574 18.9432 4.24251 19.0433C4.22928 19.1435 4.24025 19.2454 4.27449 19.3404C4.30874 19.4355 4.36527 19.521 4.43938 19.5899C4.51348 19.6587 4.60301 19.7089 4.7005 19.7362C5.00472 19.8264 5.22517 19.689 5.43021 19.484C7.99485 16.9167 10.5619 14.3505 13.1313 11.7853C13.1786 11.7382 13.2218 11.6879 13.2516 11.6556L12.3487 10.7528ZM12.4119 1.55911L7.83829 6.13081L9.13585 7.43101L13.7094 2.85776L12.4119 1.55911ZM17.8719 16.194L22.4496 11.6192L21.1433 10.3144L16.5631 14.8897C16.9896 15.3142 17.4341 15.7577 17.8719 16.194Z" fill="currentColor"/>
</g>
<defs>
<clipPath id="clip0_1398_29953">
<rect width="24" height="24" fill="currentColor"/>
</clipPath>
</defs>
</svg>
