<svg width="15" height="18" viewBox="0 0 15 18" fill="none" xmlns="http://www.w3.org/2000/svg">
<path d="M9.3105 0H2.25C1.65326 0 1.08097 0.237053 0.65901 0.65901C0.237053 1.08097 0 1.65326 0 2.25V18H15V5.6895L9.3105 0ZM9.75001 2.5605L12.4395 5.25H9.75001V2.5605ZM1.5 16.5V2.25C1.5 2.05109 1.57902 1.86032 1.71967 1.71967C1.86032 1.57902 2.05109 1.5 2.25 1.5H8.25V6.75H13.5V16.5H1.5ZM10.4678 9.34275L8.5605 11.25L10.4678 13.1572L9.40726 14.2178L7.5 12.3105L5.59275 14.2178L4.53225 13.1572L6.4395 11.25L4.53225 9.34275L5.59275 8.28225L7.5 10.1895L9.40726 8.28225L10.4678 9.34275Z" fill="currentColor"/>
</svg>
