<svg width="18" height="18" viewBox="0 0 18 18" fill="none" xmlns="http://www.w3.org/2000/svg">
<path d="M17.5 17.5H8.75C7.01942 17.5 5.32769 16.9868 3.88876 16.0254C2.44983 15.0639 1.32832 13.6973 0.666058 12.0985C0.00379125 10.4996 -0.169488 8.7403 0.168133 7.04296C0.505753 5.34563 1.33911 3.78653 2.56282 2.56282C3.78653 1.33911 5.34563 0.505753 7.04296 0.168133C8.7403 -0.169488 10.4996 0.00379125 12.0985 0.666058C13.6973 1.32832 15.0639 2.44983 16.0254 3.88876C16.9868 5.32769 17.5 7.01942 17.5 8.75V17.5ZM8.75 1.45834C6.81613 1.45834 4.96147 2.22656 3.59402 3.59402C2.22656 4.96147 1.45834 6.81613 1.45834 8.75C1.45834 10.6839 2.22656 12.5385 3.59402 13.906C4.96147 15.2734 6.81613 16.0417 8.75 16.0417H16.0417V8.75C16.0395 6.81678 15.2706 4.96335 13.9036 3.59636C12.5367 2.22937 10.6832 1.46046 8.75 1.45834ZM8.68365 11.9722L13.6354 7.08167L12.6146 6.04334L7.65188 10.9288L4.88542 8.22865L3.86459 9.27136L6.62448 11.9693C6.89781 12.2416 7.2679 12.3944 7.6537 12.3944C8.03951 12.3944 8.40959 12.2416 8.68292 11.9693L8.68365 11.9722Z" fill="#EB8A00"/>
</svg>
