<svg width="18" height="18" viewBox="0 0 24 24" fill="none" xmlns="http://www.w3.org/2000/svg">
<g clip-path="url(#clip0_2985_14940)">
<path d="M24.0001 22.5889L17.7503 16.3391C21.245 12.065 20.6131 5.76722 16.3391 2.27254C12.065 -1.22213 5.76722 -0.590299 2.27255 3.68381C-1.22212 7.95792 -0.590296 14.2557 3.68377 17.7503C7.36524 20.7605 12.6576 20.7605 16.339 17.7503L22.5889 24.0001L24.0001 22.5889ZM10.0274 18.0118C5.61774 18.0118 2.043 14.4371 2.043 10.0274C2.043 5.61773 5.61774 2.043 10.0274 2.043C14.4371 2.043 18.0118 5.61773 18.0118 10.0274C18.0068 14.435 14.435 18.0068 10.0274 18.0118ZM11.9985 6.0352C11.2719 6.02634 10.5673 6.28453 10.0184 6.76078C9.45778 6.28308 8.7428 6.02526 8.00635 6.0352C6.29916 6.09379 4.96064 7.52156 5.0122 9.22898C5.0122 11.9656 8.97347 14.847 9.42558 15.1664L10.0025 15.5745L10.5783 15.1664C11.0304 14.847 14.9927 11.9656 14.9927 9.22898C15.0437 7.52175 13.7055 6.09431 11.9985 6.0352ZM10.0025 13.1024C8.60522 11.9926 7.00833 10.3009 7.00833 9.22898C6.9585 8.62434 7.40264 8.09137 8.00639 8.03133C8.53547 7.99612 8.99292 8.39653 9.02813 8.92561C9.03042 8.96015 9.03084 8.99479 9.02939 9.02934H11.0255C10.9785 8.52604 11.3485 8.08008 11.8518 8.03315C11.9006 8.02861 11.9497 8.028 11.9985 8.03128C12.602 8.09184 13.0459 8.62444 12.9966 9.22894C12.9966 10.3009 11.3957 11.9925 10.0025 13.1024Z" fill="currentColor"/>
</g>
<defs>
<clipPath id="clip0_2985_14940">
<rect width="24" height="24" fill="white"/>
</clipPath>
</defs>
</svg>
