<svg width="24" height="24" viewBox="0 0 24 24" fill="none" xmlns="http://www.w3.org/2000/svg">
<path d="M19.5 4L20.3415 4.31926L21.0272 2.51195L19.2027 3.15053L19.5 4ZM13.4294 20L12.607 20.3655L13.4951 22.3639L14.2709 20.3193L13.4294 20ZM10.2294 12.8L11.0518 12.4345C10.9646 12.2381 10.81 12.0795 10.6159 11.9872L10.2294 12.8ZM3.5 9.6L3.20268 8.75053L1.13774 9.47326L3.1135 10.4128L3.5 9.6ZM18.6585 3.68074L12.5879 19.6807L14.2709 20.3193L20.3415 4.31926L18.6585 3.68074ZM14.2518 19.6345L11.0518 12.4345L9.40698 13.1655L12.607 20.3655L14.2518 19.6345ZM10.6159 11.9872L3.8865 8.78722L3.1135 10.4128L9.84291 13.6128L10.6159 11.9872ZM3.79732 10.4495L19.7973 4.84947L19.2027 3.15053L3.20268 8.75053L3.79732 10.4495Z" fill="currentColor"/>
</svg>
