<svg width="14" height="18" viewBox="0 0 14 18" fill="none" xmlns="http://www.w3.org/2000/svg">
<path d="M13.625 17.5H0.5V15.3125C0.543602 14.0515 0.854956 12.8142 1.41339 11.6828C1.97182 10.5513 2.76455 9.5516 3.73896 8.75C2.76455 7.9484 1.97182 6.94869 1.41339 5.81725C0.854956 4.6858 0.543602 3.4485 0.5 2.1875C0.5 1.60734 0.730468 1.05094 1.1407 0.640704C1.55094 0.230468 2.10734 0 2.6875 0L11.4375 0C12.0177 0 12.5741 0.230468 12.9843 0.640704C13.3945 1.05094 13.625 1.60734 13.625 2.1875C13.582 3.44735 13.2721 4.68373 12.7159 5.81497C12.1597 6.94622 11.3698 7.94659 10.3984 8.75C11.3698 9.55341 12.1597 10.5538 12.7159 11.685C13.2721 12.8163 13.582 14.0527 13.625 15.3125V17.5ZM1.95833 16.0417H12.1667V15.3125C12.1667 12.5606 10.3437 10.535 8.81833 9.32094L8.10083 8.75L8.81833 8.17906C10.3437 6.965 12.1667 4.93937 12.1667 2.1875C12.1667 1.99411 12.0898 1.80865 11.9531 1.6719C11.8164 1.53516 11.6309 1.45833 11.4375 1.45833H2.6875C2.49411 1.45833 2.30865 1.53516 2.1719 1.6719C2.03516 1.80865 1.95833 1.99411 1.95833 2.1875C1.95833 4.93937 3.78708 6.96427 5.32125 8.17833L6.04167 8.75L5.31906 9.32167C3.78708 10.5357 1.95833 12.5606 1.95833 15.3125V16.0417ZM7.07562 11.6535C7.61416 12.0756 8.09104 12.5709 8.4924 13.125H5.65375L7.07562 11.6535ZM7.07271 9.85323C5.87906 10.6356 3.84323 12.2814 3.475 14.5833H10.6515C10.2869 12.2617 8.25396 10.624 7.07271 9.85323Z" fill="#9AA1A9"/>
</svg>
