<svg width="25" height="25" viewBox="0 0 25 25" fill="none" xmlns="http://www.w3.org/2000/svg">
<path d="M10.975 15.2033L11.625 14.5533L10.4467 13.375L9.79666 14.025C9.35277 13.7296 8.85583 13.523 8.33333 13.4167V12.5H6.66667V13.4167C6.14423 13.5228 5.64729 13.7291 5.20333 14.0242L4.55333 13.3742L3.375 14.5533L4.025 15.2033C3.72959 15.6472 3.523 16.1442 3.41667 16.6667H2.5V18.3333H3.41667C3.52275 18.8558 3.72905 19.3527 4.02417 19.7967L3.37417 20.4467L4.55333 21.625L5.20333 20.975C5.64723 21.2704 6.14417 21.477 6.66667 21.5833V22.5H8.33333V21.5833C8.85577 21.4773 9.35271 21.271 9.79666 20.9758L10.4467 21.6258L11.625 20.4475L10.975 19.7975C11.2705 19.3534 11.4771 18.8561 11.5833 18.3333H12.5V16.6667H11.5833C11.477 16.1442 11.2704 15.6472 10.975 15.2033ZM7.5 20C6.83696 20 6.20107 19.7366 5.73223 19.2678C5.26339 18.7989 5 18.163 5 17.5C5 16.837 5.26339 16.2011 5.73223 15.7322C6.20107 15.2634 6.83696 15 7.5 15C8.16304 15 8.79892 15.2634 9.26777 15.7322C9.73661 16.2011 10 16.837 10 17.5C10 18.163 9.73661 18.7989 9.26777 19.2678C8.79892 19.7366 8.16304 20 7.5 20ZM22.5 11.6667C22.5 11.0036 22.2366 10.3677 21.7678 9.89891C21.2989 9.43007 20.663 9.16668 20 9.16668H19.1667V6.66668H17.5V9.16668H15.4617L12.03 3.67501C11.8063 3.31452 11.494 3.01729 11.1229 2.81162C10.7518 2.60594 10.3343 2.49867 9.91 2.50001H5V9.16668C4.33696 9.16668 3.70107 9.43007 3.23223 9.89891C2.76339 10.3677 2.5 11.0036 2.5 11.6667L2.5 13.1008C2.97783 12.5575 3.54071 12.0954 4.16667 11.7325V11.6667C4.16667 11.4457 4.25446 11.2337 4.41074 11.0774C4.56702 10.9211 4.77899 10.8333 5 10.8333H20C20.221 10.8333 20.433 10.9211 20.5893 11.0774C20.7455 11.2337 20.8333 11.4457 20.8333 11.6667V13.0558L19.2042 15.2275C13.5967 13.5608 12.0717 22.1442 17.9167 22.5C18.6496 22.4912 19.3641 22.2688 19.9725 21.86C20.581 21.4513 21.057 20.874 21.3423 20.1988C21.6277 19.5236 21.7099 18.7799 21.5789 18.0587C21.4479 17.3374 21.1095 16.6701 20.605 16.1383L22.5 13.6108V11.6667ZM6.66667 4.16668H9.91C10.0513 4.16619 10.1904 4.20193 10.314 4.2705C10.4375 4.33907 10.5415 4.43817 10.6158 4.55834L13.5 9.16668H6.66667V4.16668ZM17.9167 20.8333C17.3641 20.8333 16.8342 20.6138 16.4435 20.2231C16.0528 19.8324 15.8333 19.3025 15.8333 18.75C15.8333 18.1975 16.0528 17.6676 16.4435 17.2769C16.8342 16.8862 17.3641 16.6667 17.9167 16.6667C18.4692 16.6667 18.9991 16.8862 19.3898 17.2769C19.7805 17.6676 20 18.1975 20 18.75C20 19.3025 19.7805 19.8324 19.3898 20.2231C18.9991 20.6138 18.4692 20.8333 17.9167 20.8333Z" fill="currentColor"/>
</svg>
