<svg width="16" height="17" viewBox="0 0 12 13" fill="none" xmlns="http://www.w3.org/2000/svg">
<path d="M0.75 3.26562H1.91667H11.25" stroke="currentColor" stroke-width="1.5" stroke-linecap="round" stroke-linejoin="round"/>
<path d="M3.6665 3.26602V2.21602C3.6665 1.93754 3.78942 1.67047 4.00821 1.47355C4.22701 1.27664 4.52375 1.16602 4.83317 1.16602H7.1665C7.47592 1.16602 7.77267 1.27664 7.99146 1.47355C8.21025 1.67047 8.33317 1.93754 8.33317 2.21602V3.26602M10.0832 3.26602V10.616C10.0832 10.8945 9.96025 11.1616 9.74146 11.3585C9.52267 11.5554 9.22592 11.666 8.9165 11.666H3.08317C2.77375 11.666 2.47701 11.5554 2.25821 11.3585C2.03942 11.1616 1.9165 10.8945 1.9165 10.616V3.26602H10.0832Z" stroke="currentColor" stroke-width="1.5" stroke-linecap="round" stroke-linejoin="round"/>
<path d="M4.8335 5.83203V8.98203" stroke="currentColor" stroke-width="1.5" stroke-linecap="round" stroke-linejoin="round"/>
<path d="M7.1665 5.83203V8.98203" stroke="currentColor" stroke-width="1.5" stroke-linecap="round" stroke-linejoin="round"/>
</svg>
