<svg width="19" height="20" viewBox="0 0 19 20" fill="none" xmlns="http://www.w3.org/2000/svg">
<path d="M17.9763 9.43839L9.95027 17.4644C8.96703 18.4476 7.63346 19 6.24295 19C4.85243 19 3.51887 18.4476 2.53562 17.4644C1.55238 16.4811 1 15.1476 1 13.7571C1 12.3665 1.55238 11.033 2.53562 10.0497L10.5616 2.02375C11.2171 1.36825 12.1061 1 13.0332 1C13.9602 1 14.8492 1.36825 15.5047 2.02375C16.1602 2.67924 16.5285 3.56829 16.5285 4.4953C16.5285 5.42231 16.1602 6.31135 15.5047 6.96685L7.46999 14.9928C7.14224 15.3206 6.69772 15.5047 6.23421 15.5047C5.77071 15.5047 5.32619 15.3206 4.99844 14.9928C4.67069 14.6651 4.48656 14.2206 4.48656 13.7571C4.48656 13.2935 4.67069 12.849 4.99844 12.5213L12.4131 5.11537" stroke="#9AA1A9" stroke-width="1.5" stroke-linecap="round" stroke-linejoin="round"/>
</svg>
