<svg width="25" height="25" viewBox="0 0 25 25" fill="none" xmlns="http://www.w3.org/2000/svg">
<path d="M8.04083 11.6667H5.25C5.02899 11.6667 4.81702 11.7545 4.66074 11.9107C4.50446 12.067 4.41667 12.279 4.41667 12.5V15H2.75V12.5C2.75 11.837 3.01339 11.2011 3.48223 10.7322C3.95107 10.2634 4.58696 10 5.25 10H9.03083C8.59486 10.4854 8.25849 11.0516 8.04083 11.6667ZM20.25 10H16.4692C16.9051 10.4854 17.2415 11.0516 17.4592 11.6667H20.25C20.471 11.6667 20.683 11.7545 20.8393 11.9107C20.9955 12.067 21.0833 12.279 21.0833 12.5V15H22.75V12.5C22.75 11.837 22.4866 11.2011 22.0178 10.7322C21.5489 10.2634 20.913 10 20.25 10ZM16.0833 13.3333C16.0833 12.6741 15.8878 12.0296 15.5216 11.4814C15.1553 10.9333 14.6347 10.506 14.0256 10.2537C13.4165 10.0014 12.7463 9.93543 12.0997 10.064C11.4531 10.1927 10.8592 10.5101 10.393 10.9763C9.9268 11.4425 9.60933 12.0364 9.48071 12.683C9.3521 13.3296 9.41811 13.9999 9.6704 14.6089C9.92269 15.218 10.3499 15.7386 10.8981 16.1049C11.4463 16.4712 12.0907 16.6667 12.75 16.6667C13.6341 16.6667 14.4819 16.3155 15.107 15.6904C15.7321 15.0652 16.0833 14.2174 16.0833 13.3333ZM14.4167 13.3333C14.4167 13.663 14.3189 13.9852 14.1358 14.2593C13.9526 14.5334 13.6923 14.747 13.3878 14.8731C13.0833 14.9993 12.7481 15.0323 12.4248 14.968C12.1015 14.9037 11.8046 14.7449 11.5715 14.5118C11.3384 14.2788 11.1797 13.9818 11.1154 13.6585C11.051 13.3352 11.0841 13.0001 11.2102 12.6955C11.3363 12.391 11.55 12.1307 11.824 11.9476C12.0981 11.7644 12.4204 11.6667 12.75 11.6667C13.192 11.6667 13.6159 11.8423 13.9285 12.1548C14.2411 12.4674 14.4167 12.8913 14.4167 13.3333ZM17.75 20C17.75 19.337 17.4866 18.7011 17.0178 18.2322C16.5489 17.7634 15.913 17.5 15.25 17.5H10.25C9.58696 17.5 8.95107 17.7634 8.48223 18.2322C8.01339 18.7011 7.75 19.337 7.75 20V22.5H9.41667V20C9.41667 19.779 9.50446 19.567 9.66074 19.4107C9.81702 19.2545 10.029 19.1667 10.25 19.1667H15.25C15.471 19.1667 15.683 19.2545 15.8393 19.4107C15.9955 19.567 16.0833 19.779 16.0833 20V22.5H17.75V20ZM21.0833 5.83333C21.0833 5.17406 20.8878 4.5296 20.5216 3.98143C20.1553 3.43327 19.6347 3.00603 19.0256 2.75374C18.4165 2.50144 17.7463 2.43543 17.0997 2.56405C16.4531 2.69267 15.8592 3.01014 15.393 3.47631C14.9268 3.94249 14.6093 4.53643 14.4807 5.18303C14.3521 5.82964 14.4181 6.49986 14.6704 7.10895C14.9227 7.71803 15.3499 8.23863 15.8981 8.6049C16.4463 8.97117 17.0907 9.16667 17.75 9.16667C18.6341 9.16667 19.4819 8.81548 20.107 8.19036C20.7321 7.56524 21.0833 6.71739 21.0833 5.83333ZM19.4167 5.83333C19.4167 6.16297 19.3189 6.4852 19.1358 6.75928C18.9526 7.03337 18.6923 7.24699 18.3878 7.37313C18.0833 7.49928 17.7481 7.53229 17.4248 7.46798C17.1015 7.40367 16.8046 7.24493 16.5715 7.01185C16.3384 6.77876 16.1797 6.48179 16.1154 6.15849C16.051 5.83518 16.0841 5.50007 16.2102 5.19553C16.3363 4.89099 16.55 4.63069 16.824 4.44755C17.0981 4.26442 17.4204 4.16667 17.75 4.16667C18.192 4.16667 18.6159 4.34226 18.9285 4.65482C19.2411 4.96738 19.4167 5.39131 19.4167 5.83333ZM11.0833 5.83333C11.0833 5.17406 10.8878 4.5296 10.5216 3.98143C10.1553 3.43327 9.6347 3.00603 9.02561 2.75374C8.41652 2.50144 7.7463 2.43543 7.0997 2.56405C6.4531 2.69267 5.85915 3.01014 5.39298 3.47631C4.9268 3.94249 4.60933 4.53643 4.48072 5.18303C4.3521 5.82964 4.41811 6.49986 4.6704 7.10895C4.92269 7.71803 5.34994 8.23863 5.8981 8.6049C6.44626 8.97117 7.09073 9.16667 7.75 9.16667C8.63405 9.16667 9.4819 8.81548 10.107 8.19036C10.7321 7.56524 11.0833 6.71739 11.0833 5.83333ZM9.41667 5.83333C9.41667 6.16297 9.31892 6.4852 9.13578 6.75928C8.95265 7.03337 8.69235 7.24699 8.38781 7.37313C8.08326 7.49928 7.74815 7.53229 7.42485 7.46798C7.10155 7.40367 6.80458 7.24493 6.57149 7.01185C6.3384 6.77876 6.17967 6.48179 6.11536 6.15849C6.05105 5.83518 6.08405 5.50007 6.2102 5.19553C6.33635 4.89099 6.54997 4.63069 6.82405 4.44755C7.09813 4.26442 7.42036 4.16667 7.75 4.16667C8.19203 4.16667 8.61595 4.34226 8.92851 4.65482C9.24107 4.96738 9.41667 5.39131 9.41667 5.83333Z" fill="currentColor"/>
</svg>
