<svg width="24" height="12" viewBox="0 0 24 12" fill="none" xmlns="http://www.w3.org/2000/svg">
<path d="M5.04405 1.95H6.36655V10H5.04405V6.5155H1.59405V10H0.271553V1.95H1.59405V5.2505H5.04405V1.95ZM14.0132 8.735H14.8757V11.541H13.5532V10H8.66565V11.541H7.34315V8.735H8.09065C8.55832 8.12167 8.79215 7.19783 8.79215 5.9635V1.95H14.0132V8.735ZM9.53965 8.735H12.6907V3.192H10.1147V5.9865C10.1147 7.1825 9.92299 8.09867 9.53965 8.735ZM19.7221 10.1495C18.5108 10.1495 17.5064 9.75083 16.7091 8.9535C15.9118 8.1485 15.5131 7.15567 15.5131 5.975C15.5131 4.79433 15.9118 3.80533 16.7091 3.008C17.5064 2.203 18.5108 1.8005 19.7221 1.8005C20.4504 1.8005 21.1213 1.973 21.7346 2.318C22.3556 2.663 22.8386 3.13067 23.1836 3.721L22.0336 4.388C21.8189 3.98933 21.5046 3.675 21.0906 3.445C20.6843 3.20733 20.2281 3.0885 19.7221 3.0885C18.8634 3.0885 18.1658 3.36067 17.6291 3.905C17.1001 4.44933 16.8356 5.13933 16.8356 5.975C16.8356 6.81067 17.1001 7.50067 17.6291 8.045C18.1658 8.58933 18.8634 8.8615 19.7221 8.8615C20.2281 8.8615 20.6881 8.7465 21.1021 8.5165C21.5161 8.27883 21.8266 7.96067 22.0336 7.562L23.1836 8.2175C22.8463 8.80783 22.3671 9.27933 21.7461 9.632C21.1328 9.977 20.4581 10.1495 19.7221 10.1495Z" fill="#EB8A00"/>
</svg>
