<svg width="17" height="17" viewBox="0 0 17 17" fill="none" xmlns="http://www.w3.org/2000/svg">
<path d="M16.9941 8.49707L14.7345 10.3981L15.4671 13.2883L12.5394 13.4713L11.4671 16.2471L8.99414 14.6433L6.52116 16.2471L5.44607 13.4713L2.52116 13.2883L3.25098 10.3981L0.994141 8.49707L3.25098 6.59602L2.52116 3.70871L5.44607 3.52575L6.52116 0.74707L8.99414 2.35081L11.4671 0.74707L12.5422 3.52575L15.4671 3.70871L14.7345 6.59888L16.9941 8.49707Z" fill="#0167DE"/>
<path d="M16.9941 8.49707L14.7345 10.3981L15.4671 13.2883L12.5394 13.4713L11.4671 16.2471L8.99414 14.6433L6.52116 16.2471L5.44607 13.4713L2.52116 13.2883L3.25098 10.3981L0.994141 8.49707L3.25098 6.59602L2.52116 3.70871L5.44607 3.52575L6.52116 0.74707L8.99414 2.35081L11.4671 0.74707L12.5422 3.52575L15.4671 3.70871L14.7345 6.59888L16.9941 8.49707Z" fill="#0167DE"/>
<path fill-rule="evenodd" clip-rule="evenodd" d="M7.79371 10.6042L6.11371 8.89329L5.55371 9.4636L7.79371 11.7449L12.5937 6.85645L12.0337 6.28613L7.79371 10.6042Z" fill="white"/>
</svg>
