<svg width="40" height="40" viewBox="0 0 40 40" fill="none" xmlns="http://www.w3.org/2000/svg">
<path d="M26.8001 0C27.1131 0.250443 27.4429 0.474799 27.7236 0.754461C30.1237 3.14098 32.5123 5.54211 34.9144 7.92758C35.0993 8.09912 35.2454 8.3081 35.3431 8.54058C35.4409 8.77307 35.4879 9.02371 35.4811 9.2758C35.4706 18.2598 35.4682 27.2441 35.4738 36.2287C35.4738 38.5328 33.9982 40 31.6827 40H8.78691C6.4724 40 5 38.5318 5 36.2246C5 25.4416 5 14.6603 5 3.88083C5 1.76876 5.93916 0.560367 7.98028 0.03861C8.00412 0.0286941 8.02657 0.0157149 8.04706 0L26.8001 0ZM25.3162 2.34373H8.74622C7.78201 2.34373 7.34165 2.7841 7.34165 3.75665V36.2454C7.34165 37.2149 7.77992 37.6563 8.74204 37.6563H31.7129C32.6991 37.6563 33.13 37.2201 33.13 36.2225V10.1565H32.6636C30.6461 10.1565 28.6287 10.1565 26.6112 10.1565C25.8004 10.1565 25.3214 9.67964 25.3193 8.87405C25.3193 7.46739 25.3193 6.06178 25.3193 4.65616L25.3162 2.34373ZM27.6724 7.78149H31.2642L27.6724 4.18971V7.78149Z" fill="#EB8A00"/>
<path d="M20.1967 34.4536H10.3157C9.34727 34.4536 8.90691 34.0154 8.90691 33.0532C8.90691 26.9487 8.90691 20.8441 8.90691 14.7396C8.90691 13.8004 9.35353 13.3611 10.2979 13.3611H30.1758C31.115 13.3611 31.5668 13.8046 31.5668 14.7417V33.0929C31.5668 34.0018 31.1108 34.4495 30.1946 34.4495L20.1967 34.4536ZM11.2819 15.7163V18.0266H19.821V15.7163H11.2819ZM11.2673 22.7078H19.8137V20.4121H11.2673V22.7078ZM19.8304 25.1079H11.2736V27.4037H19.8304V25.1079ZM19.8304 29.7943H11.2736V32.0901H19.8304V29.7943ZM24.5074 18.0298V15.734H22.2117V18.0298H24.5074ZM29.2033 15.7257H26.9075V18.0214H29.2033V15.7257ZM24.5022 22.7172V20.4121H22.2148V22.7204L24.5022 22.7172ZM26.9023 20.3954V22.7026H29.1897V20.3985L26.9023 20.3954ZM24.5148 25.1017H22.219V27.3974H24.5148V25.1017ZM29.2053 25.1017H26.9096V27.3974H29.2053V25.1017ZM24.5001 32.0932V29.7923H22.2201V32.1016L24.5001 32.0932ZM29.2053 29.786H26.9096V32.0817H29.2053V29.786Z" fill="#EB8A00"/>
<path d="M26.9034 20.3988H29.1908V22.706H26.9034V20.3988Z" fill="white"/>
</svg>
